<svg xmlns="http://www.w3.org/2000/svg" width="134" height="157" fill="none" xmlns:v="https://vecta.io/nano"><g fill-rule="evenodd" fill="#fea827"><path d="M88.463 126.606c-6.499 5.086-14.317 7.61-22.476 8.791-7.834 1.134-15.346-.425-23.061-2.198-10.073-2.316-21.67-2.059-28.659-9.692-7.565-8.261-10.476-20.403-9.09-31.533 1.389-11.146 7.559-21.681 16.553-28.379 8.278-6.164 19.612-3.331 29.579-5.975 11.148-2.958 22.045-16.022 32.118-10.395 10.283 5.744 4.811 22.31 8.974 33.351 3.297 8.742 13.522 14.881 12.725 24.193-.801 9.36-9.277 16.057-16.664 21.837z"/><path opacity=".5" d="M48.244 44.87c8.009-1.987 17.79-14.629 25.72-12.375C81.578 34.66 93.383 45.674 99.7 50.444c8.249 6.228 11.74 17.739 15.002 27.56 3.53 10.631 1.228 22.903-4.583 32.496-5.821 9.607-15.756 16.702-26.701 19.142-10.073 2.245-19.262-4.971-29.44-6.628-11.384-1.853-26.667 5.62-33.562-3.63-7.04-9.444 4.721-22.33 5.431-34.107.562-9.326-6.265-19.106-1.733-27.281 4.555-8.217 15.027-10.867 24.131-13.126z"/></g><path d="M78.605 136.69l.901-2.915c.53-2.332.53-4.664-.583-6.89l.901-.424c1.272-.583 2.597-.265 3.551.742 1.007 1.007 1.431 2.226 1.272 3.657l-.318 3.233c-.265 2.279-.318 4.558-.212 6.837 0 .583-.053 1.166-.106 1.749 0 .265-.106.583-.265.848-.477.848-1.219 1.06-1.961.477-1.007-.742-1.537-1.802-1.802-3.021-.265-1.113-.477-2.279-.901-3.339a2.69 2.69 0 0 0-.477-.954z" fill="#6395ce"/><path d="M104.469 30.32c-.795-.742-1.749-1.325-2.915-1.696-2.226-.742-4.77-.742-6.943.159-3.445 1.431-5.83 4.664-9.169 6.413-3.233 1.696-7.208 1.855-10.176 3.975-1.749 1.272-3.074 3.18-5.141 3.975-1.378.53-2.862.424-4.293.212-3.975-.636-8.003-2.809-9.487-6.519-1.007-2.544-.795-5.565-2.279-7.844-.901-1.484-2.438-2.544-3.021-4.187-.848-2.279.424-4.77.901-7.155.53-2.756-.106-5.777-1.749-8.056s-4.452-3.71-7.261-3.763c0 0-2.014-.212-5.141 1.484-3.869 2.65-5.194 8.003-4.346 12.614.795 4.611 3.392 8.745 5.936 12.667s5.247 7.95 6.36 12.508c.159.742.318 1.537 0 2.226-.318.795-1.06 1.272-1.749 1.802-5.936 4.558-6.148 13.462-10.547 19.557-1.431 1.961-3.286 3.604-4.717 5.565-1.749 2.385-2.703 5.459-1.378 8.268 1.113 2.279 3.604 3.922 6.148 3.922h.318c1.06-.053 2.067-.371 3.127-.424 1.06 0 2.12.265 3.127.53 4.134 1.166 8.321 2.279 12.296 3.869 4.187 1.643 8.162 3.816 12.508 4.982s9.222 1.272 13.091-1.007c3.339-1.961 5.565-5.565 6.254-9.381s-.053-7.791-1.696-11.342c-1.166-2.544-2.756-4.929-3.657-7.579-.848-2.703-.795-5.883 1.113-7.95 1.113-1.166 2.597-1.855 4.028-2.65 2.067-1.166 3.922-2.703 5.459-4.505.848-1.007 1.59-2.067 2.544-2.915 1.802-1.59 4.187-2.279 6.254-3.392 2.491-1.325 4.611-3.339 6.095-5.724 1.484-2.332 2.65-5.194.954-7.738-.265-.265-.53-.583-.848-.901z" fill="#867fdb"/><path d="M78.605 136.69l-.53.795c-1.908 3.18-5.353 4.558-8.957 3.604-.742-.212-1.484-.424-2.12-.795-1.219-.795-2.385-.583-3.604-.106l-3.551.901c-.371.106-.53.318-.53.689.053 1.802-.583 3.392-1.431 4.876-.053 0-.053.053-.106.053-2.544 3.816-7.844 3.286-10.706.583-.848-.795-1.696-1.696-2.491-2.544-.636-.636-1.219-1.219-1.855-1.802-1.484-1.378-3.127-2.597-4.982-3.445-3.339-1.537-6.625-3.286-9.699-5.353-2.279-1.537-4.187-3.445-5.777-5.671-2.279-3.286-2.756-6.837-1.802-10.705.583-2.438 1.696-4.611 3.074-6.678 1.272-1.855 2.491-3.71 3.869-5.512 2.809-3.604 5.035-7.526 7.049-11.607 1.219-2.491 2.491-4.982 3.922-7.42.106-.212.212-.477.318-.689.901-1.272 1.59-2.65 2.226-4.081.583-1.378 1.166-2.809 2.173-3.975.318.265.636.477.954.742 2.332 1.908 4.929 3.445 7.844 4.346 4.081 1.219 8.215 2.332 12.508 2.703.477.053.954 0 1.325.371v.424c.583 3.127 1.166 6.201 1.431 9.381.159 4.346-.954 8.374-2.597 12.349-.636 1.484-1.378 2.968-2.014 4.452-.742 1.696-1.007 3.392-.689 5.194.424 2.543.53 5.14.053 7.684-.106.636-.053.636.636.583 2.862-.106 5.671-.583 8.427-1.59.848-.318 1.696-.371 2.544-.424 2.173-.159 3.869.689 5.194 2.385.106.159.265.265.371.424 1.113 2.226 1.06 4.505.583 6.89l-1.06 2.968zm-35.563-22.206c-.742.742-1.272 1.271-1.855 1.748-.53.477-1.113.955-1.59 1.484-.848.848-.848 1.855 0 2.703.795.742 1.537 1.537 2.332 2.279.689.689.848.689 1.219-.212.053-.159.106-.371.106-.53-.212-2.385-.371-4.77-.212-7.472z" fill="#1f2241"/><path d="M71.238 38.641c-.106-.371-.318-.689-.689-.742h-.212c-.106.053-.212.159-.265.212-.265.371-.424.848-.795 1.113s-1.007.318-1.166-.106c-.053-.106-.106-.212-.212-.212-.053 0-.159.053-.212.106-1.325 1.166-2.809 2.226-4.346 3.074-.053.053-.106.053-.106.159 0 .053.053.106.106.159.212.265.106.583-.053.901-.371.848-.901 1.749-1.802 1.908-.159.053-.265.053-.424.106-.106.106-.159.212-.212.371-.477 1.484.053 3.233 1.219 4.346.583.583 1.484.954 2.279.848.53-.053 1.06-.318 1.484-.689 1.113-.848 2.65-2.491 1.696-3.392-1.643-1.484-.53-5.088 1.378-6.095.212-.106.477-.159.742-.212.636-.106 1.219-.477 1.484-1.007.159-.318.159-.583.106-.848z" fill="#d77062"/><path d="M57.882 146.708c.901-1.537 1.484-3.127 1.431-4.876 0-.371.106-.583.53-.689l3.551-.901c1.113.848 1.378 2.014 1.272 3.286-.053 1.219-.265 2.438-.424 3.657-.212 1.325-.159 2.65-.159 4.028l.053 2.597c0 .583-.106 1.166-.424 1.643-.424.636-1.06.742-1.696.318-.954-.636-1.484-1.643-1.696-2.703-.424-2.12-1.06-4.134-2.385-5.883-.053-.159-.053-.371-.053-.477z" fill="#6395ce"/><path d="M71.98 58.463c.477-.848.477-1.59 0-2.438-.795-1.325-1.219-2.756-1.325-4.293-.106-1.113.053-2.173.053-3.233.053-1.06-.371-1.537-1.431-1.643l-1.749-.106c-.053 1.537-.742 2.703-1.908 3.604-.954.689-2.067.636-2.968.053-1.802-1.166-2.385-3.657-1.59-5.141-1.272-.53-1.908-.371-2.756.848-1.59 2.226-3.498 4.187-5.565 5.936-.106.106-.212.159-.318.265s-.212.212-.318.265v.053c-.424.477-.689 1.06-.742 1.643-.265 3.763.583 7.844-1.325 11.077-.901 1.537-2.385 2.703-3.763 3.869s-2.756 2.491-3.339 4.187c-.477 1.378-.371 3.074.53 4.187 0 .265.053.477.106.742.159.159.318.265.53.424 2.332 1.908 4.929 3.445 7.844 4.346 4.081 1.219 8.215 2.332 12.508 2.703.477.053.954 0 1.325.371.795-.371 1.272-1.06 1.59-1.855.689-1.749 1.06-3.551.901-5.406-.265-2.915-.265-5.83.053-8.798.212-2.014.53-4.028 1.166-5.936.583-2.067 1.484-3.922 2.491-5.724zM46.54 73.356c-.212.159-.477.318-.742.53.53-.477 1.113-.901 1.696-1.325a7.57 7.57 0 0 1-.954.795z" fill="#f8ebe5"/><path d="M69.648 37.74c-.742 3.445-3.127 5.883-5.247 5.406-3.074-.689-3.286-3.657-2.491-7.102.742-3.445 3.127-5.883 5.247-5.406s3.233 3.657 2.491 7.102z" fill="#d77062"/><path d="M64.401 32.281l-2.385-.795c-3.816-1.272-6.466-3.763-7.102-7.844-.477-2.968.318-5.618 2.703-7.632 1.325-1.06 2.862-1.59 4.558-1.219 3.498.742 4.399 3.604 4.028 5.989-.159 1.166-.583 2.226-1.007 3.339-.106.265-.212.53-.159.848.371 2.279 1.219 4.24 3.392 5.406.583.318 1.113.689 1.59 1.113.53.53.795 1.219.636 1.961-.106.53-.106.954.053 1.484.265 1.06-.159 2.014-.53 2.968-.265.477-.53.954-.901 1.325-.53.424-.848.371-1.272-.159s-.53-1.166-.477-1.855c.106-1.007.53-1.855 1.166-2.65.53-.689.53-.742-.265-1.166-1.272-.583-2.65-.848-4.028-1.113z" fill="#212443"/><path d="M71.662 39.383c-.636 1.272-1.749 2.014-2.438 1.643s-.742-1.696-.106-2.968 1.749-2.014 2.438-1.643.742 1.696.106 2.968zm-8.745-2.915c.159 1.272-.265 2.385-.954 2.491s-1.431-.848-1.59-2.12.265-2.385.954-2.491 1.431.848 1.59 2.12z" fill="#d77062"/><path d="M65.885 39.118a1.58 1.58 0 0 1-1.855.848c-.742-.265-1.166-1.007-1.007-1.802l2.862.954z" fill="#fff"/><path d="M107.967 27.829c-.371-.477-2.279 1.219-2.279 1.219s2.385-2.385 2.173-2.756c-.318-.636-3.021 2.067-3.021 2.067s2.862-3.021 2.226-3.498-3.127 2.862-3.127 2.862 2.12-3.286 1.537-3.551c-.583-.318-3.18 4.028-3.18 4.028s-.371-2.544-.901-2.491c-.901.053-.318 5.459-.318 5.459l2.279 1.908c.053.053 4.982-4.77 4.611-5.247zM35.41 3.184c.424-.371 2.014 1.643 2.014 1.643S35.516 2.071 35.781 1.7c.424-.583 2.597 2.597 2.597 2.597S36.152.799 36.841.428C37.53.11 39.385 3.82 39.385 3.82S37.901.216 38.537.004c.636-.159 2.385 4.558 2.385 4.558s.848-2.438 1.325-2.279c.848.212-.742 5.459-.742 5.459l-2.597 1.431c.053.053-3.922-5.565-3.498-5.989z" fill="#d77062"/><path d="M100.07 31.645c1.113 1.166 2.279 2.014 3.922 2.226.848.106.848-1.219 0-1.325-1.272-.159-2.12-.954-3.021-1.855-.53-.583-1.484.318-.901.954zM42.936 7.477c-2.067-.106-3.975.848-5.194 2.491-.53.689.636 1.325 1.166.689.954-1.272 2.491-1.908 4.081-1.802.795-.053.795-1.378-.053-1.378zm16.748 35.51c-2.332 4.558-6.095 8.215-10.759 10.282-3.869 1.749-8.904 3.392-9.487 8.268-.053.424.583.424.636 0 .689-5.512 7.526-6.572 11.448-8.851 3.763-2.226 6.731-5.512 8.692-9.381.212-.371-.371-.689-.53-.318zM39.385 63.604c-.318 1.113-.742 2.173-1.325 3.18-.212.371.371.689.583.318.636-1.06 1.06-2.173 1.431-3.339.053-.424-.583-.583-.689-.159zm31.111-18.179c.636 1.961-.106 3.869-.106 5.883 0 1.484.477 2.915 1.007 4.24 1.219 2.862 3.074 5.671 2.703 8.957-.053.424.636.424.636 0 .371-3.074-1.272-5.777-2.438-8.48-.742-1.643-1.325-3.339-1.272-5.141.106-1.908.636-3.71.053-5.565-.053-.477-.689-.265-.583.106zm4.346 22.843c-.053.848.053 1.696.318 2.491.159.424.795.212.636-.159a5.79 5.79 0 0 1-.318-2.332c.053-.424-.636-.424-.636 0zm-5.777 25.864c3.339-.053 7.102-1.961 8.268-5.194 1.378-3.71-.159-7.526-1.59-10.918-.159-.371-.742-.053-.583.318 1.272 3.021 2.65 6.36 1.802 9.699-.901 3.392-4.505 5.406-7.897 5.459-.424 0-.424.636 0 .636zM36.788 71.289c-2.491 1.802-4.505 4.611-4.823 7.738-.159 1.325.212 2.809 1.378 3.604 1.484.954 3.339-.212 4.77.795.371.265.689-.318.318-.583-.795-.583-1.643-.53-2.544-.477s-1.855.106-2.544-.636c-.742-.742-.795-1.908-.636-2.862.424-2.809 2.173-5.353 4.505-6.996.265-.265-.053-.795-.424-.583zm9.222-23.373c5.141-3.498 8.692-8.904 9.805-15.052.053-.424-.583-.583-.636-.159-1.06 5.936-4.505 11.236-9.487 14.628-.371.265 0 .795.318.583zm29.68-9.381c-.689 3.869-.424 7.738.636 11.501.795 2.809 1.749 5.989 4.452 7.526.371.212.689-.371.318-.583-2.703-1.484-3.551-4.876-4.293-7.632-.954-3.498-1.113-7.102-.477-10.653.106-.371-.53-.583-.636-.159z" fill="#4f7ca6"/><path d="M58.783 46.644c-.318 2.597 1.007 5.088 3.445 6.042 2.756 1.06 4.717-.477 5.989-2.809.212-.371-.371-.689-.583-.318-.477.901-1.007 1.855-1.855 2.385-1.113.689-2.544.53-3.657 0-2.014-.954-2.968-3.074-2.703-5.247.053-.477-.583-.477-.636-.053zm-15.158 31.27c-.742-2.173 2.226-3.339 3.604-4.399 1.166-.848 2.279-1.802 3.339-2.809 2.173-2.12 3.975-4.611 5.353-7.314.212-.371-.371-.689-.583-.318a28.31 28.31 0 0 1-6.837 8.586c-1.325 1.113-2.756 1.961-4.134 2.968-1.113.848-1.855 2.014-1.431 3.445.212.424.848.265.689-.159zm12.932-18.762c0 .636-.159 1.219-.53 1.749-.212.371.318.689.583.318.424-.636.636-1.325.636-2.12-.053-.371-.689-.371-.689.053z" fill="#eac2b0"/><g fill="#cc5b1c"><path d="M61.857 84.38c3.339 7.208 1.378 15.37-2.544 21.942-.689 1.166-1.961 2.438-2.067 3.869-.053 1.537.742 3.286.954 4.823.583 3.816.212 7.95-2.703 10.759-.159.159-.106.477.159.53a3.65 3.65 0 0 1 2.597 3.975c0 .265.318.424.477.265 3.392-1.961 7.632-1.802 10.918.371.106.106.318.053.424-.053 2.597-2.226 6.307-2.544 9.222-.848.371.212.689-.371.318-.583-1.59-.954-3.445-1.325-5.3-1.166a12.06 12.06 0 0 0-2.385.583c-.742.318-1.696 1.272-2.438 1.113-.901-.265-1.696-.848-2.597-1.113s-1.855-.371-2.809-.424c-2.014-.053-3.922.477-5.618 1.484.159.106.318.212.477.265.212-2.12-1.113-3.975-3.127-4.611.053.159.106.371.159.53 2.438-2.385 3.286-5.83 3.127-9.169-.106-2.014-.583-3.922-1.007-5.83-.265-1.325.212-2.12.901-3.18.53-.848 1.06-1.696 1.537-2.597 3.551-6.519 5.088-14.416 1.855-21.412-.159-.265-.742.106-.53.477zM43.36 114.166c-1.696-1.961-3.392-4.028-3.074-6.784.053-.424-.636-.424-.636 0-.318 2.915 1.484 5.194 3.286 7.261.212.318.689-.159.424-.477z"/><path d="M43.042 114.272c-.689 6.042-1.113 12.243 2.703 17.437.265.318.848 0 .583-.318-3.763-5.088-3.286-11.183-2.597-17.066 0-.477-.636-.477-.689-.053zm6.572 21.571c.954 1.06 1.908 2.173 3.127 2.915 1.325.795 2.862 1.166 4.346 1.59 1.325.371 2.756.901 4.187.636s3.922-1.749 5.247-.689c.318.265.795-.212.477-.477-.901-.689-1.908-.53-2.968-.265-1.855.371-3.286 1.06-5.194.583-1.537-.371-3.18-.848-4.664-1.431-1.749-.689-2.915-1.961-4.134-3.339-.265-.318-.689.159-.424.477zm-9.275-24.857c-2.067 2.597-4.399 4.982-6.996 7.049-.106.106-.106.265-.053.424 1.484 2.809 1.802 5.989 1.007 9.063-.106.424.53.583.636.159.424-1.537.583-3.074.424-4.664-.159-1.484-.742-2.756-1.113-4.187-.159-.583-.212-.424.265-.954.265-.265.583-.477.848-.742l1.855-1.696a51.51 51.51 0 0 0 3.604-4.028c.212-.265-.212-.742-.477-.424z"/><path d="M34.933 128.423c10.07 1.484 12.243 17.649 23.479 15.953.424-.053.265-.689-.159-.636-5.883.901-9.858-4.452-13.038-8.533-2.597-3.339-5.671-6.784-10.123-7.42-.424-.053-.583.583-.159.636zm13.992-46.587c-1.431-2.968-4.558-6.307-8.109-6.466-1.59-.053-2.862.795-4.081 1.749-.742.583-1.484 1.166-2.438 1.378-1.378.265-2.809-.424-4.028-1.06-.742-.371-1.431.742-.689 1.166 1.537.795 3.233 1.59 5.035 1.166 1.484-.318 2.544-1.431 3.71-2.279 3.71-2.491 7.844 1.802 9.381 4.982.477.795 1.643.159 1.219-.636zm5.618 1.06c-1.166-1.219-2.915-1.166-4.028.053-1.59 1.696-1.908 4.187-3.074 6.148-.636 1.06-1.537 2.067-2.756 2.385-1.272.318-2.544-.424-3.763-.583-1.749-.265-3.445.689-4.24 2.226-.424.742.742 1.431 1.166.689.477-.901 1.272-1.537 2.332-1.59 1.113-.106 2.12.477 3.18.636 1.378.212 2.65-.265 3.657-1.166 1.219-1.007 1.908-2.385 2.491-3.816.53-1.272 2.12-6.201 4.134-4.028.583.636 1.484-.318.901-.954zm4.77.795c2.968 6.731 1.855 14.575-2.597 20.405-1.007 1.325-1.855 2.597-1.908 4.293-.053 2.014.477 4.081.583 6.095.212 4.081-.424 8.321-3.339 11.395-.371.371-.212.954.318 1.113 2.385.689 3.869 2.915 3.71 5.406-.053.848 1.272.848 1.325 0 .159-3.021-1.802-5.777-4.717-6.678.106.371.212.742.265 1.113 2.703-2.862 3.71-6.731 3.763-10.6 0-2.332-.371-4.611-.583-6.943-.212-2.438 1.113-3.763 2.438-5.565 4.187-5.989 4.77-14.044 1.855-20.723-.318-.742-1.484-.053-1.113.689z"/><path d="M57.511 133.14c4.399-1.643 9.487-.901 13.091 2.12.636.53 1.59-.371.954-.954-3.975-3.339-9.54-4.346-14.416-2.491-.795.371-.424 1.643.371 1.325z"/><path d="M72.033 134.888c.371-1.166 1.802-1.431 2.915-1.643 1.643-.265 3.286-.318 4.876.106.848.212 1.166-1.06.371-1.272-2.014-.53-4.24-.424-6.254.053-1.431.318-2.703 1.007-3.18 2.438-.265.795 1.007 1.113 1.272.318z"/></g><path d="M81.891 127.045c.901 1.113.901 2.597.848 3.975l-.159 4.452-.159 4.187c-.053 1.272.265 3.339-.742 4.293-.318.265.159.742.477.477.848-.742.848-1.855.848-2.915l.212-6.042.159-5.459c0-1.272-.265-2.385-1.06-3.392-.212-.424-.689.053-.424.424zm-19.345 13.621c1.166 2.438.424 5.088.212 7.632-.212 2.438.636 5.3-.954 7.42-.265.318.318.689.583.318 1.643-2.226.795-5.141 1.06-7.738.265-2.703.901-5.406-.265-7.95-.265-.371-.848-.053-.636.318z" fill="#f8ebe5"/></svg>