<svg xmlns="http://www.w3.org/2000/svg" width="145" height="174" fill="none" xmlns:v="https://vecta.io/nano"><g fill-rule="evenodd" fill="#c8c7f9"><path d="M105.463 129.606c-6.499 5.086-14.317 7.61-22.476 8.791-7.834 1.134-15.346-.425-23.061-2.199-10.073-2.315-21.67-2.058-28.659-9.691-7.565-8.261-10.476-20.403-9.09-31.533 1.388-11.146 7.559-21.681 16.553-28.379C47.008 60.431 57.033 57.645 67 55c11.148-2.958 23.355-10.402 33.428-4.775C110.711 55.969 115.337 68.96 119.5 80c3.297 8.742 3.424 18.456 2.627 27.769-.801 9.36-9.277 16.057-16.664 21.837z"/><path opacity=".2" d="M70.039 145.789c-8.732-1.066-16.527-5.056-23.567-10.315-6.76-5.05-11.246-11.887-15.725-19.039-5.847-9.338-14.781-17.885-14.296-28.906.525-11.929 7.482-23.275 16.916-30.619 9.448-7.355 22.039-10.644 33.866-8.913 10.885 1.593 20.542 7.049 30.048 12.568 10.632 6.173 25.443 9.763 28.794 21.596 3.421 12.08-2.883 25.359-8.066 36.818-4.105 9.074-11.331 16.492-18.951 22.911-7.659 6.451-19.095 5.11-29.02 3.899z"/></g><path d="M49.521 2.279c.569-.285 1.537 2.334 1.537 2.334s-1.025-3.416-.626-3.7c.626-.455 1.708 3.473 1.708 3.473S51.058.059 51.855.002c.854-.114 1.423 4.27 1.423 4.27s-.285-4.156.398-4.099c.74.057.911 5.408.911 5.408s1.651-2.163 2.106-1.879c.797.512-2.562 5.237-2.562 5.237L51 9.508c.114.057-2.049-6.945-1.48-7.23zm73.665 32.563c-.455-.455-2.277 1.594-2.277 1.594s2.22-2.79 1.935-3.188c-.398-.626-2.903 2.619-2.903 2.619s2.619-3.586 1.879-3.985-2.904 3.473-2.904 3.473 1.822-3.757 1.139-3.985-2.846 4.725-2.846 4.725-.741-2.619-1.31-2.505c-.911.171.399 5.807.399 5.807l2.675 1.708c.057-.057 4.668-5.807 4.213-6.262z" fill="#d77062"/><path d="M119.144 40.251l-4.042-2.96c-.057.114-.114.171-.171.285-2.163 3.643-4.44 7.23-7.002 10.589-.683.911-1.252 1.879-1.992 2.733-.626.683-.626.683-1.196 0-1.366-1.651-2.505-3.473-3.643-5.294-1.253-2.049-2.676-4.042-4.441-5.693-2.505-2.391-5.522-3.985-8.995-4.327-1.936-.171-3.871-.114-5.864 0-.342 1.423-.626 2.846-1.651 4.042-1.196 1.366-2.96 1.651-4.497.683-1.366-.797-1.936-2.049-2.277-3.473a8.05 8.05 0 0 0-.228-1.139c-1.879-.114-3.814-.342-5.693-.285-.398 0-.74-.171-1.082-.342-1.879-1.082-3.814-1.936-5.807-2.676-2.733-.968-5.124-2.619-7.742-3.814-.398-.171-.455-.455-.341-.854l1.822-9.849c.626-3.302 1.537-6.49 2.049-9.792v-.228c-2.277-.171-4.554-.285-6.774-.626-.057.114-.114.171-.114.285-1.309 3.074-2.562 6.205-3.53 9.393-.911 2.846-1.879 5.693-2.903 8.482-.626 1.708-1.252 3.416-1.594 5.237-.228 1.195-.114 2.334.342 3.416.74 1.765 1.879 3.245 3.131 4.668 3.302 3.871 6.945 6.831 10.987 9.905.569.455 1.195.911 1.651 1.48 1.879 2.505 1.822 8.312 2.049 11.443.285 3.302-2.846 6.148-3.359 9.279-.285 1.992.171 4.042 1.196 5.75 1.082 1.822 2.846 3.928 4.668 5.01 2.903 1.765 6.034 2.79 9.45 3.131 1.879.171 3.814.285 5.693 0 3.188-.455 5.807-2.106 8.255-4.099.228-.171.456-.398.683-.626.398-.569.854-1.082 1.252-1.708 1.537-2.334 1.992-4.896 1.594-7.571-.569-3.985-.171-7.97.228-11.955.057-.626.341-1.082.968-1.309s.854.285 1.139.626c2.334 2.277 4.668 4.44 7.173 6.49 1.252 1.082 2.619 1.936 4.099 2.619 1.537.74 3.017.512 4.383-.398.911-.626 1.594-1.48 2.164-2.448 1.537-2.676 3.131-5.294 4.497-8.027 1.366-2.903 2.903-5.75 4.27-8.653 1.024-2.163 1.878-4.384 2.334-6.718-.399-.171-.797-.398-1.139-.683z" fill="#1f2241"/><path d="M61.988 81.637c2.903 1.765 6.034 2.79 9.45 3.131 1.879.171 3.814.285 5.693 0 3.188-.455 5.807-2.106 8.255-4.099.228-.171.455-.399.683-.626 1.082 2.049 2.334 4.042 2.903 6.319 1.366 5.522.398 10.475-3.131 14.916-2.79 3.529-5.864 6.717-9.45 9.507-.342.284-.569.626-.911.911-.285 0-.512.17-.74.341l-2.733 2.163c-2.903 2.107-5.75 4.27-8.881 6.035-1.139.626-1.139.683-.342 1.878 1.366 2.107 2.846 4.156 4.156 6.376 1.139 1.31 2.163 2.79 3.131 4.213 1.309 1.993 2.505 4.042 3.871 5.978.456.683.626 1.309.114 1.992-1.252 1.366-2.277 2.903-3.245 4.44-.512.399-.854 1.025-1.252 1.537-.285.399-.512.399-.854.114l-3.131-2.789c-.74-.626-1.423-1.31-2.22-1.879l-6.49-5.294-6.319-5.124c-1.423-1.138-2.676-2.448-4.27-3.415l-4.27-4.27c-1.025-.968-1.879-2.049-2.733-3.188-1.708-2.448-1.708-4.327.057-6.717 1.935-2.562 4.099-4.896 6.433-7.117a91.62 91.62 0 0 0 4.042-4.098c3.131-3.416 6.376-6.718 9.564-10.077.455-.455.626-.854.626-1.537 0-3.302.797-6.547 1.992-9.621z" fill="#e8a628"/><path d="M46.333 128.318c1.594.968 2.846 2.334 4.27 3.416l6.319 5.124 6.49 5.294c.057 1.366.512 2.676.797 3.985 1.082 4.383 2.106 8.767 3.017 13.15.171.854.114.854-.683 1.139-.455.171-.911.285-1.309.455l-5.522 1.708c-.512.171-1.025.399-1.537.569-.968.342-.968.342-1.309-.569l-2.106-5.294-4.554-10.987c-1.822-4.27-3.131-8.71-4.497-13.094-.456-1.708-.285-3.359.626-4.896zm20.665.171l-4.156-6.376c-.74-1.138-.797-1.195.342-1.878 3.131-1.765 5.977-3.928 8.881-6.035.968-.683 1.822-1.423 2.733-2.163.228-.171.398-.341.74-.341l-2.505 5.009-5.579 10.589c-.114.398-.398.74-.455 1.195z" fill="#e28a21"/><path d="M59.768 162.532l5.522-1.708.171 1.48c.171 1.196-.114 2.277-1.025 3.074-2.505 2.278-4.896 4.782-7.628 6.889-.341.284-.683.569-1.082.683-.74.228-1.252-.171-1.196-.968.057-1.025.569-1.878 1.139-2.619.399-.569.911-1.081 1.423-1.537 1.48-1.366 2.049-3.188 2.846-4.895.057-.171-.057-.285-.171-.399zm11.101-17.363c.968-1.537 1.993-3.074 3.245-4.44 1.594.968 2.163 2.334 1.936 4.156l-.512 3.928c-.171 1.252-.228 2.561-.228 3.814 0 .512-.057 1.024-.228 1.48-.285.797-1.025.968-1.651.398a2.62 2.62 0 0 1-.854-1.48c-.171-.74-.399-1.48-.455-2.277-.228-1.935-.626-3.814-1.252-5.579z" fill="#dd6a3e"/><path d="M82.141 23.627c-.854-.171-1.765.512-2.106 1.537-.057-.057-.114-.114-.228-.171-.455-.342-.797-.797-1.025-1.309-.114-.285-.171-.569-.171-.854 0-.342-.057-.683-.057-1.082-.455.171-.74.455-1.025.683-.114.114-.228-.228-.285-.114-1.195 1.195-2.334 1.366-4.213 1.48-.228 0-.455-.114-.683-.171-.171-.114-.285-.228-.455-.399-.114.569-.171 1.139-.171 1.708 0 1.48.455 2.846 1.139 3.928 0 0 0 .057.057.057.683.968 1.537 1.651 2.562 1.879.228.285.285.569.228 1.025 0 .228 0 .455-.057.683-.228 1.366-.683 2.562-2.22 2.903-.171.057-.171.228-.285.342.057.398.114.74.228 1.139.342 1.423.911 2.676 2.277 3.473 1.594.911 3.302.626 4.497-.683 1.025-1.139 1.309-2.619 1.651-4.042-1.879-1.252-2.96-2.96-3.074-5.18 0-.171-.057-.285-.057-.455.683-.569 1.309-1.423 1.651-2.391.228.285.569.512.911.569.968.171 1.992-.683 2.22-1.936.285-1.309-.342-2.448-1.309-2.619z" fill="#d77062"/><path d="M83.052 11.843c-1.082-.968-2.448-1.082-3.814-.455-1.366.683-2.049 1.765-2.049 3.245 0 .569.114 1.196.228 1.822-.797-.455-1.708-.797-2.619-.911-1.48-.228-3.074.171-4.213 1.082-1.139.968-1.765 2.562-1.366 4.042.455 1.594 1.935 2.505 3.416 2.96 2.22.683 4.156-.569 5.977-1.708 0 .341 0 .569.057.854.057.911.455 1.594 1.195 2.163.512.398.683.398 1.025-.057 0-.057.057-.114.057-.114l.398-.74c.171-.911.285-1.822.285-2.732 2.334-.228 3.53-1.822 3.814-3.587.285-2.391-.626-4.327-2.391-5.864z" fill="#212443"/><g fill="#d88f25"><path d="M80.718 83.858c3.131 5.465-.057 12.069-3.416 16.623-3.53 4.725-8.198 8.425-13.037 11.613-2.732 1.822-5.579 3.53-8.425 5.18-.398.228-.057.854.342.627 5.294-3.131 10.589-6.319 15.314-10.304 4.44-3.815 8.71-8.653 10.475-14.346.968-3.245 1.082-6.774-.626-9.735-.228-.398-.854-.057-.626.342z"/><path d="M54.189 116.136c5.864 8.653 12.24 17.021 19.014 24.991.285.342.797-.17.512-.512-6.774-7.913-13.037-16.224-18.9-24.878-.285-.341-.911.057-.626.399z"/></g><g fill="#f9efe6"><path d="M65.29 163.728c-2.733 3.814-6.547 6.546-10.304 9.222-.341.285 0 .854.342.626 3.871-2.789 7.742-5.636 10.589-9.507.285-.341-.341-.74-.626-.341z"/><path d="M56.694 168.054c.854.626 1.651 1.309 2.448 1.992.171.114.342.171.512 0 .114-.113.171-.398 0-.512l-2.448-1.992c-.171-.114-.342-.171-.512 0-.114.113-.171.398 0 .512zm.626-1.139l3.359 2.05a.37.37 0 1 0 .398-.626c-1.082-.74-2.22-1.423-3.359-2.05-.456-.227-.797.399-.399.626zm18.445-19.81a40.83 40.83 0 0 1-4.326 2.505c-.398.227-.057.797.342.626a40.65 40.65 0 0 0 4.326-2.505c.399-.285 0-.911-.342-.626zm.114 1.878l-4.383 2.448c-.398.228-.057.797.342.626l4.383-2.448c.398-.284.057-.911-.342-.626z"/><path d="M76.049 142.721l-.455 6.205-.342 3.018c-.114.967-.171 2.049-.74 2.96-.228.398.341.74.626.341.512-.797.626-1.764.797-2.732l.398-3.131.512-6.661c-.057-.455-.797-.455-.797 0z"/></g><path d="M80.888 21.749c2.924 0 5.294-2.727 5.294-6.091s-2.37-6.091-5.294-6.091-5.294 2.727-5.294 6.091 2.37 6.091 5.294 6.091z" fill="#212443"/><path d="M77.188 26.758c-.114.854-.854 1.423-1.708 1.423-.854-.057-1.48-.74-1.537-1.537l3.245.114z" fill="#fff"/></svg>