<svg xmlns="http://www.w3.org/2000/svg" width="155" height="169" fill="none" xmlns:v="https://vecta.io/nano"><style><![CDATA[.B{stroke-miterlimit:10}.C{stroke-linecap:round}.D{stroke-linejoin:round}.E{fill:#5433f6}.F{fill:#1d0e21}.G{fill:#ff6940}.H{fill:#2d1a14}.I{stroke-width:1.567}.J{stroke-width:.545}]]></style><g fill="#ffd600"><path d="M123.811 133.229c10.453-11.376 16.955-27.503 13.295-42.455-3.558-14.538-18.626-21.704-31.054-30.101-12.457-8.418-24.694-19.481-39.663-17.681-15.65 1.881-28.594 13.371-36.679 26.859-7.654 12.769-6.961 27.879-4.954 42.593 2.168 15.889 6.207 25.984 20.303 33.718 13.877 7.613 29.935-.07 45.246-4.231 13.296-3.613 24.197 1.43 33.506-8.701z"/><path opacity=".2" d="M82.811 153.788c15.435-.652 31.436-7.458 39.421-20.619 7.764-12.796 2.177-28.517-.673-43.243-2.857-14.761-3.687-31.237-15.544-40.549-12.396-9.736-28.985-15.132-44.24-11.312-14.441 3.616-25.563 13.586-34.547 25.409-9.703 12.769-13.746 28.336-9.247 43.772 4.429 15.196 21.217 21.118 34.985 29.002 11.957 6.847 16.099 18.121 29.845 17.54z"/></g><g fill="#914b29"><path d="M65.335 150.27c.382 2.531-.907 5.253-3.008 6.446-1.433.812-3.056.908-4.632 1.385-3.008.908-5.635 3.248-7.067 6.256h20.391v-14.326l-5.683.239z"/><path d="M57.742 158.101c1.528-.477 3.2-.573 4.632-1.385 1.194-.668 2.149-1.91 2.626-3.295l1.242 1.863c.43.573.907 1.146 1.48 1.528s1.289.525 1.958.43c.525-.096.955-.335 1.385-.621v7.736H50.675c1.433-3.009 4.059-5.348 7.068-6.256z"/></g><path d="M51.2 165.551h19.77a1.06 1.06 0 0 0 1.051-1.051v-.095a1.06 1.06 0 0 0-1.051-1.051H51.2a1.06 1.06 0 0 0-1.051 1.051v.095c-.048.573.43 1.051 1.051 1.051zm14.708-7.832c.191-.239.191-.621 0-.859l-3.104-3.343a.5.5 0 0 0-.764 0 .72.72 0 0 0 0 .86l3.104 3.342c.191.239.525.239.764 0zm-2.006 1.528c.191-.238.191-.62 0-.859l-3.104-3.343a.5.5 0 0 0-.764 0 .72.72 0 0 0 0 .86l3.104 3.342c.191.239.525.239.764 0z" fill="#4a1801"/><path d="M71.113 158.197s-4.966-1.672-3.009-9.981" stroke="#4a1801" class="B C D I"/><g fill="#914b29"><path d="M88.018 149.458c-.382 2.53.907 5.252 3.008 6.446 1.433.812 3.056.908 4.632 1.385 3.008.907 5.635 3.247 7.068 6.256H82.335v-14.326l5.683.239z"/><path d="M95.611 157.289c-1.528-.477-3.2-.573-4.632-1.385-1.194-.668-2.149-1.91-2.626-3.295l-1.242 1.863c-.43.573-.907 1.146-1.48 1.528s-1.289.525-1.958.43c-.525-.096-.955-.335-1.385-.621v7.736h20.391c-1.433-3.009-4.059-5.348-7.067-6.256z"/></g><path d="M102.153 164.739h-19.77a1.06 1.06 0 0 1-1.051-1.051v-.095a1.06 1.06 0 0 1 1.051-1.051h19.77a1.06 1.06 0 0 1 1.05 1.051v.095c.048.573-.477 1.051-1.05 1.051zm-14.708-7.832c-.191-.239-.191-.621 0-.859l3.104-3.343a.5.5 0 0 1 .764 0 .72.72 0 0 1 0 .86l-3.104 3.342c-.191.239-.525.239-.764 0zm2.006 1.529a.72.72 0 0 1 0-.86l3.104-3.343a.5.5 0 0 1 .764 0 .72.72 0 0 1 0 .86l-3.104 3.343c-.191.238-.525.238-.764 0z" fill="#4a1801"/><path d="M82.24 157.385s4.966-1.672 3.008-9.981" stroke="#4a1801" class="B C D I"/><g class="F"><path d="M81.571 91.294l-6.351-.334c-5.062-.287-8.978-4.632-8.691-9.694l1.003-17.955c.287-5.062 4.632-8.978 9.694-8.691l6.351.334c5.062.286 8.978 4.632 8.691 9.694l-1.003 17.955c-.239 5.062-4.632 8.93-9.694 8.691z"/><path d="M71.4 151.989c1.242-7.593 7.354-65.423 7.354-73.111L67.15 71.429c-1.576 9.598-1.767 71.869-1.767 80.417l6.017.144zm18.671-34.335c.621-8.978 1.719-37.057 1.815-45.27l-12.368 4.393c-.621 8.357 1.003 32.568 1.862 40.877h8.691z"/></g><path d="M82.765 90.148c-2.34 1.098-4.871 1.433-7.402.955-.334-.048-.191-.525.143-.478 2.435.43 4.775.143 7.02-.907.286-.143.525.287.239.43z" fill="#5037d6"/><path d="M79.709 91.819l2.149 60.886 6.972-.716 2.674-65.47-11.795 5.301z" class="F"/><path d="M83.051 22.147c-.191 1.098 0 4.584-.048 5.73-.048 1.671-.096 3.295 1.098 4.537-.716 1.003-1.815 1.815-3.056 2.149-1.194.287-2.531.191-3.629-.334l-.907-.477-1.051-.621c1.528-2.674 2.865-5.587 2.435-8.643l2.626-.621c.334-.048.668-.143 1.003-.095.573-.096 1.003-1.528 1.528-1.624z" class="G"/><path d="M77.894 26.732a9.59 9.59 0 0 0 0-2.34l2.626-.621c.334-.048.668-.143 1.003-.096h.048c-.907 1.337-2.197 2.34-3.677 3.056z" class="H"/><path d="M64.475 55.527l.334 4.775.334 3.199 1.098 5.11.525 1.91.573 2.435c.096.191.239.334.382.478.048.096.143.143.239.239.287.239.716.382 1.051.478l1.289.382c1.146.287 2.34.43 3.534.525l3.773.143h1.91l5.492-.239c.382 0 5.157-.573 6.781-.764.191 0 .334-.048.43-.048h.048.096c.096-1.671.382-3.629.668-5.683l.86-5.014.239-1.337 1.767-9.264.525-2.913c.048-.143.048-.286.096-.477v-.048c.573-3.343 1.815-7.545 1.146-10.888-.478-2.388-2.913-3.773-5.062-4.728 0 0-.048 0-.048-.048l-.716-.287c-1.433-.621-3.008-.907-4.632-1.05-.334-.048-.621-.048-.955-.048h-.048c-.716-.048-1.433-.048-2.149-.048h-.764c-2.579.096-5.157.382-7.688.525-.43.048-.812.048-1.242.096-.334 0-.621.048-.907.048h-.239-.096-.287-.478c-.764.048-1.48.048-2.149.191-.764.334-1.576.669-2.292 1.098-.478.287-.955.621-1.289 1.098-.382.525-.669 1.146-.86 1.767-.43 1.337-.669 2.722-.812 4.107-.191 1.528-.382 3.008-.478 4.536-.239 3.247-.191 6.495 0 9.742z" fill="#f4d0b8"/><path d="M96.423 51.324l.143-1.815c.048.096.096.239.191.334-.143.43-.239.955-.334 1.48z" fill="#5a525d"/><g class="E"><path d="M61.467 39.529l-9.216 22.635 3.2-3.056-14.947 7.736c-1.528.812-2.149 2.674-1.337 4.202.669 1.289 2.053 1.91 3.391 1.624l16.523-3.391c1.385-.286 2.435-1.242 2.961-2.435l.239-.621 9.216-22.635c1.146-2.77-.191-5.922-2.961-7.068-2.77-1.098-5.969.191-7.067 3.008z"/><path d="M74.79 79.26c1.671 1.385 14.087-.048 17.955.86l.143-2.244c.43-7.402 1.242-14.756 2.817-21.967.334-1.958.669-3.916 1.098-5.874-1.385-1.576-2.531-3.343-3.152-5.348-.525-1.862-.573-3.916-.382-5.826.143-1.385.382-2.913 1.194-4.107-.621-.382-1.242-.669-1.862-.955 0 0-.048 0-.048-.048l-.716-.287c-1.433-.621-3.008-.907-4.632-1.05-.334-.048-.621-.048-.955-.048h-.191v.048l-2.006-.048L76.7 52.661l-1.146-19.722h-1.91c-.86-.096-1.624-.096-2.34 0h-.239v.048c-5.587.764-7.306 5.921-7.306 5.921l-.668 40.352h11.7z"/></g><path d="M81.667 90.291l2.674 62.08m-7.832-61.125l-6.59 60.695" stroke="#5037d6" stroke-width=".884" class="B C D"/><path d="M82.335 37.476c.096-.287.096-7.402.096-7.402l3.916-.239c.907-.048 1.719.621 1.815 1.576l.239 2.053-6.065 4.011zm-5.73-7.497l-.859 8.5-3.438-5.444c.048 0-.239-4.489 4.298-3.056z" class="E"/><g class="G"><path d="M35.012 63.502c-.334.621 2.722 2.388 2.722 2.388S30.953 67.035 31 67.943c0 .048 0 .048.048.096l.669.239c1.433.143 4.584-.525 4.584-.525l-2.244.716c.812.143 1.624.43 2.34.812.143-.048.239-.096.239-.096s-.096.048-.239.096c1.098.573 2.101 1.289 3.104 2.053l3.868-1.671-1.289-3.868c.048.048-6.542-3.343-7.067-2.292z"/><path d="M35.441 70.187c-.239.478 0 1.05.382 1.337.382.334.907.43 1.433.43 1.146.048 2.292-.334 3.152-1.05.621-.478 1.146-1.242.907-1.958-.191-.621-.812-1.003-1.385-1.242-1.433-.621-4.298-1.433-5.683-.382-1.194 1.003-.43 3.772 1.194 2.865zm50.953 16.332c.287.669 3.582-.43 3.582-.43s-3.677 5.826-2.961 6.399c.048 0 .048.048.096.048l.621-.334c1.051-.955 2.674-3.773 2.674-3.773l-.955 2.149c.669-.525 1.385-.907 2.197-1.194.048-.143.096-.239.096-.239s-.048.096-.096.239c1.146-.43 2.388-.716 3.582-.907l1.337-4.011-3.725-1.624c.048-.048-6.876 2.531-6.447 3.677z"/><path d="M91.647 90.674c.191.478.764.716 1.242.621s.955-.382 1.289-.764c.764-.812 1.289-1.91 1.337-3.056.048-.764-.143-1.671-.812-2.006-.573-.287-1.289-.096-1.862.191-1.385.669-3.916 2.244-4.059 4.011-.143 1.48 2.435 2.77 2.865 1.003z"/></g><path d="M89.737 41.965l8.834 26.265.43-4.871-6.685 16.905c-.669 1.719.191 3.82 1.958 4.632 1.48.669 3.056.287 3.963-.86l9.551-18.051c.907-1.194 1.146-2.722.668-4.154l-.238-.716-7.211-22.253c-1.099-3.2-4.489-5.11-7.545-4.25s-4.823 4.107-3.725 7.354z" class="E"/><path d="M87.159 35.422l-3.391 3.008s.43-6.876-.716-7.02m-7.211-.094s-2.722-.143-1.385 6.399l-2.149-3.152m19.245 13.514l3.534 9.885-4.155-5.683m-26.456-6.494l-1.003 16.093-1.146-12.559" stroke="#472a1c" class="B C D J"/><g class="G"><path d="M76.08 22.386v.096.048.048.096.048c0 .048 0 .096.048.143 0 .048 0 .096.048.143v.048.048c0 .048.048.096.048.143.048.096.048.191.096.287 0 .048 0 .048.048.096.096.239.239.43.334.621.048.048.048.096.096.143l.048.048.095.096.239.239c.048.048.096.048.096.096.143.143.334.239.525.334.143.096.287.143.43.191.048 0 .048 0 .096.048h.048.048.048c.048 0 .096 0 .096.048.239.048.477.096.716.096h.143c.621-.048 1.146-.239 1.624-.525.907-.573 1.48-1.624 1.528-2.77v-.812-2.34-.716-1.003-.143-.095-.048-.048-.048-.048-.048-.048-.048-.048c0-.048 0-.096-.048-.143v-.096-.048-.048-.048-.048-.048c0-.048-.048-.096-.048-.143v-.048c0-.048-.048-.048-.048-.095v-.048c0-.048-.048-.095-.048-.095-.573-1.051-1.624-1.767-2.865-1.767-1.385 0-2.579.86-3.104 2.101-.143.382-.239.764-.239 1.194l-.048 4.871c-.048 0-.048.048-.048.096z"/><path d="M85.535 21.192a1.66 1.66 0 0 1-1.671 1.671c-.907 0-1.671-.764-1.671-1.719a1.66 1.66 0 0 1 1.671-1.671c.955.048 1.671.812 1.671 1.719z"/></g><g class="H"><path d="M76.605 15.318c.43-.621 1.051-1.051 1.719-1.289.621-.239 1.289-.334 1.91-.191s1.242.477 1.624 1.003c-.048-.095 0-.143.048-.143.239.287.43.573.669.907 0 .048.048.048.048.095l.143.764v3.486l.048.048c-.287.43-.573.812-.812 1.289v-2.292c-.287-.382-.525-.86-.621-1.337v-.048c-.812.286-1.719-.096-2.483-.43-.764.477-1.958.764-2.77.287-.096-.812.048-1.528.477-2.149z"/><path d="M81.571 17.324c.573 0 1.003-.43 1.003-1.003v-.716c0-.573-.43-1.003-1.003-1.003s-1.003.43-1.003 1.003v.716a1.01 1.01 0 0 0 1.003 1.003z"/><path d="M81.237 14.745c.287-.287.764-.287 1.098-.048a1.45 1.45 0 0 1 .573 1.003c.048.382 0 .812-.048 1.194l-.286 2.388c-.096-1.671-.573-3.104-1.337-4.537z"/></g><g stroke="#472a1c" class="B C D"><g stroke-width=".258"><path d="M81.762 14.745c-.143-.668-.669-1.242-1.289-1.48"/><path d="M82.861 14.22c-.573-.143-1.194.143-1.433.668"/></g><path d="M81.953 23.818c-.334.668-.907 1.241-1.624 1.48" class="J"/></g><path d="M79.852 21.861c0 .621-.525 1.146-1.146 1.146s-1.146-.525-1.146-1.146h2.292z" fill="#fff8f3"/><path d="M90.979 82.555c-.334 1.767-.716 7.354.095 8.93l-.812 7.975c-3.2-2.388-5.205-6.399-5.157-10.363.048-4.011 2.101-7.927 5.301-10.219l.573 3.677z" class="F"/><path d="M77.321 92.488c8.017 0 14.517-7.269 14.517-16.236s-6.5-16.236-14.517-16.236-14.517 7.269-14.517 16.236 6.499 16.236 14.517 16.236z" class="E"/><path d="M82.574 65.842c.096 4.584 2.053 8.452 5.348 11.604v4.966H66.386v-6.065c3.008-2.531 4.441-6.399 3.868-10.315l12.32-.191z" stroke="#f4d0b8" stroke-width=".442" class="B"/><path d="M82.717 17.658c1.003-.048 1.576-1.242 1.337-2.197s-1.146-1.624-2.053-1.958-1.91-.43-2.865-.716c-2.674-.716-5.014-2.722-6.112-5.253-.573-1.385-.86-2.865-1.433-4.25S69.967.61 68.487.324c-1.194-.239-2.435.239-3.295 1.098-.859.812-1.385 1.958-1.719 3.152-1.098 4.155.573 8.93 4.059 11.461s8.5 2.722 12.129.382c.716.621 1.624.907 2.483.573.143.191.525.382.573.669z" class="H"/></svg>