<svg xmlns="http://www.w3.org/2000/svg" width="155" height="155" fill="none" xmlns:v="https://vecta.io/nano"><style><![CDATA[.B{fill:#ff6940}.C{fill:#ffd600}.D{fill:#2d1a14}.E{stroke-miterlimit:10}.F{stroke-linejoin:round}.G{fill:#1d0e21}.H{stroke-linecap:round}]]></style><g fill-rule="evenodd" fill="#8871ff"><path d="M105.463 119.357c-6.499 5.085-14.318 7.609-22.476 8.791-7.834 1.134-15.346-.425-23.061-2.199-10.073-2.316-21.67-2.059-28.659-9.691-7.565-8.262-10.476-20.403-9.09-31.533 1.389-11.146 7.559-21.681 16.553-28.379C47.008 50.182 54.033 30.143 64 27.499c11.148-2.958 26.355 6.85 36.427 12.477 10.283 5.744 17.537 20.483 21.7 31.523 3.297 8.742.797 16.708 0 26.021-.801 9.361-9.277 16.057-16.664 21.838z"/><path opacity=".2" d="M71.179 134.045c-8.774-1.076-16.61-5.091-23.688-10.381-6.796-5.079-11.309-11.952-15.814-19.142-5.882-9.387-14.865-17.981-14.386-29.055.519-11.986 7.502-23.382 16.977-30.754 9.488-7.384 22.137-10.68 34.023-8.933 10.939 1.608 31.429-8.233 40.984-2.681 10.688 6.21 14.79 25.158 18.166 37.051 3.446 12.141-2.212 28.793-7.412 40.304-4.118 9.115-12.041 13.25-19.693 19.694-7.692 6.477-19.184 5.121-29.158 3.897z"/></g><g class="B"><path d="M56.571 25.816L47.603 47.33l3.113-2.927L30.69 56.624c-1.487.743-.79.325 0 1.812.651 1.208 1.998 1.812 3.299 1.533l20.259-5.855a3.99 3.99 0 0 0 2.881-2.323l.232-.604 8.968-21.514c1.115-2.649-.186-5.622-2.881-6.738-2.695-1.022-5.762.232-6.877 2.881z"/><path d="M25.903 53.974c-.325.604 2.649 2.323 2.649 2.323S21.954 57.413 22 58.296c0 .047 0 .047.047.093l.65.232c1.394.139 4.461-.511 4.461-.511l-2.184.697c.79.139 1.58.418 2.277.79.139-.046.232-.093.232-.093s-.093.046-.232.093c1.069.558 2.044 1.255 3.02 1.998l3.764-1.626-1.255-3.764c.046.047-6.366-3.253-6.877-2.23z"/><path d="M26.322 60.479c-.232.465 0 1.022.372 1.301.372.325.883.418 1.394.418a4.54 4.54 0 0 0 3.067-1.022c.604-.465 1.115-1.208.883-1.905-.186-.604-.79-.976-1.348-1.208-1.394-.604-4.182-1.394-5.529-.372-1.162.929-.418 3.624 1.162 2.788zm34.06 74.905c.372 2.462-.883 5.111-2.927 6.273-1.394.79-2.974.883-4.507 1.347-2.927.883-5.483 3.16-6.877 6.087h19.841v-13.94l-5.53.233z"/></g><path d="M52.993 143.004c1.487-.464 3.113-.557 4.507-1.347 1.162-.651 2.091-1.859 2.556-3.206l1.208 1.812c.418.557.883 1.115 1.44 1.487s1.255.511 1.905.418c.511-.093.929-.325 1.347-.604v7.528H46.116c1.394-2.928 3.95-5.205 6.877-6.088z" fill="#914b29"/><path d="M46.581 150.253h19.237a1.03 1.03 0 0 0 1.022-1.022v-.093a1.03 1.03 0 0 0-1.022-1.022H46.581a1.03 1.03 0 0 0-1.022 1.022v.093a1.03 1.03 0 0 0 1.022 1.022zm14.312-7.621a.7.7 0 0 0 0-.836l-3.02-3.253c-.186-.232-.558-.232-.743 0a.7.7 0 0 0 0 .837l3.02 3.252c.232.233.558.233.743 0zm-1.952 1.487a.7.7 0 0 0 0-.836l-3.02-3.253c-.186-.232-.558-.232-.743 0a.7.7 0 0 0 0 .837l3.02 3.252c.186.233.558.233.743 0z" fill="#4a1801"/><path d="M82.407 134.595c-.372 2.462.883 5.111 2.927 6.273 1.394.79 2.974.882 4.507 1.347 2.927.883 5.483 3.16 6.877 6.087H76.877v-13.94l5.529.233z" class="B"/><path d="M89.841 142.215c-1.487-.464-3.113-.557-4.507-1.347-1.162-.651-2.091-1.859-2.556-3.206l-1.208 1.812c-.418.557-.883 1.115-1.44 1.487a2.77 2.77 0 0 1-1.905.418c-.511-.093-.929-.325-1.347-.604v7.527h19.841c-1.394-2.927-3.95-5.204-6.877-6.087z" fill="#914b29"/><path d="M96.207 149.464H76.97a1.03 1.03 0 0 1-1.022-1.022v-.093a1.03 1.03 0 0 1 1.022-1.022h19.237a1.03 1.03 0 0 1 1.022 1.022v.093c0 .557-.465 1.022-1.022 1.022zm-14.311-7.621a.7.7 0 0 1 0-.836l3.02-3.253c.186-.232.558-.232.744 0a.7.7 0 0 1 0 .837l-3.02 3.252c-.186.233-.558.233-.743 0zm1.951 1.488a.7.7 0 0 1 0-.837l3.02-3.252c.186-.233.558-.233.743 0a.7.7 0 0 1 0 .836l-3.02 3.253c-.186.232-.558.232-.743 0z" fill="#4a1801"/><g class="G"><path d="M76.18 77.998L70 77.672c-4.925-.279-8.736-4.507-8.457-9.433l.976-17.471c.279-4.925 4.507-8.736 9.433-8.457l6.18.325c4.925.279 8.736 4.507 8.457 9.433l-.976 17.471c-.279 4.926-4.507 8.689-9.433 8.457z"/><path d="M66.283 137.057c1.208-7.388 7.156-63.659 7.156-71.14l-11.291-7.249c-1.533 9.34-1.719 69.932-1.719 78.25l5.855.139zm18.168-33.41c.604-8.735 1.673-36.058 1.766-44.05l-12.035 4.275c-.604 8.132.976 31.69 1.812 39.775h8.457z"/></g><path d="M77.342 76.883a11.67 11.67 0 0 1-7.202.929c-.325-.046-.186-.511.139-.465 2.37.418 4.647.139 6.831-.883.279-.139.511.279.232.418z" class="C"/><path d="M74.368 78.509l2.091 59.245 6.784-.697 2.556-63.706-11.431 5.158z" class="G"/><path d="M77.574 10.715c-.186 1.069 0 4.461-.046 5.576-.046 1.626-.093 3.206 1.069 4.414-.697.976-1.766 1.766-2.974 2.091-1.162.279-2.463.186-3.531-.325l-.883-.465-1.022-.604c1.487-2.602 2.788-5.437 2.37-8.41l2.556-.604c.325-.046.65-.139.976-.093.604-.093.976-1.487 1.487-1.58z" class="B"/><path d="M72.602 15.176c.093-.744.093-1.487 0-2.277l2.556-.604c.325-.046.651-.139.976-.093h.046c-.883 1.301-2.137 2.277-3.578 2.974z" class="D"/><path d="M59.499 43.195l.325 4.647.325 3.113 1.069 4.972.511 1.859.558 2.37c.093.186.232.325.372.465.047.093.139.139.232.232.279.232.697.372 1.022.465l1.255.372c1.115.279 2.277.418 3.439.511l3.671.139h1.859l5.344-.232c.372 0 5.018-.558 6.598-.744.186 0 .325-.046.418-.046h.046.093c.093-1.626.372-3.532.651-5.53l.836-4.879.232-1.301 1.719-9.014.511-2.834c.046-.139.046-.279.093-.465v-.046c.558-3.253 1.766-7.342 1.115-10.594-.465-2.323-2.835-3.671-4.925-4.6 0 0-.047 0-.047-.047l-.697-.279c-1.394-.604-2.927-.883-4.507-1.022-.325-.046-.604-.046-.929-.046h-.046c-.697-.046-1.394-.046-2.091-.046h-.743c-2.509.093-5.018.372-7.481.511-.418.046-.79.046-1.208.093-.325 0-.604.046-.883.046h-.232-.093-.279-.465c-.743.047-1.44.047-2.091.186-.744.325-1.533.651-2.23 1.069-.465.279-.929.604-1.255 1.069a5.9 5.9 0 0 0-.836 1.719c-.418 1.301-.651 2.649-.79 3.996-.186 1.487-.372 2.927-.465 4.414-.186 3.16-.139 6.319 0 9.479z" class="C"/><path d="M76.227 77.022l2.649 60.406m-7.621-59.477l-6.412 59.059" stroke="#ffd600" stroke-width=".884" class="E F H"/><path d="M70.837 10.947v.093.046.046.093.046c0 .046 0 .093.046.139 0 .046 0 .093.047.139v.046.046c0 .046.046.093.046.139.047.093.047.186.093.279 0 .046 0 .046.047.093.093.232.232.418.325.604.046.046.046.093.093.139l.046.046.093.093.232.232c.047.046.093.046.093.093.139.139.325.232.511.325.139.093.279.139.418.186.047 0 .047 0 .093.046h.047.046.046c.046 0 .093 0 .093.046.232.046.465.093.697.093h.139a3.53 3.53 0 0 0 1.58-.511c.883-.558 1.441-1.58 1.487-2.695v-.79-2.277-.697-.976-.139-.093-.046-.046-.046-.046-.046-.046-.046-.046c0-.046 0-.093-.047-.139v-.093-.046-.046-.046-.046-.046c0-.046-.046-.093-.046-.139V4.86c0-.046-.046-.046-.046-.093V4.72c0-.046-.046-.093-.046-.093-.558-1.022-1.58-1.719-2.788-1.719-1.348 0-2.509.836-3.02 2.045-.139.372-.232.743-.232 1.162l-.047 4.74c-.046 0-.046.046-.046.093z" class="B"/><path d="M72.835 9.832c1.069-.093 2.044.372 2.974.836a1.63 1.63 0 0 0 .651.279 2.17 2.17 0 0 0 .79.139c-.093 1.022-.651 1.905-1.44 2.463-.465.325-1.022.511-1.58.511h-.139c-.232 0-.465-.046-.697-.093-.047 0-.093 0-.093-.046h-.046-.046-.046c-.046 0-.046 0-.093-.046-.139-.046-.279-.139-.418-.186-.186-.093-.325-.232-.511-.325-.047-.046-.093-.046-.093-.093l-.232-.232-.093-.093-.046-.046c-.046-.046-.046-.093-.093-.139-.139-.186-.232-.372-.325-.604 0-.046 0-.046-.046-.093-.046-.093-.093-.186-.093-.279 0-.046-.046-.093-.046-.139v-.046-.046c0-.046 0-.093-.046-.139 0-.046 0-.093-.047-.139v-.046-.093-.046-.046-.093-.186-.046c.418-.418 1.069-.836 1.859-.883z" class="D"/><path d="M80.037 9.785c0 .929-.743 1.626-1.626 1.626s-1.626-.743-1.626-1.673.743-1.626 1.626-1.626c.929.046 1.626.79 1.626 1.673z" class="B"/><g class="D"><path d="M71.348 4.07c.418-.604 1.022-1.022 1.673-1.255.604-.232 1.255-.325 1.859-.186s1.208.465 1.58.976c-.047-.093 0-.139.046-.139.232.279.418.558.651.883 0 .046.046.046.046.093l.139.743v3.392l.046.046c-.279.418-.558.79-.79 1.255v-2.23c-.279-.372-.511-.836-.604-1.301V6.3c-.79.279-1.673-.093-2.416-.418-.744.465-1.905.743-2.695.279-.139-.79.047-1.487.465-2.091z"/><path d="M76.18 6.022a.95.95 0 0 0 .976-.976v-.697a.95.95 0 1 0-1.952 0v.697c0 .511.418.976.976.976z"/><path d="M75.855 3.513c.279-.279.743-.279 1.069-.046s.511.604.558.976 0 .79-.046 1.162l-.279 2.323c-.093-1.626-.604-3.02-1.301-4.414z"/></g><g stroke="#472a1c" stroke-width=".258" class="E F H"><path d="M76.366 3.512c-.139-.651-.65-1.208-1.254-1.44"/><path d="M77.435 3.001c-.558-.139-1.162.139-1.394.651"/></g><path d="M74.461 10.436a1.13 1.13 0 0 1-1.115 1.115 1.13 1.13 0 0 1-1.115-1.115h2.23z" fill="#fff8f3"/><path d="M85.334 69.494c-.325 1.719-.697 7.156.093 8.689l-.79 7.76c-3.113-2.323-5.065-6.227-5.018-10.083s2.044-7.713 5.158-9.944l.558 3.578z" class="G"/><path d="M76.598 137.986h6.738c.929 0 1.673-.743 1.673-1.673s-.743-1.672-1.673-1.672h-6.738c-.929 0-1.673.743-1.673 1.672 0 .883.743 1.673 1.673 1.673zm-16.681-.465h6.738c.929 0 1.673-.743 1.673-1.672s-.743-1.673-1.673-1.673h-6.738c-.929 0-1.673.743-1.673 1.673s.743 1.672 1.673 1.672z" class="C"/><g class="B"><path d="M91.979 61.874L74.833 47.005c-1.998-1.394-3.02-1.58-1.673-3.578 1.394-1.998 1.487-2.044 3.439-.651l11.477 5.669-.79-3.95-1.905-10.083-.604-3.392c-.325-1.719-.604-3.531 1.022-5.158 1.719-1.719 4.507-1.719 6.227 0a4.28 4.28 0 0 1 1.254 2.834c.325 2.137 3.485 18.587 5.483 28.716.325 1.766-.418 3.531-1.905 4.507a4.55 4.55 0 0 1-2.416.697c-.836.047-1.719-.232-2.463-.743zm1.347-32.387c0-.186.046-.325.046-.465-.046.139-.046.279-.046.465z"/><path d="M64.656 42.358c0 .743.697 1.58 1.115 2.045.743.883 1.766 1.533 2.881 1.766 1.905.418 3.903-.093 5.622-1.022.743-.418 1.069-1.626 1.348-2.416-.186-.744-.79-1.208-1.487-1.533s-1.487-.372-2.23-.465l-1.255-.093c-.465-.047-.743.465-.465.836.279.325.604.558 1.069.604.186.046.418 0 .604.093s.372.232.372.465c0 .186-.139.325-.279.465a2.37 2.37 0 0 1-1.44.511c-1.58 0-2.277-1.348-3.392-2.184-.186-.139-.465-.279-.697-.279-.279.047-.511.279-.418.511-.046-.047-.046.093 0 .046l-.604-.093c-.325 0-.604.047-.697.372 0 .093-.046.232-.046.372z"/></g><path d="M97.183 34.365c-3.067 3.903-8.085 6.133-13.011 5.855-1.626-2.742-2.602-6.319-2.881-9.526-.186-1.952-.046-4.043 1.115-5.622 1.394-1.905 4.089-2.556 6.412-1.952 2.277.604 4.182 2.323 5.483 4.275 1.255 2.045 2.044 4.74 2.881 6.97zM66.515 21.774c-3.206-.976-6.877-.325-9.526 1.719-3.346 2.556-4.879 6.784-6.273 10.78 3.717 2.416 7.806 3.067 12.221 2.602l3.578-15.102z" class="C"/><path d="M74.368 9.506a1.441 1.441 0 1 0 0-2.881 1.441 1.441 0 1 0 0 2.881zm-4.414-1.44a1.45 1.45 0 0 0 1.441 1.44 1.45 1.45 0 0 0 1.44-1.44 1.45 1.45 0 0 0-1.44-1.44c-.79-.046-1.44.651-1.44 1.44z" stroke="#ff9e00" stroke-width=".485" class="E F"/><g class="D"><path d="M77.435 8.577c.511-1.162.836-2.463.976-3.717.093-.651.093-1.394-.279-1.952s-1.208-.836-1.719-.418c-.186-1.022-1.347-1.533-2.37-1.487s-1.952.558-2.834 1.069-1.812 1.069-2.834 1.162c-1.301.139-2.602-.558-3.253-1.673-.418 1.115-.139 2.695.743 3.531s2.277 1.022 3.392.511c.047.511.79 1.069 1.301 1.069s.976-.279 1.348-.651c.325-.372.558-.883.743-1.348 1.069.651 2.045.79 3.206.279-.65.465.139 1.859.697 2.463.186.186-.093 2.23.046 2.463.186.186.929-1.533.836-1.301z"/><path d="M76.831 7.926a3.48 3.48 0 0 0-.976 3.717c.511-.139.929-.186 1.348-.511-.046-1.255 0-2.649.093-3.903"/></g><path d="M91.979 24.655c-2.509 4.414-7.853 7.063-12.918 6.366s-9.479-4.693-10.687-9.665m-8.689 25.091c2.881.186 5.065 2.649 6.784 5.018 1.673 2.37 3.485 4.972 6.227 5.855 1.301.418 2.695.372 4.043.418s2.742.232 3.903.929c1.162.743 1.952 2.137 1.533 3.438M64.982 21.216c-.558 2.927-2.37 6.226-4.693 8.132S54.48 32.647 51.46 32.6m38.567 6.691c-1.766-1.115-3.299-2.509-5.204-3.299s-4.368-.836-5.808.697c-.836.883-1.208 2.184-1.208 3.392s.325 2.416.65 3.624" stroke="#debb06" stroke-width=".442" class="E F H"/></svg>