<svg xmlns="http://www.w3.org/2000/svg" width="120" height="161" fill="none" xmlns:v="https://vecta.io/nano"><g fill-rule="evenodd"><path d="M88.002 123.606c-6.499 5.085-14.317 7.61-22.476 8.791-7.834 1.134-15.346-.425-23.061-2.199-10.073-2.315-21.67-2.058-28.659-9.691-7.565-8.261-10.476-20.403-9.09-31.533 1.389-11.146 7.559-21.681 16.553-28.379 8.277-6.164 18.263-9.949 28.23-12.594 11.148-2.958 23.394-9.403 33.467-3.777C93.249 49.969 97.837 64.961 102 76.001c3.297 8.742 3.463 16.455 2.666 25.768-.801 9.36-9.277 16.056-16.664 21.837z" fill="#ff9775"/><path opacity=".5" d="M24.68 110.243c-3.791-7.33-18.357-13.911-18.004-22.147.339-7.909 8.314-21.947 11.489-29.198 4.145-9.469 14.531-15.535 23.328-20.986 9.522-5.9 21.993-6.508 32.672-3.08 10.695 3.433 19.902 11.451 24.814 21.532 4.521 9.278-.366 19.889.383 30.174.838 11.504 11.653 24.635 4.254 33.489-7.552 9.038-22.815.587-34.436 2.63-9.202 1.617-17.132 10.526-26.135 8.014-9.049-2.524-14.056-12.096-18.366-20.427z" fill="#ff9677"/></g><path d="M75.885 135.234c-2.418.134-5.821.537-8.104 1.119l3.313 13.12 5.821-.538c.179-.582.045-1.119 0-1.701-.224-1.433-1.119-10.523-1.03-12zm-20.373 13.253c-2.105.269-4.164.179-6.269-.134-.045-1.881-1.03-6.089-1.254-7.925 2.194.045 4.746-3.94 6.94-4.03.358 1.97.716 10.03.582 12.089z" fill="#f3725f"/><path d="M77.049 96.055c-.269-7.522-.716-15-1.478-22.522-.537.09-1.119.134-1.657.314-1.343.448-2.552.09-3.761-.448-2.104-.985-3.761-2.552-5.149-4.388a72.46 72.46 0 0 1-2.642-3.806c-.358-.537-.716-.806-1.388-.716-1.478.179-3 .269-4.477.358-2.508.134-4.97-.09-7.433-.045-.448 0-.851-.224-1.298-.358-1.119-.313-1.254-.269-1.97.582-1.388 1.612-2.328 3.493-3.09 5.507-2.821 6.671-1.612 15-1.298 22.03.358 8.06.985 16.075 1.836 24.09.537 4.97 1.164 9.94 1.836 14.91.313 2.015.224 8.373 1.97 10.522a20.22 20.22 0 0 0 2.373-.537c3.179-.94 6.224-2.239 9.403-3.179l.224-42.358c0-.448-.134-.94.224-1.433.358.179.358.448.448.716l1.433 7.164c2.284 12.045 3.806 24.492 5.06 36.582 3.627.85 7.343 1.029 11.104.985l-.269-43.97zM54.527 17.653c-.806.94-1.836 1.119-3 .806l-2.463-.761c-1.881-.672-3.582-.358-5.149.94-1.478 1.209-3.134 1.97-5.104 2.06-1.03.045-2.015.179-3.045 0-4.209-.851-5.955-5.418-4.881-8.463.672-1.791 1.97-2.731 3.851-2.955.895-.09 1.791-.09 2.642.224l3.448 1.209c.313.09.627.224.896.358 2.149.716 3.94-.403 4.298-2.642.179-1.343.403-2.642.806-3.94.537-1.701 1.567-2.91 3.224-3.627a2.09 2.09 0 0 0 .448-.224c2.373-1.119 4.478-.761 6.403 1.03 1.343 1.254 2.508 2.552 2.866 4.433.134.716.179 1.433.09 2.194-.672-.09-1.03.269-1.298.851-.358.716-.627.716-1.164.179-.806-.761-1.433-1.657-2.06-2.552-.179-.269-.313-.672-.895-.627-.493 1.97-1.746 3.403-3.313 4.612-.224.179-.403.403-.627.582-.627.403-.672.985-.537 1.612.045.269.179.537.269.806.672 1.657 2.015 2.597 3.627 3.224.313.134.672.179.672.672z" fill="#37313c"/><path d="M75.84 59.743c-1.478.582-3 1.03-4.612.492-1.298-.448-2.239-1.343-3.09-2.284-3.448-3.761-5.866-8.194-7.567-12.985-.179-.582-.448-.761-.985-.895-.627-.134-1.254-.313-1.88-.448-1.075-.224-1.97-.761-2.642-1.612-.269-.313-.582-.403-.94-.492-1.075-.269-1.567-.806-1.567-1.478.045-.627.672-1.119 1.746-1.209s2.194-.224 3.358-.134c-.179-.627-.716-.672-1.075-.94-.448-.314-.94-.537-1.164-1.03-.045-.09-.045-.269 0-.358.09-.179.269-.134.403-.045 2.687 1.209 5.149 2.687 7.254 4.791 1.657 1.657 3.09 3.582 4.925 5.06.896.761 1.881 1.433 2.687 2.328.224.269.537.313.851.448 1.209.403 2.418.94 3.672 1.299 1.522.448 2.239 1.567 2.463 3 .224 1.478.134 2.91-.179 4.343-.045.224-.09.493-.179.716-.358.537-.896 1.03-1.478 1.433z" fill="#f3725f"/><path d="M76.87 148.98c.045.179.09.403.09.582-.224 1.567.492 2.776 1.343 3.896.895 1.164 1.701 2.373 2.239 3.761a4.53 4.53 0 0 1 .313 2.015c-.045.716-.313 1.074-1.03 1.119-2.06.179-4.03-.224-5.866-1.254-.537-.313-.896-.85-1.119-1.433-.179-.447-.448-.806-.851-.985-1.03-.537-1.209-1.432-1.03-2.373.313-1.612.269-3.224.09-4.835l5.821-.493z" fill="#37313c"/><path d="M81.303 44.25l-.313-8.418c-.09-2.328-.403-4.612-1.075-6.851-.896-3-2.597-5.418-5.507-6.806-1.746-.851-3.627-1.433-5.507-2.015-1.209-.358-2.418-.627-3.716-.716-.716 1.343-1.925 2.149-3.179 2.91-1.97 1.209-4.075 2.06-6.403 2.104s-4.612-.358-6.582-1.746l-1.119-.806c-.224.134-.492.269-.851.403-4.612 2.239-8.015 5.597-9.537 10.612.448.045.895.179 1.254.403.985.582 1.254 1.298.806 2.373s-.492 2.104-.179 3.224c.09.313.134.672.045.94-.537 1.433-.09 2.821.179 4.209.269 1.522.896 2.955 1.388 4.388.537 1.478.94 2.955 1.119 4.478.358 2.821-1.657 4.925-4.478 4.701-.09.672 0 1.388-.179 2.06-.448 2.06-.627 4.164-.627 6.268 0 2.06.627 3.895 2.015 5.463a138.49 138.49 0 0 1 2.463 2.821l.403-1.925c.269-.627.537-1.254.761-1.925.761-1.97 1.702-3.851 3.09-5.507a1.95 1.95 0 0 1 .269-.313c.134.09.224.179.358.224 1.254.716 2.687.94 4.119 1.03a32.16 32.16 0 0 0 9.716-.672c1.702 3.761 5.418 6.448 9.224 8.06 1.075.448 2.239.851 3.403.94 2.597.134 5.194-1.657 6-4.164.761-2.418-.179-5.239-2.194-6.716-.224-1.209-.537-2.418-.806-3.627-1.478.582-3 1.03-4.612.492-1.299-.448-2.239-1.343-3.09-2.283-3.448-3.761-5.866-8.194-7.567-12.985-.179-.537-.448-.761-.985-.896-.627-.134-1.254-.313-1.881-.448-1.075-.224-1.97-.761-2.642-1.612-.269-.314-.582-.403-.94-.493-1.075-.269-1.567-.806-1.567-1.478.045-.627.672-1.119 1.746-1.209s2.194-.224 3.358-.134c-.179-.627-.716-.672-1.075-.94-.448-.313-.94-.537-1.164-1.03-.045-.09-.045-.269 0-.358.09-.179.269-.134.403-.045 2.687 1.209 5.149 2.687 7.254 4.791 1.657 1.657 3.09 3.582 4.925 5.06.896.761 1.881 1.433 2.687 2.328.224.269.537.314.851.448 1.209.403 2.418.94 3.672 1.299 1.522.448 2.239 1.567 2.463 3 .224 1.478.134 2.91-.179 4.343-.045.224-.09.492-.179.716 1.478.045 2.507-.672 3.269-1.97.806-1.433 1.03-3 1.03-4.567.224-2.418 0-4.925-.134-7.433z" fill="#f7ebec"/><g fill="#f3725f"><path d="M60.885 10.444c0 1.388-.716 2.508-1.612 2.508s-1.612-1.119-1.612-2.508.716-2.507 1.612-2.507c.895.045 1.612 1.164 1.612 2.507z"/><path d="M64.109 19.355l-2.239-.134-1.254.045c-.716-1.97-.672-2.328-1.299-4.254.314-.582.851-2.239.448-3.224a1.27 1.27 0 0 1 .403-.448c.627-.537.761-1.209.492-2.015-.134-.448-.448-.761-.761-1.075-.672-.09-1.03.269-1.299.851-.358.716-.627.716-1.164.179-.806-.761-1.433-1.657-2.06-2.552-.179-.269-.313-.672-.895-.627-.493 1.97-1.746 3.403-3.313 4.612-.224.179-.403.403-.627.582-.627.403-.672.985-.537 1.612.045.269.179.537.269.806.672 1.657 2.015 2.597 3.627 3.224.358.134.716.179.672.672.09 1.836-.134 2.149-1.881 2.642l-3.672 1.254c-.313.089-.492.179-.985.403l1.119.806c1.97 1.433 4.254 1.791 6.582 1.746s4.433-.895 6.403-2.104c1.209-.761 2.463-1.567 3.179-2.91-.269 0-.985-.089-1.209-.089z"/></g><path d="M53.229 11.205c-.582.716-1.299 1.343-2.194 1.612-.851.269-1.925.134-2.552-.537-.313-.313-.492-.761-.627-1.209-.537-1.791-.269-3.806.761-5.373 1.03-1.522 4.254-3.985 5.866-2.015 1.657 2.104.179 5.821-1.254 7.522z" fill="#37313c"/><path d="M37.02 35.071c1.612-.672 7.254-3.448 9.582-4.612.492-.224 1.03.09 1.03.627l.358 13.656c0 .314-.179.582-.448.672l-9.672 3.806c-.224.09-.492.045-.716-.09l-6.269-4.701c-.179-.134-.269-.313-.269-.537l-.403-12.358c0-.627.716-.985 1.164-.582l4.881 3.985a.78.78 0 0 0 .761.134z" fill="#fea902"/><path d="M37.602 33.011c.448.045.895.179 1.254.403.985.582 1.254 1.299.806 2.373s-.493 2.105-.179 3.224c.09.313.134.672.045.94-.537 1.433-.09 2.821.179 4.209.269 1.522.895 2.955 1.388 4.388.537 1.478.94 2.955 1.119 4.477.358 2.821-1.657 4.925-4.478 4.702-.045-.045-.09-.134-.179-.179-2.507-1.164-3.179-3.448-3.403-5.91-.224-2.149-.179-4.298.179-6.448.224-1.299.134-2.687.134-4.03 0-.806-.403-1.478-.761-2.149-.358-.627-.716-1.254-.94-1.97-.358-1.03-.045-2.015.224-2.955.09-.358.403-.627.806-.582.224 0 .493.09.716-.09.851-.716 1.791-.806 2.821-.358.09.045.179-.045.269-.045z" fill="#f3725f"/><path d="M40.871 35.967l5.463-2.463v1.657l-5.463 2.507v-1.701z" fill="#d1c3c5"/><path d="M41.901 43.265l3.895-1.791m-3.895 3.313l3.895-1.836" stroke="#37313c" stroke-width="1.137" stroke-miterlimit="10" stroke-linecap="round" stroke-linejoin="round"/><path d="M56.856 13.131c.224 1.075-.313 2.149-1.343 2.507s-2.149-.134-2.597-1.119l3.94-1.388z" fill="#fff"/><path d="M55.557 148.174h-6.716a3.53 3.53 0 0 1-1.03 1.388c-.537.492-1.209.94-1.791 1.388-.851.627-1.657 1.388-2.642 1.791-.806.313-1.702.448-2.373.94-.895.717-1.164 1.926-1.343 3.09 3.134.582 6.403.582 9.492-.269l1.433-.358c.851-.179 1.701-.224 2.552-.314l2.776-.179c.134-1.253.224-2.686.09-3.895-.224-1.209-.492-2.373-.448-3.582z" fill="#37313c"/><path d="M45.93 150.099l4.03.896c.403.09.582-.537.179-.627l-4.03-.895c-.403-.09-.582.537-.179.626zm32.776 1.119l-3.224 1.209c-.179.045-.269.224-.224.403a.36.36 0 0 0 .403.224l3.224-1.209c.179-.044.269-.224.224-.403s-.224-.313-.403-.224z" fill="#d1c3c5"/><path d="M47.9 6.639c-.09 2.015-.403 5.149-2.955 5.463-1.209.179-2.418-.493-3.448-1.075l-3.313-1.791c-1.836-.985-3.851-2.06-6-1.925-1.701.134-3.269 1.03-3.895 2.687-.627 1.612-.224 3.627 1.119 4.746.313.269.761-.179.448-.448-1.254-1.075-1.567-3-.806-4.433.94-1.925 3.358-2.194 5.239-1.701 2.239.582 4.343 2.015 6.358 3.089 1.657.896 3.716 2.149 5.597 1.075 2.015-1.164 2.239-3.627 2.328-5.731-.045-.358-.672-.358-.672.045zm5.374 11.462c-1.298.493-2.552-.269-3.761-.672-1.164-.403-2.373-.403-3.448.313-1.164.761-1.791 2.015-2.687 3.045-.896 1.075-2.463 2.194-3.806 1.209-.313-.224-.627.313-.313.537 1.075.761 2.507.492 3.492-.224 1.209-.895 1.836-2.328 2.91-3.403.537-.582 1.254-1.075 2.06-1.119.672-.045 1.388.179 2.015.403 1.209.448 2.463 1.03 3.716.537.358-.134.179-.761-.179-.627z" fill="#37313c"/><g fill="#d1c3c5"><path d="M80.318 36.593c-4.791 2.015-8.239 6.582-8.821 11.731-.045.403.582.403.627 0 .582-4.836 3.851-9.224 8.373-11.104.358-.179.179-.806-.179-.627zm-19.88 28.836a11.16 11.16 0 0 1-3.582-6.806c-.045-.403-.672-.224-.627.179.403 2.687 1.746 5.239 3.761 7.075.313.269.761-.179.448-.448z"/><path d="M60.841 65.563c-2.866-.985-5.105-3.492-5.821-6.448-.09-.403-.716-.224-.627.179.761 3.179 3.179 5.821 6.269 6.895.403.134.582-.493.179-.627zm-13.164-1.881c-2.418.537-5.015-.448-6.582-2.373-.269-.313-.716.134-.448.448 1.701 2.105 4.567 3.09 7.209 2.507.403-.045.224-.672-.179-.582zm0-38.372c1.03.672 2.194 1.075 3.403 1.164.179 0 .313-.134.313-.313s-.134-.313-.313-.313c-1.119-.09-2.149-.492-3.09-1.119-.313-.224-.627.358-.313.582zm8.776 1.029c4.657-.179 9-2.821 11.283-6.895.179-.358-.358-.672-.537-.314-2.149 3.851-6.313 6.403-10.746 6.582-.403 0-.403.627 0 .627z"/></g></svg>