<svg width="159" height="97" viewBox="0 0 159 97" fill="none" xmlns="http://www.w3.org/2000/svg">
<g clip-path="url(#clip0)">
<path d="M102.27 41.5714V0H60.7568L102.27 41.5714Z" fill="#F9BF0A"/>
<path d="M54.0892 52.5312C60.0017 57.0663 69.8138 61.8533 75.7262 63.6169C84.5319 60.9715 102.269 51.5234 102.269 46.2325V46.1065L81.387 25.1948L54.0892 52.5312Z" fill="#EB5D19"/>
<path d="M49.1833 46.2325C49.1833 47.4922 50.0639 48.8779 51.5734 50.3896L78.997 22.9273L56.1021 0H49.1833V46.2325Z" fill="#EB5D19"/>
<path d="M63.6497 21.4156C64.2787 21.4156 64.9077 21.7935 64.9077 22.2974C64.9077 22.8013 64.4045 23.1792 63.6497 23.1792C63.0207 23.1792 62.3917 22.8013 62.3917 22.2974C62.3917 21.7935 62.8949 21.4156 63.6497 21.4156ZM60.2532 21.4156C60.8822 21.4156 61.5112 21.7935 61.5112 22.2974C61.5112 22.8013 61.008 23.1792 60.2532 23.1792C59.6242 23.1792 58.9952 22.8013 58.9952 22.2974C58.9952 21.7935 59.6242 21.4156 60.2532 21.4156ZM56.8567 21.4156C57.4857 21.4156 58.1147 21.7935 58.1147 22.2974C58.1147 22.8013 57.6115 23.1792 56.8567 23.1792C56.2277 23.1792 55.5987 22.8013 55.5987 22.2974C55.5987 21.7935 56.2277 21.4156 56.8567 21.4156ZM63.6497 23.9351C64.2787 23.9351 64.9077 24.313 64.9077 24.8169C64.9077 25.3208 64.4045 25.6987 63.6497 25.6987C63.0207 25.6987 62.3917 25.3208 62.3917 24.8169C62.3917 24.313 62.8949 23.9351 63.6497 23.9351ZM60.2532 23.9351C60.8822 23.9351 61.5112 24.313 61.5112 24.8169C61.5112 25.3208 61.008 25.6987 60.2532 25.6987C59.6242 25.6987 58.9952 25.3208 58.9952 24.8169C58.9952 24.313 59.6242 23.9351 60.2532 23.9351ZM56.8567 23.9351C57.4857 23.9351 58.1147 24.313 58.1147 24.8169C58.1147 25.3208 57.6115 25.6987 56.8567 25.6987C56.2277 25.6987 55.5987 25.3208 55.5987 24.8169C55.5987 24.313 56.2277 23.9351 56.8567 23.9351ZM63.6497 26.3286C64.2787 26.3286 64.9077 26.7065 64.9077 27.2104C64.9077 27.7143 64.4045 28.0922 63.6497 28.0922C63.0207 28.0922 62.3917 27.7143 62.3917 27.2104C62.3917 26.8325 62.8949 26.3286 63.6497 26.3286ZM60.2532 26.3286C60.8822 26.3286 61.5112 26.7065 61.5112 27.2104C61.5112 27.7143 61.008 28.0922 60.2532 28.0922C59.6242 28.0922 58.9952 27.7143 58.9952 27.2104C58.9952 26.8325 59.6242 26.3286 60.2532 26.3286ZM56.8567 26.3286C57.4857 26.3286 58.1147 26.7065 58.1147 27.2104C58.1147 27.7143 57.6115 28.0922 56.8567 28.0922C56.2277 28.0922 55.5987 27.7143 55.5987 27.2104C55.5987 26.8325 56.2277 26.3286 56.8567 26.3286ZM63.6497 28.974C64.2787 28.974 64.9077 29.352 64.9077 29.8559C64.9077 30.3598 64.4045 30.7377 63.6497 30.7377C63.0207 30.7377 62.3917 30.3598 62.3917 29.8559C62.3917 29.352 62.8949 28.974 63.6497 28.974ZM60.2532 28.974C60.8822 28.974 61.5112 29.352 61.5112 29.8559C61.5112 30.3598 61.008 30.7377 60.2532 30.7377C59.6242 30.7377 58.9952 30.3598 58.9952 29.8559C58.9952 29.352 59.6242 28.974 60.2532 28.974ZM56.8567 28.974C57.4857 28.974 58.1147 29.352 58.1147 29.8559C58.1147 30.3598 57.6115 30.7377 56.8567 30.7377C56.2277 30.7377 55.5987 30.3598 55.5987 29.8559C55.5987 29.352 56.2277 28.974 56.8567 28.974ZM64.4045 18.1403H55.8503V19.7779H64.5303V18.1403H64.4045ZM55.7245 17.5104H64.5303C64.9077 17.5104 65.1592 17.7623 65.1592 18.1403V19.9039C65.1592 20.2818 64.9077 20.5338 64.5303 20.5338H55.7245C55.3472 20.5338 55.0956 20.2818 55.0956 19.9039V18.1403C55.0956 17.7623 55.4729 17.5104 55.7245 17.5104ZM64.9077 16.3766H55.4729C54.7182 16.3766 54.0892 17.0065 54.0892 17.7623V30.3598C54.0892 31.1156 54.7182 31.7455 55.4729 31.7455H64.9077C65.6624 31.7455 66.2914 31.1156 66.2914 30.3598V17.7623C66.2914 17.0065 65.6624 16.3766 64.9077 16.3766ZM55.4729 15.6208H64.9077C66.0398 15.6208 67.0462 16.5026 67.0462 17.7623V30.3598C67.0462 31.4935 66.1656 32.5013 64.9077 32.5013H55.4729C54.3408 32.5013 53.3344 31.6195 53.3344 30.3598V17.7623C53.3344 16.6286 54.3408 15.6208 55.4729 15.6208Z" fill="white"/>
<path d="M84.9092 3.65326L90.3185 6.55066L95.7277 3.65326L96.1051 4.28313L90.3185 7.30651L84.5318 4.28313L84.9092 3.65326ZM89.9411 8.94417L83.6513 5.79482V15.6208L89.9411 18.7701V8.94417ZM90.3185 19.7779L82.8965 16.1247V4.66105L90.3185 8.3143L97.7404 4.66105V16.1247L90.3185 19.7779ZM90.6958 8.94417V18.7701L96.9857 15.6208V5.79482L90.6958 8.94417Z" fill="white"/>
<path d="M70.9459 46.7364H68.8074V48.8779H70.9459L71.8265 51.0195L70.3169 52.5312L71.8265 54.0428L73.3361 52.5312L75.4746 53.413V55.4285H77.6131V53.287L79.7516 52.4052L81.2612 53.9169L82.7708 52.4052L81.0096 50.8935L81.8902 48.7519H84.0287V46.6104H81.8902L81.0096 44.5948L82.5192 43.0831L81.1354 41.5714L79.6259 43.0831L77.4873 42.2013V40.0597H75.3488V42.2013L73.2103 43.0831L71.8265 41.5714L70.3169 43.0831L71.8265 44.5948L70.9459 46.7364ZM70.5685 45.9805L71.0717 44.7208L69.4364 43.0831L71.9523 40.5636L73.7134 42.2013L74.9714 41.6974V39.3039H78.4937V41.6974L79.7516 42.2013L81.5128 40.5636L84.0287 43.0831L82.2676 44.7208L82.7708 45.9805H84.7835V49.5078H82.3934L81.8902 50.7675L83.6513 52.4052L81.1354 54.9247L79.3743 53.287L78.1163 53.7909V56.1844H74.7198V53.7909L73.4618 53.287L71.7007 55.0506L69.1848 52.5312L70.8201 50.7675L70.3169 49.5078H67.9268V45.9805H70.5685ZM76.481 45.0987C74.9714 45.0987 73.8392 46.2325 73.8392 47.7441C73.8392 49.2558 75.0972 50.3896 76.481 50.3896C77.9905 50.3896 79.1227 49.1299 79.1227 47.7441C79.1227 46.2325 77.8647 45.0987 76.481 45.0987ZM76.481 44.3428C78.3679 44.3428 79.8774 45.8545 79.8774 47.7441C79.8774 49.6338 78.3679 51.1454 76.481 51.1454C74.594 51.1454 73.0845 49.6338 73.0845 47.7441C73.0845 45.8545 74.594 44.3428 76.481 44.3428Z" fill="white"/>
<path d="M6.16083 78.1039H3.01592L2.38694 79.8676H0.5L3.7707 71.0494H5.40605L8.67675 79.8676H6.78981L6.16083 78.1039ZM3.51911 76.7182H5.78344L4.65127 73.4429L3.51911 76.7182Z" fill="#EB5D19"/>
<path d="M12.8281 76.3402H11.8218V79.9935H10.0606V71.1753H11.8218V74.7026H12.7023L14.8409 71.1753H17.1052L14.3377 75.3324L17.3568 79.9935H15.2183L12.8281 76.3402Z" fill="#EB5D19"/>
<path d="M23.3951 78.1039H20.2502L19.6212 79.8676H17.7343L21.005 71.0494H22.6403L25.911 79.8676H24.0241L23.3951 78.1039ZM20.7534 76.7182H23.0177L21.8855 73.3169L20.7534 76.7182Z" fill="#EB5D19"/>
<path d="M35.4711 82.135H33.8358V79.9935H28.5523V82.135H26.7912L26.6654 78.4818H27.2944C27.6718 78.2298 27.9234 77.7259 28.175 77.222C28.4266 76.5922 28.5523 75.9623 28.5523 75.0805L28.8039 71.1753H34.5906V78.4818H35.7227L35.4711 82.135ZM29.4329 78.4818H32.8294V72.561H30.5651L30.4393 74.8285C30.3135 76.4662 29.9361 77.7259 29.4329 78.4818Z" fill="#EB5D19"/>
<path d="M42.3901 76.0883H38.8678V78.4818H42.8933V79.9935H36.9808V71.1753H42.8933V72.687H38.8678V74.8285H42.3901V76.0883Z" fill="#EB5D19"/>
<path d="M46.7929 71.1753L49.0572 77.6L51.3216 71.1753H53.7117V79.9935H51.9505V77.6L52.0763 73.4428L49.6862 79.9935H48.4282L46.0381 73.4428L46.1639 77.6V79.9935H44.4028V71.1753H46.7929Z" fill="#EB5D19"/>
<path d="M61.0079 71.1753H62.769V79.9935H61.0079V74.0727L57.4856 79.9935H55.7244V71.1753H57.4856V77.0961L61.0079 71.1753Z" fill="#EB5D19"/>
<path d="M68.9329 79.9935V76.8442H67.4234L65.788 79.9935H63.7753L65.6622 76.2143C64.7816 75.7104 64.2785 74.9546 64.2785 73.8208C64.2785 72.939 64.53 72.3091 65.159 71.8052C65.6622 71.3013 66.5428 71.0494 67.5492 71.0494H70.6941V79.8676H68.9329V79.9935ZM66.1654 73.9468C66.1654 74.4507 66.2912 74.8286 66.5428 74.9546C66.7944 75.2065 67.1718 75.3325 67.675 75.3325H68.9329V72.5611H67.675C66.6686 72.5611 66.1654 73.065 66.1654 73.9468Z" fill="#EB5D19"/>
<path d="M78.9967 75.3325L80.6321 71.1753H82.6448L79.6257 78.4818L79.3741 78.9857C78.8709 79.7416 78.242 80.1195 77.2356 80.1195H76.6066V78.6078C76.7324 78.6078 76.8582 78.6078 77.1098 78.6078C77.3614 78.6078 77.613 78.6078 77.7388 78.4818C77.8646 78.3559 77.9904 78.2299 78.1162 77.9779L78.3678 77.3481L75.2228 71.0494H77.2356L78.9967 75.3325Z" fill="#EB5D19"/>
<path d="M91.1991 79.9935H89.4379V72.687H85.9156V79.9935H84.1545V71.1753H91.3249V79.9935H91.1991Z" fill="#EB5D19"/>
<path d="M94.9731 76.8441V79.9935H93.2119V71.1753H96.6084C97.2374 71.1753 97.8664 71.3013 98.3696 71.5532C98.8728 71.8052 99.2501 72.1831 99.5017 72.561C99.7533 72.9389 99.8791 73.5688 99.8791 74.0727C99.8791 74.9545 99.6275 75.5844 98.9985 76.0883C98.3696 76.5922 97.6148 76.8441 96.6084 76.8441H94.9731ZM94.9731 75.3324H96.6084C97.1116 75.3324 97.489 75.2065 97.7406 74.9545C97.9922 74.7026 98.118 74.4506 98.118 73.9467C98.118 73.5688 97.9922 73.1909 97.7406 72.9389C97.489 72.687 97.1116 72.561 96.7342 72.561H95.0989V75.3324H94.9731Z" fill="#EB5D19"/>
<path d="M105.54 78.1039H102.395L101.766 79.8676H99.879L103.15 71.0494H104.785L108.056 79.8676H106.169L105.54 78.1039ZM102.898 76.7182H105.162L104.03 73.4429L102.898 76.7182Z" fill="#EB5D19"/>
<path d="M109.44 79.9935V71.1753H112.459C113.465 71.1753 114.346 71.4272 114.849 71.8052C115.352 72.1831 115.729 72.813 115.729 73.5688C115.729 73.9467 115.604 74.3246 115.352 74.7026C115.1 75.0805 114.849 75.3324 114.471 75.4584C114.975 75.5844 115.226 75.8363 115.478 76.0883C115.729 76.4662 115.855 76.8441 115.855 77.348C115.855 78.2298 115.604 78.8597 115.1 79.2376C114.597 79.6156 113.842 79.8675 112.836 79.8675H109.44V79.9935ZM111.201 74.8285H112.584C113.465 74.8285 113.968 74.4506 113.968 73.6948C113.968 73.3169 113.842 73.0649 113.591 72.813C113.339 72.687 112.962 72.561 112.459 72.561H111.201V74.8285ZM111.201 76.0883V78.4818H112.71C113.088 78.4818 113.465 78.3558 113.717 78.2298C113.968 78.1039 114.094 77.7259 114.094 77.348C114.094 76.5922 113.717 76.0883 112.836 76.0883H111.201Z" fill="#EB5D19"/>
<path d="M124.912 71.1753V79.9935H123.151V72.687H120.761L120.635 75.8363C120.635 76.8441 120.384 77.7259 120.258 78.3558C120.006 78.9857 119.755 79.3636 119.377 79.7415C119 79.9935 118.497 80.1194 117.742 80.1194H117.239V78.6078H117.49C117.993 78.6078 118.245 78.2298 118.497 77.8519C118.748 77.474 118.874 76.5922 118.874 75.3324L119 71.3013H124.912V71.1753Z" fill="#EB5D19"/>
<path d="M132.209 76.0883H128.686V78.4818H132.712V79.9935H126.799V71.1753H132.712V72.687H128.686V74.8285H132.209V76.0883Z" fill="#EB5D19"/>
<path d="M141.518 79.9935H139.756V76.2143H136.234V79.9935H134.473V71.1753H136.234V74.7026H139.756V71.1753H141.518V79.9935Z" fill="#EB5D19"/>
<path d="M148.814 71.1753H150.575V79.9935H148.814V74.0727L145.292 79.9935H143.53V71.1753H145.292V77.0961L148.814 71.1753Z" fill="#EB5D19"/>
<path d="M156.613 79.9935V76.8442H155.229L153.594 79.9935H151.581L153.468 76.2143C152.588 75.7104 152.084 74.9546 152.084 73.8208C152.084 72.939 152.336 72.3091 152.965 71.8052C153.468 71.3013 154.349 71.0494 155.355 71.0494H158.5V79.8676H156.613V79.9935ZM153.971 73.9468C153.971 74.4507 154.097 74.8286 154.349 74.9546C154.6 75.2065 154.978 75.3325 155.481 75.3325H156.739V72.5611H155.481C154.475 72.5611 153.971 73.065 153.971 73.9468Z" fill="#EB5D19"/>
<path d="M28.175 86.0403H29.9361V94.8585H28.175V89.0637L24.6527 94.8585H22.8915V86.0403H24.6527V91.9611L28.175 86.0403Z" fill="#EB5D19"/>
<path d="M42.2644 94.8585H40.5033V87.552H36.981V94.8585H35.2198V86.0403H42.3902V94.8585H42.2644Z" fill="#EB5D19"/>
<path d="M46.1639 91.7091V94.8585H44.4028V86.0403H47.7993C48.4283 86.0403 49.0572 86.1663 49.5604 86.4182C50.0636 86.6701 50.441 87.0481 50.6926 87.426C50.9442 87.9299 51.07 88.4338 51.07 88.9377C51.07 89.8195 50.8184 90.4494 50.1894 90.9533C49.5604 91.4572 48.8056 91.7091 47.7993 91.7091H46.1639ZM46.1639 90.3234H47.7993C48.3025 90.3234 48.6799 90.1974 48.9314 89.9455C49.183 89.6935 49.3088 89.4416 49.3088 88.9377C49.3088 88.5598 49.183 88.1818 48.9314 87.9299C48.6799 87.6779 48.3025 87.552 47.9251 87.552H46.2897V90.3234H46.1639Z" fill="#EB5D19"/>
<path d="M60.0018 90.5754C60.0018 91.4572 59.876 92.213 59.4986 92.8429C59.247 93.4728 58.7438 93.9767 58.2407 94.3546C57.6117 94.7325 56.9827 94.8585 56.2279 94.8585C55.4731 94.8585 54.8442 94.7325 54.2152 94.3546C53.5862 93.9767 53.2088 93.4728 52.8314 92.8429C52.454 92.213 52.3282 91.4572 52.3282 90.5754V90.1974C52.3282 89.3156 52.454 88.5598 52.8314 87.9299C53.083 87.3 53.5862 86.7961 54.2152 86.4182C54.8442 86.0403 55.4731 85.9143 56.2279 85.9143C56.9827 85.9143 57.6117 86.0403 58.2407 86.4182C58.8696 86.7961 59.247 87.3 59.6244 87.9299C59.876 88.5598 60.1276 89.3156 60.1276 90.1974V90.5754H60.0018ZM58.1149 90.1974C58.1149 89.3156 57.9891 88.5598 57.6117 88.0559C57.2343 87.552 56.8569 87.3 56.2279 87.3C55.5989 87.3 55.0958 87.552 54.8442 88.0559C54.4668 88.5598 54.341 89.1896 54.341 90.1974V90.5754C54.341 91.4572 54.4668 92.213 54.8442 92.7169C55.2216 93.2208 55.5989 93.4728 56.2279 93.4728C56.8569 93.4728 57.3601 93.2208 57.6117 92.7169C57.9891 92.213 58.1149 91.5831 58.1149 90.5754V90.1974Z" fill="#EB5D19"/>
<path d="M67.0464 86.0403H68.8075V94.8585H67.0464V89.0637L63.5241 94.8585H61.7629V86.0403H63.5241V91.9611L67.0464 86.0403Z" fill="#EB5D19"/>
<path d="M75.2231 88.4338C75.2231 88.0559 75.0973 87.8039 74.8457 87.6779C74.5941 87.426 74.2167 87.426 73.8394 87.426C73.462 87.426 73.0846 87.552 72.833 87.6779C72.5814 87.9299 72.4556 88.0559 72.4556 88.4338H70.6945C70.6945 87.9299 70.8203 87.552 71.0718 87.174C71.3234 86.7961 71.7008 86.5442 72.204 86.2922C72.7072 86.0403 73.2104 85.9143 73.8394 85.9143C74.8457 85.9143 75.6005 86.1663 76.2295 86.5442C76.8585 86.9221 77.1101 87.552 77.1101 88.4338C77.1101 88.8117 76.9843 89.1896 76.7327 89.5676C76.4811 89.9455 76.1037 90.1974 75.7263 90.3234C76.2295 90.4494 76.6069 90.7013 76.8585 91.0792C77.1101 91.4572 77.2359 91.8351 77.2359 92.339C77.2359 93.0948 76.9843 93.7247 76.3553 94.2286C75.7263 94.7325 74.9715 94.9844 73.8394 94.9844C73.2104 94.9844 72.5814 94.8585 72.0782 94.6065C71.575 94.3546 71.1976 94.1026 70.9461 93.7247C70.6945 93.3468 70.5687 92.8429 70.5687 92.339H72.4556C72.4556 92.5909 72.5814 92.9689 72.833 93.0948C73.0846 93.3468 73.462 93.4727 73.8394 93.4727C74.3425 93.4727 74.7199 93.3468 74.9715 93.0948C75.2231 92.8429 75.3489 92.5909 75.3489 92.213C75.3489 91.7091 75.2231 91.4572 74.9715 91.2052C74.7199 90.9533 74.3425 90.9533 73.8394 90.9533H72.7072V89.5676H73.8394C74.7199 89.5676 75.2231 89.1896 75.2231 88.4338Z" fill="#EB5D19"/>
<path d="M78.8708 94.8585V86.0403H82.0158C83.0221 86.0403 83.9027 86.2922 84.4059 86.6702C84.9091 87.0481 85.2865 87.6779 85.2865 88.4338C85.2865 88.8117 85.1607 89.1896 84.9091 89.5676C84.6575 89.9455 84.4059 90.1974 84.0285 90.3234C84.5317 90.4494 84.7833 90.7013 85.0349 90.9533C85.2865 91.3312 85.4123 91.7091 85.4123 92.213C85.4123 93.0948 85.1607 93.7247 84.6575 94.1026C84.1543 94.4805 83.3995 94.7325 82.3932 94.7325H78.8708V94.8585ZM80.7578 89.6935H82.1416C83.0221 89.6935 83.5253 89.3156 83.5253 88.5598C83.5253 88.1818 83.3995 87.9299 83.1479 87.6779C82.8963 87.552 82.519 87.426 82.0158 87.426H80.7578V89.6935ZM80.7578 90.9533V93.3468H82.2674C82.6448 93.3468 83.0221 93.2208 83.2737 93.0948C83.5253 92.9689 83.6511 92.5909 83.6511 92.213C83.6511 91.4572 83.2737 90.9533 82.3932 90.9533H80.7578Z" fill="#EB5D19"/>
<path d="M94.4698 90.5754C94.4698 91.4572 94.344 92.213 93.9667 92.8429C93.7151 93.4728 93.2119 93.9767 92.7087 94.3546C92.0797 94.7325 91.4507 94.8585 90.6959 94.8585C89.9412 94.8585 89.3122 94.7325 88.6832 94.3546C88.0542 93.9767 87.6768 93.4728 87.2995 92.8429C86.9221 92.213 86.7963 91.4572 86.7963 90.5754V90.1974C86.7963 89.3156 86.9221 88.5598 87.2995 87.9299C87.551 87.3 88.0542 86.7961 88.6832 86.4182C89.3122 86.0403 89.9412 85.9143 90.6959 85.9143C91.4507 85.9143 92.0797 86.0403 92.7087 86.4182C93.3377 86.7961 93.7151 87.3 94.0924 87.9299C94.344 88.5598 94.5956 89.3156 94.5956 90.1974V90.5754H94.4698ZM92.5829 90.1974C92.5829 89.3156 92.4571 88.5598 92.0797 88.0559C91.7023 87.552 91.3249 87.3 90.6959 87.3C90.067 87.3 89.5638 87.552 89.3122 88.0559C88.9348 88.5598 88.809 89.1896 88.809 90.1974V90.5754C88.809 91.4572 88.9348 92.213 89.3122 92.7169C89.6896 93.2208 90.067 93.4728 90.6959 93.4728C91.3249 93.4728 91.8281 93.2208 92.0797 92.7169C92.4571 92.213 92.5829 91.5831 92.5829 90.5754V90.1974Z" fill="#EB5D19"/>
<path d="M104.03 97H102.395V94.8585H97.1112V97H95.3501L95.2243 93.3468H95.8533C96.2307 93.0948 96.4823 92.5909 96.7339 92.087C96.9854 91.4572 97.1112 90.8273 97.1112 89.9455L97.3628 86.0403H103.149V93.3468H104.156L104.03 97ZM97.9918 93.3468H101.388V87.426H99.124L98.9982 89.6935C98.8724 91.3312 98.495 92.5909 97.9918 93.3468Z" fill="#EB5D19"/>
<path d="M112.333 91.9611C112.207 92.9689 111.956 93.5987 111.327 94.2286C110.698 94.7325 109.817 94.9844 108.811 94.9844C107.679 94.9844 106.798 94.6065 106.169 93.8507C105.54 93.0948 105.163 92.087 105.163 90.7013V90.1974C105.163 89.3156 105.288 88.5598 105.666 87.9299C105.917 87.3 106.421 86.7961 106.924 86.4182C107.427 86.0403 108.182 85.9143 108.811 85.9143C109.817 85.9143 110.698 86.1663 111.327 86.6702C111.956 87.1741 112.333 87.9299 112.459 88.9377H110.698C110.698 88.3078 110.446 87.9299 110.194 87.6779C109.943 87.426 109.565 87.3 108.936 87.3C108.308 87.3 107.93 87.552 107.553 87.9299C107.301 88.3078 107.05 89.0637 107.05 89.9455V90.7013C107.05 91.7091 107.175 92.339 107.427 92.8429C107.679 93.2208 108.182 93.4727 108.811 93.4727C109.314 93.4727 109.817 93.3468 110.069 93.0948C110.32 92.8429 110.446 92.465 110.572 91.9611H112.333Z" fill="#EB5D19"/>
<path d="M120.384 87.552H117.742V94.8585H115.981V87.552H113.339V86.0403H120.51V87.552H120.384Z" fill="#EB5D19"/>
<path d="M121.767 94.8585V86.0403H124.912C125.919 86.0403 126.799 86.2922 127.302 86.6702C127.806 87.0481 128.183 87.6779 128.183 88.4338C128.183 88.8117 128.057 89.1896 127.806 89.5676C127.554 89.9455 127.302 90.1974 126.925 90.3234C127.428 90.4494 127.68 90.7013 127.931 90.9533C128.183 91.3312 128.309 91.7091 128.309 92.213C128.309 93.0948 128.057 93.7247 127.554 94.1026C127.051 94.4805 126.296 94.7325 125.29 94.7325H121.767V94.8585ZM123.654 89.6935H125.038C125.919 89.6935 126.422 89.3156 126.422 88.5598C126.422 88.1818 126.296 87.9299 126.045 87.6779C125.793 87.552 125.416 87.426 124.912 87.426H123.654V89.6935ZM123.654 90.9533V93.3468H125.164C125.541 93.3468 125.919 93.2208 126.17 93.0948C126.422 92.9689 126.548 92.5909 126.548 92.213C126.548 91.4572 126.17 90.9533 125.29 90.9533H123.654Z" fill="#EB5D19"/>
<path d="M134.976 92.9689H131.831L131.202 94.7325H129.315L132.586 85.9143H134.221L137.492 94.7325H135.605L134.976 92.9689ZM132.209 91.5831H134.473L133.341 88.3078L132.209 91.5831Z" fill="#EB5D19"/>
</g>
<defs>
<clipPath id="clip0">
<rect width="158" height="97" fill="white" transform="translate(0.5)"/>
</clipPath>
</defs>
</svg>
