<svg xmlns="http://www.w3.org/2000/svg" xmlns:xlink="http://www.w3.org/1999/xlink" width="1920" height="3979" fill="none" xmlns:v="https://vecta.io/nano"><g clip-path="url(#A)"><path opacity=".5" d="M473.269 182.5C124.926 182.5-21.507 364-21.507 364L-38 1104l2121.59 86V383.5S1870.69 0 1494.36 0C921.121 0 889.58 182.5 473.269 182.5z" fill="#ffe03c"/><path d="M1423.84 201c348.34 0 494.77 181.5 494.77 181.5l16.5 3510s-359.45-79.29-593.74-93c-141.45-8.28-224.64-30.43-362.832 0-189.306 41.69-268.991 175.64-462.79 179.5-224.306 4.47-531.76-217.5-531.76-217.5v-3335S110.431 78 486.761 78C1060 78 1007.53 201 1423.84 201z" fill="#ffd600"/><path fill-rule="evenodd" d="M1613.71 1449.7c-83.42 11.92-157.06 49.62-223.1 98.4-63.42 46.84-104.55 108.96-145.52 173.87-53.49 84.76-136.79 163.34-129.11 261.31 8.31 106.05 78.13 205.11 170.6 267.85 92.6 62.84 214.21 88.61 327.13 69.9 103.92-17.22 162.41-114.07 252.03-165.86 100.24-57.92 273.83-48.42 302.7-154.7 29.48-108.49-132.07-178.29-184.92-278.86-41.84-79.63-15.7-190.29-90.52-245.3-75.2-55.3-184.47-40.16-279.29-26.61z" fill="#ffe03c"/><path d="M1840.85 1691.65c0-29.64-32.22-53.66-72.05-53.66s-72.05 24.02-72.05 53.66c0 29.65 32.22 53.67 72.05 53.67a86.76 86.76 0 0 0 11.67-.77c2.54 3.32 5.33 6.39 8.63 8.94 8.37 6.39 19.02 9.97 29.68 9.46-6.34-4.35-9.39-11.25-11.42-18.91-.51-2.3-.76-4.6-1.01-6.9 21.05-9.46 34.5-26.32 34.5-45.49z" fill="#f9a832"/><path d="M1788.34 1649.49c0-29.64-32.22-53.66-72.05-53.66s-72.05 24.02-72.05 53.66 32.22 53.66 72.05 53.66a86.89 86.89 0 0 0 11.67-.76c2.54 3.32 5.33 6.39 8.62 8.94 8.38 6.39 19.03 9.97 29.69 9.46-6.35-4.35-9.39-11.25-11.42-18.91-.51-2.3-.76-4.6-1.02-6.9 20.81-9.46 34.51-26.32 34.51-45.49z" stroke="#472a1c" stroke-width=".314" stroke-miterlimit="10" stroke-linejoin="round"/><g fill="#472a1c"><use xlink:href="#B"/><path d="M1722.12 1654.09c2.8 0 5.07-2.29 5.07-5.11s-2.27-5.11-5.07-5.11-5.07 2.29-5.07 5.11 2.27 5.11 5.07 5.11zm23.59 0c2.81 0 5.08-2.29 5.08-5.11s-2.27-5.11-5.08-5.11c-2.8 0-5.07 2.29-5.07 5.11s2.27 5.11 5.07 5.11z"/></g><path d="M1622.3 2076.81h95.26c12.25 0 22.28 10.1 22.28 22.45v45.17c0 12.35-10.03 22.45-22.28 22.45h-61c-3.62 6.73-8.36 12.62-14.21 17.11-9.75 7.86-22.28 12.07-34.82 12.07 8.36-7.3 14.49-17.96 16.44-29.18h-1.67c-12.26 0-22.29-10.1-22.29-22.45v-45.17c0-12.35 10.03-22.45 22.29-22.45z" fill="#c8c7f9"/><path d="M1563.8 2042.86h105.29c13.37 0 24.51 11.23 24.51 24.69v50.23c0 13.46-11.14 24.69-24.51 24.69h-67.41c-3.9 7.29-9.19 14.02-15.87 19.08-10.87 8.69-24.79 13.46-38.44 13.18 9.19-8.13 16.15-19.92 18.1-32.26h-1.67c-13.37 0-24.51-11.23-24.51-24.69v-50.23c0-13.46 10.86-24.69 24.51-24.69z" stroke="#472a1c" stroke-width=".616" stroke-miterlimit="10" stroke-linejoin="round"/><g fill="#472a1c"><use xlink:href="#C"/><path d="M1623.69 2098.13c0 3.37-2.79 5.9-5.85 5.9-3.34 0-5.85-2.81-5.85-5.9 0-3.36 2.78-5.89 5.85-5.89 3.34 0 5.85 2.53 5.85 5.89zm27.58 0c0 3.37-2.79 5.9-5.85 5.9-3.35 0-5.85-2.81-5.85-5.9 0-3.36 2.78-5.89 5.85-5.89 3.34 0 5.85 2.53 5.85 5.89z"/></g></g><defs><clipPath id="A"><path fill="#fff" d="M0 0h1920v3979H0z"/></clipPath><path id="B" d="M1697.26 1654.09c2.8 0 5.07-2.29 5.07-5.11s-2.27-5.11-5.07-5.11-5.07 2.29-5.07 5.11 2.27 5.11 5.07 5.11z"/><path id="C" d="M1594.72 2098.13c0 3.37-2.79 5.9-5.85 5.9-3.34 0-5.85-2.81-5.85-5.9 0-3.36 2.78-5.89 5.85-5.89 3.34 0 5.85 2.53 5.85 5.89z"/></defs></svg>