<svg width="331" height="173" viewBox="0 0 331 173" fill="none" xmlns="http://www.w3.org/2000/svg">
<g clip-path="url(#clip0)">
<path fill-rule="evenodd" clip-rule="evenodd" d="M18.4659 47.1518C28.8164 31.2698 47.0406 20.5837 68.3914 12.837C88.8936 5.39817 112.801 4.46704 137.633 3.91426C170.056 3.1925 202.687 -4.48718 234.861 9.13123C269.685 23.8712 299.733 39.1335 311.408 77.4678C317.953 98.9612 322.617 115.528 311.408 135.001C295.869 161.996 265.308 150.84 234.861 157.409C204.696 163.916 187.483 168.66 156.624 168.501C126.842 168.349 109.211 167.452 81.1724 157.409C48.2148 145.604 18.7405 130.795 6.05409 108.488C-6.69734 86.0675 6.70099 65.2041 18.4659 47.1518Z" stroke="black" stroke-width="0.290861"/>
<path fill-rule="evenodd" clip-rule="evenodd" d="M311.367 124.349C301.017 140.231 282.792 150.917 261.442 158.664C240.939 166.103 217.032 167.034 192.2 167.587C159.777 168.308 127.146 175.988 94.9719 162.37C60.1478 147.63 30.0997 132.368 18.4253 94.0332C11.8796 72.5398 7.21639 55.9726 18.4253 36.5001C33.9643 9.50519 64.5245 20.6606 94.9719 14.0921C125.137 7.58456 142.35 2.84128 173.209 2.99948C202.991 3.15217 220.622 4.04934 248.661 14.0921C281.618 25.897 311.093 40.7061 323.779 63.0126C336.53 85.4335 323.132 106.297 311.367 124.349Z" stroke="black" stroke-width="0.290861"/>
</g>
<defs>
<clipPath id="clip0">
<rect width="331" height="173" fill="white"/>
</clipPath>
</defs>
</svg>
