<svg xmlns="http://www.w3.org/2000/svg" width="259" height="257" fill="none" xmlns:v="https://vecta.io/nano"><path fill-rule="evenodd" d="M160.508 24.823L129.257.755 98.006 24.823l-39.302-3.352-13.278 37.143L10.55 77.043l8.911 38.426L.085 149.827l28.271 27.508 2.276 39.379 38.655 7.857 23.204 31.898 36.766-14.289 36.766 14.289 23.204-31.898 38.655-7.857 2.276-39.379 28.271-27.508-19.376-34.358 8.911-38.426-34.876-18.429-13.277-37.143-39.303 3.352zm-30.751 158.932c28.719 0 52-23.281 52-52s-23.281-52-52-52-52 23.281-52 52 23.281 52 52 52z" fill="#5231fd"/><g fill="#fff"><path d="M134.482 44.25h-2.893l-3.057 6.837 1.2.017-2.597-6.854h-3.106l3.764 8.004-1.561 3.501h2.843l5.407-11.505zm5.358 8.635l3.53.508.351-2.44-2.733-.393-1.148 2.326zm3.61-7.435l-1.638 11.388 2.863.412 1.638-11.388-2.863-.412zm-3.547-.51l-2.765-.398-.543 3.774a4.69 4.69 0 0 0 .149 2.08 3.61 3.61 0 0 0 1.075 1.649c.523.441 1.197.72 2.021.839l1.148-2.326c-.358-.051-.668-.168-.929-.349a1.69 1.69 0 0 1-.574-.747c-.109-.315-.134-.684-.073-1.106l.491-3.416zm9.135 11.148l5.834 1.713.424-2.085-5.472-1.607-.786 1.979zm4.312-4.01l.51 4.038-.294.65.524 3.117 3.027.889-2.374-13.441-9.248 10.029 3.012.884 2.206-2.436.045-.621 2.592-3.11zm8.558 4.735c.296-.648.693-1.135 1.191-1.462s1.037-.502 1.614-.528c.588-.021 1.166.099 1.734.358.498.228.907.493 1.227.795a3.82 3.82 0 0 1 .784.972 5.8 5.8 0 0 1 .485 1.035l1.243-2.721a5.71 5.71 0 0 0-1.02-1.405c-.412-.417-1.002-.801-1.769-1.151-.837-.382-1.669-.605-2.495-.669s-1.605.032-2.336.288-1.389.654-1.973 1.195-1.063 1.219-1.436 2.036-.573 1.624-.599 2.419a5.62 5.62 0 0 0 .389 2.274 5.68 5.68 0 0 0 1.312 1.954 7.37 7.37 0 0 0 2.14 1.447c.767.35 1.444.545 2.028.583a5.73 5.73 0 0 0 1.731-.149l1.242-2.721a5.84 5.84 0 0 1-1.099.311 4.45 4.45 0 0 1-1.249.044c-.438-.043-.906-.179-1.404-.406-.568-.259-1.037-.618-1.406-1.076-.359-.453-.579-.975-.658-1.565-.076-.6.033-1.22.324-1.857zm10.186 1.386l2.654 1.706-4.878 7.591 2.337 1.502 4.878-7.591 2.668 1.715 1.342-2.088-7.66-4.923-1.341 2.088zm16.807 13.204l2.334-2.567-13.979.044-2.333 2.567 13.978-.044zm-4.055-7.341l-2.012-1.744-7.911 9.129 3.799-.318 6.124-7.068zm6.389 4.775l-3.876.382-6.06 6.993 2.025 1.754 7.911-9.129zm-5.453 11.932l3.8 4.385 1.726-1.496-3.799-4.385-1.727 1.496zm6.969-6.038l3.799 4.385 1.726-1.496-3.799-4.385-1.726 1.496zm-3.242 2.809l3.584 4.136 1.689-1.464-3.584-4.136-1.689 1.464zm3.763-5.696l-8.695 7.534 1.743 2.012 8.695-7.534-1.743-2.012zm8.572 23.486l1.57 3.439c.15.329.233.629.248.899s-.04.506-.165.707c-.115.197-.312.359-.591.487-.269.123-.52.165-.754.128a1.19 1.19 0 0 1-.643-.339c-.184-.193-.352-.454-.502-.783l-1.57-3.439-2.078.949 1.823 3.991c.309.678.724 1.217 1.244 1.618.525.411 1.102.659 1.732.745.644.092 1.285-.008 1.923-.3.647-.296 1.138-.712 1.471-1.25.347-.532.532-1.128.555-1.789.038-.656-.098-1.323-.407-2.001l-1.823-3.992-2.033.929zm5.659-3.434l-10.465 4.779 1.174 2.571 8.387-3.83 2.233 4.889 2.078-.949-3.407-7.46zm-5.441 17.007l1.635 5.566 2.192-.643-1.635-5.567-2.192.644zm8.847-2.598l1.635 5.567 2.192-.644-1.635-5.567-2.192.644zm-4.116 1.209l1.542 5.251 2.145-.63-1.542-5.251-2.145.63zm5.79-3.619l-11.039 3.242.75 2.554 11.039-3.241-.75-2.555zm-2.208 15.041c.705-.102 1.33-.031 1.874.212a3.14 3.14 0 0 1 1.316 1.072c.335.483.547 1.034.636 1.652.078.543.076 1.03-.005 1.462-.071.431-.203.826-.394 1.186a5.82 5.82 0 0 1-.609.968l2.961-.426c.293-.507.503-1.047.631-1.618s.132-1.276.012-2.111c-.131-.911-.393-1.731-.786-2.461s-.894-1.332-1.505-1.809a5.61 5.61 0 0 0-2.072-1.014c-.77-.199-1.6-.235-2.489-.107s-1.676.396-2.359.804-1.25.927-1.702 1.557a5.66 5.66 0 0 0-.935 2.16c-.171.811-.191 1.671-.06 2.582.12.835.322 1.509.606 2.022s.638.971 1.061 1.375l2.961-.426c-.296-.212-.582-.464-.856-.757s-.512-.635-.712-1.026-.34-.859-.418-1.402c-.089-.618-.04-1.206.145-1.764.187-.547.507-1.014.961-1.4.465-.388 1.044-.632 1.738-.731zm4.405 15.509h-9.023v2.827h11.504V127.23h-11.504v2.827h9.023v4.388zm.731 15.825l1.345-9.354-6.735-.969c-.347-.049-.661-.133-.943-.251s-.515-.268-.699-.45a1.47 1.47 0 0 1-.379-.602c-.079-.222-.099-.468-.06-.739l-2.326-.335c-.151 1.052-.101 1.934.151 2.646a3.22 3.22 0 0 0 1.402 1.679c.682.419 1.554.705 2.617.858l4.116.591-.543 3.775-8.931-1.285-.402 2.799 11.387 1.637z"/><path d="M205.423 152.036l-1.713 5.835 2.085.423 1.607-5.472-1.979-.786zm4.01 4.312l-4.038.51-.65-.294-3.117.524-.889 3.028 13.441-2.374-10.029-9.249-.884 3.012 2.435 2.206.621.045 3.11 2.592zm-.778 7.768l-1.311 2.871-8.208-3.749-1.154 2.527 8.208 3.748-1.318 2.886 2.258 1.031 3.782-8.283-2.257-1.031zm-8.628 8.305l-4.7 7.314 2.101 1.351 4.701-7.315-2.102-1.35zm1.869 9.465l-9.679-6.22-1.501 2.336 9.678 6.22 1.502-2.336zm4.176-6.499l-9.678-6.22-1.502 2.337 9.678 6.22 1.502-2.337zm-12.928 8.642c.513.445.879.936 1.096 1.472.218.551.281 1.106.189 1.664-.1.566-.365 1.098-.795 1.595-.438.505-.926.843-1.466 1.013s-1.093.184-1.663.038c-.561-.139-1.099-.43-1.612-.875s-.879-.943-1.097-1.495a2.96 2.96 0 0 1-.177-1.653c.092-.558.35-1.082.773-1.57.431-.497.919-.835 1.466-1.014.539-.17 1.093-.191 1.661-.06.57.145 1.112.441 1.625.885zm1.927-2.223c-.671-.581-1.385-1.004-2.142-1.268-.764-.256-1.532-.357-2.305-.301-.78.063-1.533.28-2.26.651-.719.377-1.376.91-1.972 1.597-.588.679-1.018 1.401-1.289 2.166-.264.772-.368 1.545-.312 2.318.048.781.256 1.527.626 2.239.362.719.878 1.37 1.549 1.951s1.384.996 2.14 1.245 1.519.338 2.291.268 1.513-.299 2.223-.684c.712-.369 1.358-.889 1.939-1.56.574-.662.997-1.376 1.268-2.141a5.72 5.72 0 0 0 .36-2.298c-.039-.774-.233-1.521-.579-2.242-.354-.713-.867-1.36-1.537-1.941zm-14.328 6.974l-4.384 3.8 1.496 1.726 4.384-3.799-1.496-1.727zm6.038 6.969l-4.384 3.799 1.496 1.726 4.384-3.799-1.496-1.726zm-2.809-3.242l-4.136 3.584 1.464 1.689 4.136-3.584-1.464-1.689zm5.696 3.763l-7.534-8.695-2.012 1.744 7.534 8.694 2.012-1.743zm-11.576 9.135l-4.623-6.191-1.687 1.084 3.725 6.769 2.585-1.662zm-5.669-8.821c-.225-.35-.528-.559-.91-.626-.391-.062-.776.029-1.154.272s-.615.552-.713.927c-.106.381-.047.747.178 1.097a1.3 1.3 0 0 0 .924.618c.382.067.762-.021 1.14-.264s.62-.555.727-.936c.097-.375.033-.738-.192-1.088zm-22.027 19.455l2.898-2.615-.707-1.008-3.475 1.756 1.284 1.867zm-1.223-4.574l3.394 1.933.747-.956-2.734-2.777-1.407 1.8zm3.993-2.56l-.798 3.815 1.145.4 1.81-3.461-2.157-.754zm3.673 2.999l-3.874.4-.049 1.231 3.851.634.072-2.265zm-1.72 4.41l-1.593-3.558-1.167.343.584 3.854 2.176-.639zm-31.087 3.946h2.892l3.057-6.838-1.199-.016 2.596 6.854h3.107l-3.764-8.004 1.561-3.501h-2.843l-5.407 11.505zm-5.358-8.636l-3.531-.507-.35 2.44 2.733.393 1.148-2.326zm-3.61 7.435l1.638-11.388-2.864-.411-1.637 11.387 2.863.412zm3.547.51l2.765.397.543-3.774c.104-.726.055-1.42-.149-2.08a3.61 3.61 0 0 0-1.075-1.649c-.523-.441-1.197-.72-2.021-.839l-1.148 2.326c.358.051.667.168.929.349.26.193.451.442.573.747.11.315.135.684.074 1.107l-.491 3.416zm-9.135-11.147l-5.835-1.714-.424 2.086 5.472 1.606.787-1.978zm-4.312 4.009l-.51-4.038.294-.65-.524-3.117-3.028-.889 2.374 13.441 9.248-10.029-3.012-.884-2.205 2.436-.045.62-2.592 3.11zm-8.558-4.734c-.296.647-.693 1.135-1.191 1.461a3.15 3.15 0 0 1-1.614.528 3.82 3.82 0 0 1-1.734-.358c-.498-.228-.907-.493-1.227-.796-.324-.292-.586-.616-.784-.972a5.87 5.87 0 0 1-.485-1.035l-1.243 2.721a5.73 5.73 0 0 0 1.02 1.406c.412.417 1.002.8 1.769 1.151.837.382 1.669.605 2.495.669a5.67 5.67 0 0 0 2.336-.288 5.6 5.6 0 0 0 1.973-1.195c.584-.54 1.063-1.219 1.436-2.036s.573-1.624.599-2.419a5.61 5.61 0 0 0-.389-2.273 5.67 5.67 0 0 0-1.312-1.955c-.589-.582-1.303-1.064-2.14-1.447-.767-.35-1.444-.544-2.028-.583a5.69 5.69 0 0 0-1.73.15l-1.243 2.721c.338-.135.705-.239 1.1-.311s.811-.088 1.249-.044.906.178 1.404.406c.568.26 1.037.618 1.406 1.076a3.15 3.15 0 0 1 .658 1.565c.075.601-.033 1.22-.324 1.858zM86.42 206.31l-2.655-1.706 4.878-7.59-2.337-1.502-4.878 7.591-2.668-1.715-1.342 2.087 7.66 4.923 1.342-2.088zm-16.808-13.203l-2.333 2.567 13.978-.045 2.333-2.567-13.978.045zm4.055 7.341l2.012 1.744 7.911-9.13-3.799.319-6.124 7.067zm-6.388-4.774l3.876-.382 6.06-6.993-2.025-1.755-7.911 9.13zm5.452-11.933l-3.799-4.384-1.727 1.496 3.799 4.384 1.727-1.496zm-6.968 6.038l-3.799-4.384-1.727 1.496 3.799 4.384 1.726-1.496zm3.242-2.809l-3.584-4.136-1.689 1.464 3.584 4.136 1.689-1.464zm-3.763 5.696l8.695-7.534-1.744-2.012-8.695 7.534 1.744 2.012zm-8.572-23.487l-1.57-3.438c-.15-.329-.233-.629-.248-.899s.04-.506.165-.708c.115-.197.312-.359.591-.486.269-.123.521-.166.755-.128a1.19 1.19 0 0 1 .643.339c.184.193.352.454.502.782l1.57 3.439 2.078-.949-1.823-3.992c-.31-.677-.724-1.217-1.245-1.618-.525-.41-1.102-.659-1.731-.745-.644-.091-1.285.009-1.923.3-.648.296-1.138.713-1.471 1.25-.347.532-.532 1.129-.556 1.79-.038.656.098 1.322.407 2l1.823 3.992 2.033-.929zm-5.659 3.434l10.465-4.779-1.174-2.572-8.387 3.83-2.233-4.888-2.078.949 3.407 7.46zm5.44-17.006l-1.635-5.567-2.192.644 1.635 5.567 2.192-.644zm-8.847 2.598l-1.635-5.567-2.192.644 1.635 5.566 2.192-.643zm4.116-1.209l-1.542-5.251-2.145.63 1.542 5.251 2.145-.63zm-5.789 3.618l11.039-3.241-.75-2.554-11.039 3.241.75 2.554zm2.208-15.04c-.705.101-1.329.031-1.874-.212s-.983-.6-1.316-1.073c-.335-.483-.547-1.034-.636-1.652-.078-.542-.076-1.029.006-1.462.071-.431.202-.826.394-1.185a5.8 5.8 0 0 1 .608-.968l-2.961.426a5.73 5.73 0 0 0-.631 1.618c-.128.572-.132 1.275-.012 2.111.131.911.393 1.731.785 2.46s.895 1.333 1.505 1.81a5.62 5.62 0 0 0 2.072 1.013c.77.2 1.6.235 2.489.107s1.675-.395 2.358-.804a5.63 5.63 0 0 0 1.702-1.556 5.66 5.66 0 0 0 .935-2.16c.171-.81.191-1.672.06-2.583-.12-.835-.322-1.509-.606-2.021a5.72 5.72 0 0 0-1.061-1.375l-2.961.425c.296.212.581.465.856.757a4.45 4.45 0 0 1 .712 1.027c.2.392.339.859.417 1.401.089.618.041 1.207-.145 1.765a3.15 3.15 0 0 1-.961 1.4c-.465.388-1.044.631-1.738.731zm-4.405-15.509h9.023v-2.827H41.252v10.042h11.505v-2.827h-9.023v-4.388zm-.732-15.825l-1.345 9.354 6.735.968a3.87 3.87 0 0 1 .944.252 2.19 2.19 0 0 1 .699.449 1.47 1.47 0 0 1 .378.603 1.53 1.53 0 0 1 .06.739l2.326.334c.151-1.052.101-1.933-.151-2.645-.263-.713-.73-1.273-1.402-1.679-.681-.419-1.553-.705-2.616-.858l-4.116-.592.543-3.774 8.931 1.284.402-2.798-11.388-1.637z"/><path d="M53.09 112.474l1.713-5.835-2.085-.424-1.607 5.472 1.979.787zm-4.01-4.312l4.038-.51.65.294 3.117-.524.889-3.028-13.441 2.374 10.029 9.248.884-3.012-2.436-2.205-.62-.045-3.11-2.592zm.779-7.769l1.311-2.87 8.208 3.748 1.154-2.526-8.208-3.748 1.318-2.885-2.258-1.031-3.782 8.282 2.257 1.031zm8.628-8.304l4.7-7.314-2.102-1.351-4.7 7.314 2.102 1.351zm-1.869-9.465l9.679 6.22 1.502-2.337-9.678-6.22-1.502 2.337zm-4.176 6.498l9.678 6.22 1.502-2.337-9.678-6.22-1.502 2.337zM65.37 80.48c-.513-.445-.879-.935-1.096-1.471-.218-.551-.281-1.106-.189-1.664.099-.566.364-1.098.795-1.595.438-.505.926-.843 1.465-1.014a2.97 2.97 0 0 1 1.663-.037c.561.138 1.099.43 1.612.875s.879.943 1.097 1.494a2.96 2.96 0 0 1 .177 1.654c-.092.558-.35 1.081-.773 1.57-.43.497-.919.835-1.465 1.014a3.11 3.11 0 0 1-1.662.061c-.57-.146-1.111-.441-1.625-.886zm-1.927 2.223c.671.581 1.385 1.004 2.141 1.268a5.87 5.87 0 0 0 2.305.301c.78-.063 1.533-.28 2.26-.651.719-.378 1.376-.91 1.971-1.597.588-.679 1.018-1.401 1.29-2.166.263-.772.367-1.545.312-2.318a5.55 5.55 0 0 0-.626-2.239c-.362-.72-.879-1.37-1.549-1.951s-1.384-.996-2.14-1.245-1.519-.338-2.291-.267-1.513.299-2.223.683c-.712.369-1.358.889-1.939 1.56a6.66 6.66 0 0 0-1.268 2.141 5.72 5.72 0 0 0-.36 2.298c.04.774.233 1.521.58 2.242.354.713.866 1.359 1.537 1.941zm14.327-6.974l4.385-3.799-1.496-1.727-4.385 3.799 1.496 1.727zm-6.038-6.968l4.385-3.799-1.496-1.726-4.385 3.799 1.496 1.727zm2.809 3.242l4.136-3.584-1.464-1.689-4.136 3.584 1.464 1.689zm-5.696-3.763l7.534 8.695 2.012-1.744-7.534-8.695-2.012 1.744zm11.576-9.136l4.624 6.191 1.687-1.084-3.725-6.769-2.585 1.662zm5.669 8.821c.225.35.529.559.91.626.391.061.776-.03 1.154-.272s.616-.552.713-.927a1.3 1.3 0 0 0-.178-1.097 1.3 1.3 0 0 0-.924-.617c-.382-.067-.762.021-1.14.264s-.62.555-.727.936c-.097.375-.034.738.191 1.088zm22.027-19.454l-2.897 2.615.707 1.009 3.475-1.757-1.285-1.867zm1.224 4.574l-3.394-1.933-.747.956 2.734 2.777 1.407-1.801zm-3.994 2.56l.799-3.815-1.145-.4-1.811 3.461 2.157.754zm-3.672-2.998l3.873-.401.05-1.231-3.852-.633-.071 2.265zm1.72-4.41l1.592 3.558 1.167-.343-.583-3.854-2.176.639z"/></g></svg>