<svg width="458" height="224" viewBox="0 0 458 224" fill="none" xmlns="http://www.w3.org/2000/svg">
<path d="M216.376 33.7975L250.044 42.3523L291.117 26.9453L310.577 40.8752L358.313 30.3339L361.219 47.9588L409.86 43.5548L395.86 62.7487L439.54 65.0131L410.324 83.4611L443.774 92.1208L402.866 107.598L422.051 121.608L374.384 132.247L376.992 149.919L328.315 154.437L314.03 173.638L270.215 171.49L240.76 189.905L207.092 181.35L166.02 196.757L146.559 182.827L98.8236 193.368L95.9178 175.743L47.2767 180.147L61.2759 160.953L17.5961 158.689L46.812 140.241L13.362 131.581L54.2706 116.104L35.0848 102.094L82.752 91.4547L80.1446 73.7832L128.821 69.2651L143.107 50.0642L186.921 52.212L216.376 33.7975Z" fill="#5231FD"/>
<path d="M117.475 116.633L127.355 115.09L127.019 112.936L117.139 114.479L117.475 116.633ZM124.664 107.838L126.825 121.671L129.156 121.306L126.996 107.474L124.664 107.838ZM115.377 109.289L117.537 123.121L119.869 122.757L117.708 108.925L115.377 109.289ZM132.988 117.955C132.938 117.639 132.975 117.356 133.098 117.108C133.219 116.846 133.422 116.632 133.707 116.466C133.989 116.287 134.354 116.163 134.802 116.093C135.355 116.006 135.854 116.002 136.298 116.082C136.74 116.147 137.189 116.3 137.645 116.539L137.469 115.413C137.343 115.298 137.129 115.176 136.825 115.048C136.522 114.92 136.149 114.823 135.707 114.757C135.278 114.689 134.8 114.696 134.273 114.778C133.483 114.902 132.809 115.129 132.254 115.458C131.711 115.786 131.317 116.198 131.07 116.696C130.824 117.193 130.75 117.751 130.846 118.37C130.943 118.989 131.163 119.488 131.505 119.867C131.859 120.23 132.289 120.48 132.796 120.616C133.317 120.751 133.873 120.772 134.466 120.679C135.098 120.581 135.655 120.386 136.136 120.095C136.615 119.79 136.974 119.411 137.213 118.955C137.45 118.486 137.523 117.962 137.433 117.382L136.953 116.384C137.037 116.924 136.999 117.369 136.837 117.718C136.676 118.067 136.422 118.343 136.076 118.545C135.73 118.748 135.326 118.885 134.865 118.957C134.562 119.004 134.272 119.003 133.994 118.952C133.727 118.885 133.5 118.772 133.313 118.613C133.139 118.451 133.031 118.232 132.988 117.955ZM131.907 114.014C132.037 113.9 132.224 113.756 132.467 113.583C132.721 113.395 133.017 113.22 133.357 113.059C133.709 112.896 134.103 112.781 134.537 112.713C135.038 112.635 135.478 112.687 135.858 112.871C136.248 113.039 136.477 113.334 136.542 113.756L137.518 120L139.612 119.673L138.6 113.192C138.505 112.586 138.26 112.098 137.865 111.728C137.483 111.355 136.992 111.108 136.393 110.986C135.792 110.85 135.115 110.841 134.365 110.959C133.548 111.086 132.842 111.318 132.246 111.654C131.651 111.99 131.169 112.315 130.8 112.629L131.907 114.014ZM149.452 116.213L148.325 109.001L146.211 109.331L147.338 116.543L143.919 117.077L142.793 109.865L140.698 110.192L142.118 119.282L155.258 117.229L153.839 108.139L151.744 108.467L152.871 115.679L149.452 116.213ZM165.891 104.233L167.928 117.275L170.003 116.95L167.966 103.909L165.891 104.233ZM162.503 111.442C162.647 112.364 162.993 113.153 163.541 113.81C164.1 114.451 164.82 114.913 165.7 115.193C166.579 115.461 167.571 115.508 168.678 115.336C169.797 115.161 170.735 114.812 171.49 114.289C172.243 113.753 172.781 113.095 173.105 112.316C173.439 111.522 173.535 110.663 173.391 109.741C173.245 108.806 172.892 108.017 172.333 107.376C171.787 106.733 171.075 106.277 170.197 106.009C169.316 105.729 168.316 105.676 167.196 105.851C166.09 106.023 165.16 106.378 164.407 106.914C163.652 107.437 163.106 108.089 162.769 108.87C162.445 109.649 162.357 110.507 162.503 111.442ZM164.538 111.124C164.45 110.557 164.503 110.036 164.699 109.56C164.894 109.085 165.224 108.689 165.687 108.374C166.151 108.058 166.752 107.843 167.489 107.728C168.24 107.611 168.885 107.631 169.422 107.79C169.96 107.949 170.388 108.226 170.706 108.622C171.037 109.016 171.247 109.496 171.336 110.062C171.424 110.629 171.371 111.15 171.175 111.626C170.991 112.086 170.668 112.481 170.206 112.809C169.743 113.125 169.135 113.341 168.384 113.458C167.647 113.574 167.009 113.552 166.471 113.393C165.932 113.221 165.497 112.944 165.168 112.564C164.837 112.17 164.627 111.69 164.538 111.124ZM174.737 109.531C174.881 110.453 175.221 111.243 175.755 111.902C176.301 112.546 176.975 113.014 177.776 113.307C178.589 113.585 179.456 113.652 180.379 113.508C181.314 113.362 182.12 113.034 182.796 112.523C183.47 111.999 183.962 111.349 184.272 110.572C184.594 109.779 184.682 108.922 184.538 108C184.392 107.065 184.046 106.275 183.501 105.632C182.968 104.986 182.302 104.523 181.502 104.243C180.701 103.95 179.832 103.877 178.897 104.023C177.975 104.167 177.17 104.502 176.483 105.027C175.807 105.538 175.307 106.183 174.984 106.962C174.673 107.739 174.591 108.596 174.737 109.531ZM176.931 109.188C176.842 108.622 176.883 108.103 177.052 107.631C177.221 107.159 177.491 106.773 177.863 106.472C178.234 106.171 178.677 105.98 179.19 105.9C179.704 105.82 180.184 105.866 180.629 106.04C181.075 106.213 181.45 106.499 181.755 106.896C182.06 107.294 182.257 107.776 182.345 108.343C182.434 108.909 182.393 109.428 182.224 109.9C182.053 110.358 181.782 110.745 181.413 111.059C181.042 111.36 180.599 111.55 180.085 111.631C179.572 111.711 179.092 111.664 178.647 111.491C178.199 111.305 177.824 111.019 177.521 110.634C177.216 110.237 177.019 109.755 176.931 109.188ZM190.046 116.249L187.948 102.812L185.794 103.148L187.893 116.585L190.046 116.249ZM196.186 106.181C196.026 105.153 195.687 104.322 195.169 103.688C194.65 103.04 194.024 102.578 193.293 102.301C192.561 102.024 191.8 101.947 191.01 102.07C190.246 102.19 189.605 102.492 189.087 102.978C188.582 103.462 188.227 104.084 188.022 104.844C187.817 105.605 187.792 106.48 187.946 107.468C188.098 108.443 188.389 109.268 188.819 109.943C189.246 110.605 189.774 111.089 190.402 111.396C191.041 111.687 191.743 111.773 192.507 111.654C193.297 111.531 194 111.232 194.614 110.758C195.226 110.271 195.681 109.64 195.978 108.865C196.273 108.077 196.343 107.182 196.186 106.181ZM193.973 106.526C194.068 107.132 194.023 107.666 193.838 108.126C193.654 108.587 193.375 108.961 193.002 109.249C192.628 109.537 192.191 109.72 191.691 109.798C191.269 109.864 190.844 109.822 190.416 109.673C189.986 109.511 189.606 109.239 189.277 108.859C188.961 108.477 188.754 107.976 188.658 107.357C188.561 106.737 188.605 106.197 188.789 105.737C188.987 105.274 189.267 104.907 189.629 104.634C189.989 104.348 190.38 104.173 190.802 104.107C191.302 104.029 191.774 104.07 192.218 104.23C192.659 104.377 193.039 104.648 193.357 105.044C193.673 105.426 193.878 105.92 193.973 106.526ZM205.262 100.107L202.97 100.465L201.239 108.043L202.256 107.945L198.227 101.206L195.777 101.589L200.706 109.037L199.16 114.825L201.433 114.47L205.262 100.107ZM216.634 107.642L218.907 107.287L214.869 97.898L214.186 101.041L216.634 107.642ZM211.898 106.479L212.877 108.857L215.613 101.365L214.869 97.898L211.898 106.479ZM212.877 108.857L213.084 106.294L207.716 99.0154L208.065 102.544L212.877 108.857ZM206.715 109.192L208.987 108.837L209.305 101.804L207.716 99.0154L206.715 109.192ZM229.462 98.0477C229.976 97.9675 230.456 98.014 230.901 98.1874C231.347 98.3607 231.722 98.6462 232.027 99.0439C232.332 99.4416 232.529 99.9237 232.617 100.49C232.706 101.057 232.665 101.576 232.496 102.047C232.325 102.506 232.055 102.892 231.685 103.207C231.314 103.507 230.871 103.698 230.358 103.778C229.844 103.859 229.364 103.812 228.919 103.639C228.471 103.452 228.089 103.168 227.773 102.785C227.468 102.387 227.272 101.905 227.183 101.339L224.725 100.508C224.929 101.812 225.317 102.872 225.89 103.687C226.462 104.501 227.159 105.074 227.98 105.405C228.812 105.72 229.702 105.804 230.651 105.655C231.612 105.505 232.424 105.169 233.084 104.648C233.758 104.124 234.251 103.474 234.561 102.697C234.869 101.906 234.953 101.057 234.811 100.148C234.667 99.2254 234.328 98.4415 233.796 97.796C233.276 97.1484 232.622 96.677 231.834 96.3818C231.059 96.0846 230.203 96.009 229.268 96.1551L229.462 98.0477ZM226.235 101.487L227.183 101.339C227.111 100.878 227.126 100.457 227.229 100.077C227.345 99.6943 227.516 99.364 227.742 99.0857C227.966 98.7942 228.234 98.5635 228.545 98.3935C228.854 98.2103 229.159 98.0951 229.462 98.0477L229.268 96.1551C228.702 96.2435 228.205 96.4358 227.779 96.7317C227.351 97.0145 226.998 97.3869 226.719 97.8488C226.453 98.3086 226.275 98.8493 226.183 99.4709C226.102 100.077 226.119 100.749 226.235 101.487ZM224.725 100.508L226.97 101.271L226.448 99.227C226.345 98.5683 226.331 97.916 226.406 97.2701C226.491 96.609 226.719 95.9932 227.089 95.4226C227.457 94.8389 228.026 94.3383 228.798 93.9209C229.483 93.5574 230.08 93.147 230.589 92.6897C231.109 92.2171 231.508 91.7027 231.785 91.1466C232.063 90.5904 232.189 90.0174 232.164 89.4275L230.09 89.7516C230.072 90.2402 229.863 90.7181 229.463 91.1854C229.064 91.6526 228.442 92.1208 227.598 92.5901C226.619 93.1479 225.885 93.809 225.398 94.5734C224.921 95.3227 224.638 96.19 224.549 97.1756C224.473 98.159 224.532 99.2699 224.725 100.508ZM237.541 100.227L245.525 98.9801C245.519 98.8595 245.509 98.7531 245.495 98.6608C245.478 98.5555 245.464 98.4632 245.452 98.3842C245.302 97.4225 244.988 96.628 244.513 96.0006C244.048 95.3579 243.444 94.9057 242.702 94.6438C241.97 94.3667 241.13 94.3023 240.181 94.4504C239.325 94.5842 238.592 94.8606 237.983 95.2796C237.374 95.6987 236.909 96.2233 236.589 96.8536C236.283 97.4818 236.122 98.1816 236.108 98.9531C236.106 99.1153 236.111 99.2764 236.122 99.4366C236.134 99.5967 236.153 99.7624 236.18 99.9337C236.322 100.843 236.64 101.63 237.136 102.294C237.629 102.946 238.256 103.422 239.018 103.721C239.793 104.018 240.642 104.095 241.564 103.951C242.394 103.821 243.07 103.614 243.593 103.33C244.126 103.031 244.562 102.666 244.899 102.236C245.237 101.805 245.518 101.316 245.743 100.768L243.771 100.327C243.645 100.643 243.475 100.933 243.259 101.196C243.042 101.446 242.778 101.656 242.467 101.826C242.169 101.994 241.81 102.111 241.388 102.177C240.888 102.255 240.423 102.219 239.995 102.07C239.578 101.906 239.223 101.618 238.929 101.205C238.648 100.79 238.456 100.253 238.353 99.5942L238.307 99.0347C238.224 98.5077 238.259 98.0368 238.41 97.6218C238.572 97.1916 238.829 96.8479 239.18 96.5906C239.529 96.3202 239.941 96.1479 240.415 96.0738C240.876 96.0018 241.279 96.0333 241.624 96.1684C241.967 96.2903 242.25 96.5025 242.472 96.8051C242.706 97.0924 242.882 97.4428 243.001 97.8561L237.31 98.745L237.541 100.227ZM248.946 97.9396C248.858 97.3731 248.905 96.853 249.087 96.3791C249.269 95.9053 249.552 95.5103 249.934 95.1942C250.33 94.876 250.791 94.6757 251.318 94.5934C251.74 94.5276 252.158 94.5297 252.574 94.5997C252.99 94.6697 253.368 94.7996 253.708 94.9894C254.059 95.1639 254.331 95.3914 254.523 95.6718L254.153 93.3005C253.789 93.0469 253.323 92.8701 252.754 92.77C252.185 92.6699 251.578 92.6703 250.932 92.7711C250.01 92.9152 249.206 93.25 248.518 93.7757C247.843 94.2861 247.343 94.931 247.019 95.7103C246.695 96.4896 246.607 97.3469 246.753 98.2822C246.897 99.2043 247.243 99.9937 247.791 100.65C248.337 101.294 249.01 101.762 249.812 102.055C250.624 102.333 251.492 102.4 252.414 102.256C253.059 102.155 253.638 101.97 254.149 101.702C254.66 101.433 255.049 101.116 255.316 100.75L254.949 98.3987C254.849 98.7111 254.667 99.0096 254.401 99.294C254.133 99.5653 253.812 99.8043 253.44 100.011C253.078 100.202 252.674 100.333 252.226 100.403C251.699 100.485 251.198 100.435 250.725 100.253C250.264 100.068 249.874 99.7784 249.556 99.3827C249.238 98.9871 249.035 98.506 248.946 97.9396ZM264.427 90.8657L256.385 92.1219L257.805 101.212L259.899 100.884L258.779 93.7115L262.632 93.1096L263.753 100.283L265.847 99.9554L264.427 90.8657ZM275.749 89.0973L267.43 90.3967L268.309 96.0285C268.402 96.6213 268.32 97.0457 268.063 97.3017C267.819 97.5557 267.5 97.7136 267.104 97.7753L267.407 99.7118C268.263 99.5781 268.931 99.3591 269.409 99.0549C269.899 98.7355 270.22 98.3277 270.372 97.8317C270.535 97.3204 270.561 96.7091 270.45 95.9977L269.833 92.0456L273.963 91.4005L275.074 98.5143L277.168 98.1871L275.749 89.0973ZM281.036 94.8299C280.987 94.5138 281.024 94.2314 281.147 93.9827C281.268 93.7209 281.471 93.5071 281.755 93.3412C282.038 93.1621 282.403 93.0376 282.851 92.9676C283.404 92.8812 283.903 92.8775 284.347 92.9566C284.789 93.0225 285.238 93.175 285.694 93.4142L285.518 92.2879C285.392 92.1726 285.177 92.051 284.874 91.9229C284.57 91.7949 284.198 91.6979 283.755 91.632C283.326 91.5641 282.849 91.5712 282.322 91.6536C281.531 91.777 280.858 92.0036 280.302 92.3333C279.76 92.661 279.365 93.0735 279.119 93.5708C278.873 94.068 278.798 94.6263 278.895 95.2454C278.992 95.8646 279.211 96.3633 279.554 96.7417C279.907 97.1048 280.338 97.3547 280.845 97.4914C281.365 97.626 281.922 97.6471 282.515 97.5545C283.147 97.4557 283.703 97.2608 284.184 96.9698C284.663 96.6656 285.022 96.2856 285.261 95.8299C285.498 95.361 285.572 94.8368 285.481 94.2571L285.001 93.2592C285.086 93.7993 285.047 94.2439 284.886 94.593C284.725 94.9421 284.471 95.2179 284.125 95.4204C283.778 95.623 283.375 95.7602 282.914 95.8323C282.611 95.8796 282.32 95.8777 282.042 95.8267C281.775 95.7604 281.549 95.6473 281.362 95.4876C281.188 95.3258 281.08 95.1066 281.036 94.8299ZM279.955 90.8896C280.086 90.7747 280.273 90.6309 280.515 90.458C280.769 90.2698 281.066 90.0953 281.405 89.9344C281.758 89.7714 282.151 89.6559 282.586 89.588C283.087 89.5098 283.527 89.5625 283.906 89.7462C284.297 89.9145 284.525 90.2095 284.591 90.6311L285.566 96.8754L287.661 96.5482L286.649 90.0668C286.554 89.4608 286.309 88.9727 285.914 88.6026C285.532 88.2305 285.041 87.9832 284.442 87.8609C283.84 87.7255 283.164 87.7164 282.413 87.8337C281.596 87.9612 280.89 88.193 280.295 88.5289C279.7 88.8648 279.217 89.1897 278.848 89.5038L279.955 90.8896ZM287.482 87.2646L287.775 89.1418L293.525 88.2437L293.232 86.3664L287.482 87.2646ZM289.381 87.3728L290.739 96.0673L292.834 95.7402L291.476 87.0456L289.381 87.3728ZM296.427 91.1709L303.383 90.0844L303.105 88.306L296.15 89.3924L296.427 91.1709ZM301.428 85.0862L302.848 94.176L304.943 93.8488L303.523 84.759L301.428 85.0862ZM294.69 86.1387L296.11 95.2285L298.204 94.9013L296.785 85.8115L294.69 86.1387ZM315.062 82.9566L316.482 92.0464L318.636 91.7099L317.216 82.6202L315.062 82.9566ZM306.249 84.3332L307.669 93.423L309.823 93.0865L308.403 83.9968L306.249 84.3332ZM308.516 88.9992L311.125 88.5918C311.599 88.5177 311.978 88.5665 312.261 88.7382C312.544 88.9099 312.717 89.1933 312.778 89.5885C312.817 89.8388 312.792 90.0654 312.702 90.2684C312.626 90.4693 312.483 90.6333 312.273 90.7605C312.077 90.8857 311.821 90.9729 311.504 91.0223L308.896 91.4297L309.171 93.1884L311.996 92.747C312.629 92.6483 313.178 92.4478 313.643 92.1457C314.109 91.8435 314.452 91.4459 314.672 90.9527C314.891 90.4595 314.951 89.8902 314.85 89.2447C314.698 88.2698 314.264 87.6089 313.549 87.2618C312.844 86.8995 312.024 86.7914 311.089 86.9375L308.263 87.3788L308.516 88.9992ZM328.499 82.8821L328.181 80.199L321.239 89.2791L321.557 91.9622L328.499 82.8821ZM322.124 81.8536L320.029 82.1808L321.557 91.9622L323.272 89.2045L322.124 81.8536ZM328.181 80.199L326.463 82.9369L327.614 90.3075L329.709 89.9804L328.181 80.199ZM320.351 77.3735C320.425 77.8477 320.615 78.2837 320.92 78.6814C321.225 79.0791 321.635 79.3726 322.15 79.562C322.666 79.7514 323.266 79.7926 323.951 79.6856C324.649 79.5766 325.215 79.3533 325.648 79.0157C326.081 78.6782 326.382 78.2735 326.552 77.8017C326.721 77.33 326.768 76.857 326.694 76.3827L325.074 76.6358C325.105 76.8334 325.084 77.0458 325.012 77.2731C324.95 77.4851 324.813 77.6886 324.601 77.8838C324.4 78.0637 324.108 78.1834 323.726 78.2431C323.357 78.3007 323.043 78.2756 322.783 78.1677C322.534 78.0446 322.342 77.8925 322.206 77.7114C322.08 77.515 322.002 77.318 321.972 77.1204L320.351 77.3735ZM126.15 144.954L129.469 150.002L131.661 149.396L125.563 141.199L122.275 150.862L124.528 150.774L126.15 144.954ZM130.846 150.394L131.123 152.173L133.198 151.848L132.633 148.232L120.975 150.053L121.54 153.669L123.713 153.33L123.435 151.552L130.846 150.394ZM142.345 139.286L134.026 140.586L134.906 146.217C134.998 146.81 134.916 147.235 134.659 147.491C134.416 147.745 134.096 147.903 133.701 147.964L134.003 149.901C134.86 149.767 135.527 149.548 136.006 149.244C136.496 148.924 136.817 148.517 136.969 148.021C137.132 147.509 137.158 146.898 137.047 146.187L136.429 142.235L140.559 141.59L141.67 148.703L143.765 148.376L142.345 139.286ZM148.586 147.623L150.886 142.649L148.712 142.988L146.294 147.981L148.586 147.623ZM154.475 146.703L153.055 137.613L150.901 137.95L152.321 147.04L154.475 146.703ZM152.332 141.795L149.664 142.212C149.335 142.263 149.052 142.267 148.816 142.223C148.579 142.179 148.39 142.087 148.246 141.947C148.116 141.806 148.031 141.603 147.989 141.34C147.95 141.09 147.971 140.877 148.052 140.703C148.146 140.526 148.298 140.381 148.51 140.267C148.722 140.153 148.992 140.07 149.321 140.018L151.989 139.602L151.711 137.823L148.886 138.265C148.266 138.361 147.701 138.544 147.19 138.813C146.692 139.08 146.316 139.442 146.064 139.9C145.81 140.344 145.735 140.903 145.84 141.574C145.945 142.246 146.188 142.768 146.57 143.14C146.95 143.499 147.419 143.737 147.977 143.852C148.546 143.952 149.14 143.954 149.759 143.857L152.585 143.416L152.332 141.795ZM163.291 140.468L163.436 141.397L166.064 140.986C166.327 140.945 166.555 140.936 166.748 140.96C166.954 140.982 167.118 141.038 167.239 141.127C167.374 141.213 167.485 141.318 167.572 141.439C167.656 141.547 167.712 141.687 167.738 141.858C167.786 142.161 167.708 142.443 167.506 142.704C167.304 142.965 166.939 143.137 166.412 143.219L163.784 143.63L164.031 145.211L167.312 144.698C168.352 144.536 169.059 144.182 169.433 143.638C169.818 143.079 169.957 142.456 169.85 141.771C169.758 141.179 169.541 140.74 169.199 140.456C168.858 140.172 168.427 140.003 167.906 139.95C167.385 139.896 166.808 139.919 166.176 140.017L163.291 140.468ZM163.352 140.863L166.04 140.443C166.606 140.355 167.108 140.196 167.544 139.966C167.991 139.72 168.334 139.41 168.573 139.036C168.809 138.648 168.887 138.197 168.807 137.683C168.714 137.091 168.495 136.639 168.15 136.329C167.802 136.005 167.379 135.801 166.88 135.717C166.393 135.618 165.865 135.613 165.299 135.701L162.611 136.121L162.858 137.702L165.289 137.322C165.697 137.258 166.029 137.308 166.284 137.47C166.552 137.631 166.709 137.863 166.757 138.166C166.779 138.31 166.768 138.454 166.723 138.596C166.691 138.736 166.623 138.868 166.521 138.992C166.432 139.114 166.313 139.213 166.163 139.291C166.013 139.368 165.833 139.423 165.622 139.456L163.192 139.836L163.352 140.863ZM161.367 136.315L162.786 145.405L164.881 145.078L163.461 135.988L161.367 136.315ZM172.914 139.167C172.825 138.601 172.872 138.081 173.054 137.607C173.237 137.133 173.519 136.738 173.902 136.422C174.297 136.104 174.759 135.904 175.286 135.821C175.707 135.755 176.126 135.757 176.542 135.827C176.957 135.897 177.335 136.027 177.675 136.217C178.026 136.392 178.298 136.619 178.49 136.9L178.12 134.528C177.756 134.275 177.29 134.098 176.721 133.998C176.152 133.898 175.545 133.898 174.9 133.999C173.978 134.143 173.173 134.478 172.486 135.003C171.81 135.514 171.31 136.159 170.986 136.938C170.663 137.717 170.574 138.575 170.72 139.51C170.864 140.432 171.21 141.222 171.758 141.878C172.304 142.522 172.978 142.99 173.779 143.283C174.592 143.561 175.459 143.628 176.381 143.484C177.027 143.383 177.605 143.198 178.116 142.929C178.628 142.661 179.017 142.344 179.284 141.978L178.916 139.626C178.817 139.939 178.634 140.237 178.368 140.522C178.1 140.793 177.78 141.032 177.407 141.239C177.046 141.43 176.641 141.561 176.193 141.631C175.666 141.713 175.166 141.663 174.692 141.481C174.231 141.296 173.842 141.006 173.524 140.611C173.205 140.215 173.002 139.734 172.914 139.167ZM181.732 138.296L189.715 137.049C189.71 136.928 189.7 136.822 189.686 136.73C189.669 136.624 189.655 136.532 189.643 136.453C189.492 135.491 189.179 134.697 188.703 134.069C188.239 133.427 187.635 132.975 186.892 132.713C186.161 132.436 185.321 132.371 184.372 132.519C183.516 132.653 182.783 132.929 182.174 133.349C181.565 133.768 181.1 134.292 180.78 134.922C180.473 135.551 180.313 136.251 180.298 137.022C180.297 137.184 180.302 137.345 180.313 137.505C180.325 137.666 180.344 137.831 180.371 138.003C180.513 138.912 180.831 139.698 181.326 140.363C181.82 141.015 182.447 141.491 183.209 141.79C183.984 142.087 184.833 142.164 185.755 142.02C186.585 141.89 187.261 141.683 187.784 141.399C188.317 141.1 188.753 140.735 189.09 140.304C189.428 139.874 189.709 139.385 189.934 138.837L187.962 138.396C187.836 138.712 187.666 139.002 187.45 139.265C187.233 139.515 186.969 139.725 186.658 139.895C186.36 140.063 186.001 140.18 185.579 140.246C185.079 140.324 184.614 140.288 184.186 140.139C183.769 139.975 183.414 139.686 183.12 139.274C182.839 138.859 182.647 138.322 182.544 137.663L182.497 137.104C182.415 136.577 182.449 136.106 182.601 135.691C182.763 135.261 183.019 134.917 183.371 134.66C183.72 134.389 184.131 134.217 184.606 134.143C185.067 134.071 185.47 134.102 185.815 134.237C186.158 134.359 186.44 134.571 186.663 134.874C186.897 135.161 187.073 135.512 187.192 135.925L181.501 136.814L181.732 138.296ZM195.951 130.913L194.42 134.067L191.999 131.53L189.549 131.913L193.518 135.807L190.771 141.034L193.222 140.651L194.908 137.189L197.569 139.972L199.96 139.599L195.77 135.455L198.342 130.54L195.951 130.913ZM213.867 128.115L205.825 129.371L207.244 138.461L209.339 138.134L208.219 130.961L212.072 130.359L213.192 137.532L215.287 137.204L213.867 128.115ZM216.611 132.342C216.755 133.264 217.094 134.055 217.629 134.713C218.175 135.357 218.849 135.825 219.65 136.118C220.463 136.396 221.33 136.463 222.252 136.319C223.188 136.173 223.993 135.845 224.669 135.334C225.343 134.811 225.835 134.16 226.146 133.383C226.467 132.59 226.556 131.733 226.412 130.811C226.266 129.876 225.92 129.086 225.374 128.443C224.841 127.797 224.175 127.335 223.376 127.055C222.574 126.761 221.706 126.688 220.771 126.834C219.849 126.978 219.044 127.313 218.357 127.839C217.681 128.349 217.181 128.994 216.857 129.773C216.547 130.55 216.465 131.407 216.611 132.342ZM218.804 131.999C218.716 131.433 218.756 130.914 218.925 130.442C219.095 129.97 219.365 129.584 219.736 129.283C220.108 128.982 220.55 128.791 221.064 128.711C221.578 128.631 222.057 128.678 222.503 128.851C222.948 129.024 223.323 129.31 223.628 129.707C223.933 130.105 224.13 130.587 224.219 131.154C224.307 131.72 224.267 132.239 224.097 132.711C223.926 133.17 223.656 133.556 223.287 133.87C222.915 134.171 222.473 134.361 221.959 134.442C221.445 134.522 220.966 134.475 220.52 134.302C220.073 134.116 219.697 133.83 219.395 133.446C219.089 133.048 218.893 132.566 218.804 131.999ZM229.879 130.269C229.791 129.703 229.838 129.183 230.02 128.709C230.202 128.235 230.485 127.84 230.867 127.524C231.263 127.206 231.724 127.006 232.251 126.923C232.673 126.857 233.091 126.86 233.507 126.93C233.923 127 234.301 127.129 234.641 127.319C234.992 127.494 235.264 127.721 235.456 128.002L235.085 125.63C234.722 125.377 234.256 125.2 233.687 125.1C233.118 125 232.511 125 231.865 125.101C230.943 125.245 230.138 125.58 229.451 126.106C228.775 126.616 228.276 127.261 227.952 128.04C227.628 128.819 227.54 129.677 227.686 130.612C227.83 131.534 228.176 132.324 228.724 132.98C229.269 133.624 229.943 134.092 230.745 134.385C231.557 134.663 232.425 134.73 233.347 134.586C233.992 134.485 234.571 134.3 235.082 134.032C235.593 133.763 235.982 133.446 236.249 133.08L235.882 130.729C235.782 131.041 235.599 131.339 235.333 131.624C235.065 131.895 234.745 132.134 234.373 132.341C234.011 132.532 233.606 132.663 233.158 132.733C232.632 132.815 232.131 132.765 231.657 132.583C231.197 132.398 230.807 132.108 230.489 131.713C230.171 131.317 229.968 130.836 229.879 130.269ZM238.698 129.398L246.681 128.151C246.676 128.03 246.666 127.924 246.651 127.832C246.635 127.726 246.62 127.634 246.608 127.555C246.458 126.594 246.145 125.799 245.669 125.172C245.204 124.529 244.601 124.077 243.858 123.815C243.126 123.538 242.286 123.473 241.338 123.621C240.482 123.755 239.749 124.032 239.139 124.451C238.53 124.87 238.066 125.394 237.746 126.025C237.439 126.653 237.278 127.353 237.264 128.124C237.262 128.286 237.267 128.447 237.279 128.608C237.29 128.768 237.309 128.933 237.336 129.105C237.478 130.014 237.797 130.801 238.292 131.465C238.785 132.117 239.413 132.593 240.175 132.892C240.95 133.189 241.798 133.266 242.721 133.122C243.551 132.992 244.227 132.785 244.749 132.501C245.283 132.202 245.718 131.837 246.056 131.407C246.393 130.976 246.675 130.487 246.899 129.939L244.928 129.498C244.802 129.814 244.631 130.104 244.416 130.367C244.198 130.617 243.934 130.827 243.623 130.997C243.326 131.165 242.966 131.282 242.545 131.348C242.044 131.426 241.58 131.391 241.152 131.241C240.735 131.077 240.379 130.789 240.085 130.376C239.804 129.961 239.613 129.424 239.51 128.765L239.463 128.206C239.381 127.679 239.415 127.208 239.566 126.793C239.728 126.363 239.985 126.019 240.336 125.762C240.685 125.491 241.097 125.319 241.571 125.245C242.032 125.173 242.435 125.204 242.78 125.339C243.123 125.461 243.406 125.674 243.629 125.976C243.862 126.263 244.039 126.614 244.157 127.027L238.466 127.916L238.698 129.398ZM246.705 122.985L246.998 124.863L252.749 123.965L252.456 122.087L246.705 122.985ZM248.605 123.094L249.963 131.788L252.057 131.461L250.699 122.766L248.605 123.094ZM262.462 122.549L262.144 119.865L255.202 128.946L255.52 131.629L262.462 122.549ZM256.087 121.52L253.993 121.847L255.52 131.629L257.235 128.871L256.087 121.52ZM262.144 119.865L260.426 122.603L261.578 129.974L263.672 129.647L262.144 119.865ZM263.803 120.315L264.096 122.192L269.846 121.294L269.553 119.417L263.803 120.315ZM265.702 120.423L267.06 129.118L269.155 128.79L267.797 120.096L265.702 120.423ZM272.101 124.18L280.084 122.934C280.079 122.813 280.069 122.707 280.055 122.614C280.038 122.509 280.024 122.417 280.012 122.338C279.861 121.376 279.548 120.581 279.073 119.954C278.608 119.311 278.004 118.859 277.261 118.597C276.53 118.32 275.69 118.256 274.741 118.404C273.885 118.538 273.152 118.814 272.543 119.233C271.934 119.652 271.469 120.177 271.149 120.807C270.843 121.435 270.682 122.135 270.667 122.907C270.666 123.069 270.671 123.23 270.682 123.39C270.694 123.55 270.713 123.716 270.74 123.887C270.882 124.796 271.2 125.583 271.695 126.248C272.189 126.9 272.816 127.375 273.578 127.674C274.353 127.972 275.202 128.048 276.124 127.904C276.954 127.775 277.63 127.568 278.153 127.284C278.686 126.985 279.122 126.62 279.459 126.189C279.797 125.758 280.078 125.269 280.303 124.721L278.331 124.28C278.205 124.597 278.035 124.887 277.819 125.15C277.602 125.4 277.338 125.609 277.027 125.779C276.729 125.947 276.37 126.064 275.948 126.13C275.448 126.208 274.983 126.173 274.555 126.024C274.138 125.86 273.783 125.571 273.489 125.158C273.208 124.743 273.016 124.206 272.913 123.548L272.866 122.988C272.784 122.461 272.819 121.99 272.97 121.575C273.132 121.145 273.389 120.801 273.74 120.544C274.089 120.274 274.5 120.101 274.975 120.027C275.436 119.955 275.839 119.987 276.184 120.122C276.527 120.244 276.81 120.456 277.032 120.759C277.266 121.046 277.442 121.396 277.561 121.81L271.87 122.698L272.101 124.18ZM289.969 116.228L281.65 117.527L282.53 123.159C282.622 123.752 282.54 124.176 282.283 124.432C282.04 124.686 281.72 124.844 281.325 124.906L281.627 126.842C282.484 126.708 283.151 126.49 283.63 126.185C284.12 125.866 284.441 125.458 284.593 124.962C284.756 124.451 284.782 123.839 284.671 123.128L284.053 119.176L288.183 118.531L289.294 125.645L291.389 125.317L289.969 116.228ZM294.293 120.714L302.276 119.467C302.271 119.347 302.261 119.24 302.247 119.148C302.23 119.043 302.216 118.95 302.203 118.871C302.053 117.91 301.74 117.115 301.264 116.488C300.8 115.845 300.196 115.393 299.453 115.131C298.722 114.854 297.882 114.789 296.933 114.938C296.077 115.071 295.344 115.348 294.735 115.767C294.126 116.186 293.661 116.71 293.341 117.341C293.034 117.969 292.874 118.669 292.859 119.44C292.858 119.602 292.863 119.764 292.874 119.924C292.886 120.084 292.905 120.25 292.932 120.421C293.074 121.33 293.392 122.117 293.887 122.782C294.38 123.433 295.008 123.909 295.77 124.208C296.545 124.505 297.394 124.582 298.316 124.438C299.146 124.308 299.822 124.101 300.345 123.817C300.878 123.518 301.314 123.153 301.651 122.723C301.989 122.292 302.27 121.803 302.495 121.255L300.523 120.814C300.397 121.13 300.226 121.42 300.011 121.683C299.794 121.933 299.53 122.143 299.219 122.313C298.921 122.481 298.562 122.598 298.14 122.664C297.639 122.742 297.175 122.707 296.747 122.558C296.33 122.393 295.975 122.105 295.681 121.692C295.4 121.277 295.208 120.74 295.105 120.081L295.058 119.522C294.976 118.995 295.01 118.524 295.161 118.109C295.324 117.679 295.58 117.335 295.932 117.078C296.281 116.807 296.692 116.635 297.167 116.561C297.628 116.489 298.031 116.52 298.376 116.656C298.719 116.777 299.001 116.99 299.224 117.292C299.458 117.58 299.634 117.93 299.753 118.343L294.062 119.232L294.293 120.714ZM312.114 114.793L311.796 112.11L304.854 121.19L305.172 123.873L312.114 114.793ZM305.739 113.765L303.644 114.092L305.172 123.873L306.887 121.115L305.739 113.765ZM311.796 112.11L310.078 114.848L311.229 122.218L313.324 121.891L311.796 112.11ZM303.966 109.284C304.04 109.759 304.23 110.195 304.535 110.592C304.84 110.99 305.25 111.284 305.766 111.473C306.281 111.662 306.881 111.704 307.566 111.597C308.264 111.487 308.83 111.264 309.263 110.927C309.696 110.589 309.997 110.184 310.167 109.713C310.336 109.241 310.383 108.768 310.309 108.294L308.689 108.547C308.72 108.744 308.699 108.957 308.627 109.184C308.565 109.396 308.428 109.6 308.216 109.795C308.015 109.975 307.723 110.094 307.341 110.154C306.972 110.212 306.658 110.187 306.398 110.079C306.149 109.956 305.957 109.803 305.821 109.622C305.696 109.426 305.618 109.229 305.587 109.031L303.966 109.284ZM314.413 107.551L316.41 117.098L318.09 116.835L317.081 107.135L314.413 107.551ZM316.363 120.425C316.421 120.794 316.602 121.089 316.907 121.311C317.224 121.532 317.581 121.611 317.976 121.549C318.371 121.488 318.68 121.304 318.902 121C319.138 120.693 319.227 120.355 319.169 119.986C319.109 119.604 318.922 119.31 318.606 119.103C318.303 118.894 317.955 118.82 317.559 118.882C317.164 118.943 316.848 119.121 316.61 119.414C316.386 119.706 316.303 120.043 316.363 120.425Z" fill="white"/>
</svg>
