<svg xmlns="http://www.w3.org/2000/svg" xmlns:xlink="http://www.w3.org/1999/xlink" width="1057" height="1007" fill="none" xmlns:v="https://vecta.io/nano"><style><![CDATA[.B{fill:#ff6940}.C{stroke-miterlimit:10}.D{stroke-linejoin:round}.E{stroke:#472a1c}.F{fill:#2d1a14}.G{stroke-linecap:round}.H{fill:#1d0e21}.I{stroke-width:.598}]]></style><path fill-rule="evenodd" d="M558.547 13.681c83.455 12.845 157.129 53.466 223.203 106.031 63.448 50.475 104.599 117.404 145.583 187.352 53.514 91.331 136.857 176.001 129.167 281.571-8.31 114.264-78.165 221.006-170.672 288.614-92.643 67.707-214.312 95.474-327.281 75.315-103.966-18.553-162.486-122.913-252.144-178.713C206.121 711.439 32.449 721.676 3.564 607.16-25.923 490.253 135.697 415.038 188.565 306.676c41.864-85.806 15.711-205.046 90.563-264.323C354.365-17.228 463.687-.919 558.547 13.681z" fill="#ffe03c"/><path d="M92.296 478.63c12.483-78.797 51.961-148.358 103.045-210.744 49.054-59.907 114.099-98.76 182.078-137.457C466.179 79.903 548.465 1.213 651.062 8.468c111.047 7.853 214.784 73.805 280.489 161.15 65.801 87.471 92.789 202.349 73.199 309.012-18.035 98.163-119.457 153.417-173.686 238.07-60.655 94.684-50.706 258.662-161.998 285.93-113.616 27.85-186.713-124.752-292.024-174.67-83.39-39.527-199.274-14.834-256.882-85.508-57.903-71.037-42.053-174.256-27.864-263.822z" stroke="#000" stroke-width=".291"/><path d="M783.466 116.858c0-26.25-28.738-47.521-64.265-47.521s-64.266 21.271-64.266 47.521 28.739 47.52 64.266 47.52c3.621 0 7.015-.226 10.409-.679 2.263 2.942 4.752 5.657 7.694 7.92 7.467 5.657 16.971 8.825 26.475 8.373-5.657-3.847-8.372-9.957-10.182-16.745-.453-2.037-.679-4.074-.906-6.11 18.782-8.373 30.775-23.308 30.775-40.279z" fill="#f9a832"/><path d="M736.625 79.52c0-26.249-28.738-47.52-64.265-47.52s-64.266 21.271-64.266 47.52 28.738 47.521 64.266 47.521c3.62 0 7.014-.227 10.409-.679 2.263 2.941 4.752 5.657 7.693 7.92 7.468 5.657 16.972 8.825 26.476 8.372-5.657-3.846-8.373-9.956-10.183-16.745-.452-2.036-.679-4.073-.905-6.11 18.556-8.372 30.775-23.307 30.775-40.279z" stroke-width=".469" class="C D E"/><g fill="#472a1c"><use xlink:href="#B"/><use xlink:href="#B" x="22.176"/><path d="M698.609 83.593c2.499 0 4.526-2.026 4.526-4.526s-2.027-4.526-4.526-4.526-4.526 2.026-4.526 4.526 2.026 4.526 4.526 4.526z"/></g><g class="B"><path d="M715.128 256.929L671.454 361.7l15.162-14.256-97.53 59.514c-7.241 3.62-3.847 1.584 0 8.825 3.168 5.883 9.73 8.825 16.066 7.467l98.661-28.512c6.563-1.357 11.541-5.657 14.03-11.314l1.132-2.942 43.673-104.771c5.431-12.898-.905-27.381-14.03-32.811-13.124-4.979-28.059 1.131-33.49 14.029z"/><path d="M565.778 394.059c-1.584 2.942 12.899 11.315 12.899 11.315s-32.133 5.431-31.907 9.73c0 .226 0 .226.226.453 1.132.452 2.037.679 3.168 1.131 6.789.679 21.724-2.489 21.724-2.489s-4.978 1.358-10.636 3.394c3.847.679 7.694 2.037 11.089 3.847.678-.226 1.131-.452 1.131-.452s-.453.226-1.131.452c5.204 2.716 9.956 6.11 14.708 9.73 9.504-3.846 18.329-7.92 18.329-7.92l-6.109-18.329c.226.226-31.002-16.066-33.491-10.862z"/><path d="M567.815 425.74c-1.132 2.262 0 4.978 1.81 6.336 1.81 1.584 4.3 2.036 6.789 2.036 5.431.227 10.861-1.584 14.935-4.978 2.941-2.263 5.431-5.884 4.299-9.278-.905-2.942-3.847-4.752-6.562-5.883-6.789-2.942-20.366-6.789-26.928-1.811-5.658 4.526-2.037 17.651 5.657 13.578zm165.868 364.774c1.811 11.994-4.299 24.892-14.256 30.549-6.788 3.847-14.482 4.3-21.95 6.563-14.256 4.299-26.702 15.387-33.49 29.643h96.624v-67.886l-26.928 1.131z"/></g><path d="M697.704 827.625c7.241-2.262 15.161-2.715 21.949-6.562 5.658-3.168 10.183-9.051 12.446-15.614 1.811 2.942 3.847 6.11 5.884 8.826s4.299 5.43 7.015 7.241 6.109 2.489 9.277 2.036c2.49-.452 4.526-1.584 6.563-2.941v36.658h-96.625c6.789-14.256 19.235-25.344 33.491-29.644z" fill="#914b29"/><path d="M666.476 862.926h93.683c2.715 0 4.978-2.263 4.978-4.978v-.453c0-2.715-2.263-4.978-4.978-4.978h-93.683c-2.715 0-4.978 2.263-4.978 4.978v.453c0 2.715 2.263 4.978 4.978 4.978zm69.696-37.111c.906-1.131.906-2.942 0-4.073l-14.708-15.84c-.905-1.132-2.716-1.132-3.621 0s-.905 2.942 0 4.073l14.709 15.84c.905 1.132 2.715 1.132 3.62 0zm-9.503 7.241c.905-1.131.905-2.941 0-4.073l-14.709-15.84a2.36 2.36 0 0 0-3.621 0c-.905 1.132-.905 2.942 0 4.073l14.709 15.84c.905 1.132 2.715 1.132 3.621 0z" fill="#4a1801"/><path d="M840.943 786.668c-1.81 11.993 4.3 24.891 14.256 30.548 6.789 3.847 14.483 4.3 21.95 6.563 14.256 4.299 26.702 15.387 33.491 29.643h-96.625v-67.886l26.928 1.132z" class="B"/><path d="M877.149 823.779c-7.241-2.263-15.161-2.716-21.95-6.563-5.657-3.168-10.182-9.051-12.445-15.614-1.811 2.942-3.847 6.11-5.884 8.826s-4.299 5.431-7.015 7.241-6.109 2.489-9.277 2.036c-2.49-.452-4.526-1.584-6.563-2.941v36.658h96.625c-6.789-14.256-19.235-25.344-33.491-29.643z" fill="#914b29"/><path d="M908.151 859.08h-93.683c-2.716 0-4.978-2.263-4.978-4.979v-.452c0-2.716 2.262-4.979 4.978-4.979h93.683c2.715 0 4.978 2.263 4.978 4.979v.452c0 2.716-2.263 4.979-4.978 4.979zm-69.697-37.112c-.905-1.131-.905-2.941 0-4.073l14.709-15.84a2.36 2.36 0 0 1 3.621 0c.905 1.131.905 2.942 0 4.073l-14.709 15.84c-.905 1.132-2.715 1.132-3.621 0zm9.504 7.242c-.905-1.132-.905-2.942 0-4.074l14.709-15.84a2.36 2.36 0 0 1 3.621 0c.905 1.132.905 2.942 0 4.073l-14.709 15.841a2.36 2.36 0 0 1-3.621 0z" fill="#4a1801"/><g class="H"><path d="M810.621 510.824l-30.096-1.584c-23.987-1.358-42.542-21.95-41.184-45.937l4.752-85.084c1.357-23.986 21.949-42.542 45.936-41.184l30.096 1.584c23.986 1.358 42.542 21.95 41.184 45.936l-4.752 85.084c-1.357 24.213-21.95 42.542-45.936 41.185z"/><path d="M762.422 798.435c5.883-35.98 34.848-310.014 34.848-346.446l-54.988-35.301c-7.467 45.484-8.372 340.562-8.372 381.068l28.512.679zM850.9 635.96c2.942-42.542 8.146-175.598 8.599-214.52l-58.609 20.819c-2.941 39.6 4.752 154.327 8.826 193.701H850.9z"/></g><path d="M816.278 505.619c-11.088 5.204-23.081 6.788-35.074 4.526-1.584-.227-.906-2.49.678-2.263 11.541 2.036 22.629.679 33.265-4.3 1.357-.679 2.489 1.358 1.131 2.037z" fill="#5037d6"/><path d="M801.796 513.539l10.183 288.516 33.038-3.62 12.445-310.014-55.666 25.118z" class="H"/><path d="M817.41 183.386c-.906 5.205 0 21.724-.227 27.154-.226 7.921-.452 15.614 5.205 21.498-3.394 4.752-8.599 8.599-14.483 10.183-5.657 1.357-11.993.905-17.197-1.584-1.358-.679-2.942-1.584-4.3-2.263-1.584-.905-3.394-2.037-4.978-2.942 7.241-12.672 13.577-26.476 11.541-40.958 3.62-.679 8.825-2.263 12.445-2.942 1.584-.226 3.168-.678 4.752-.452 2.942-.453 4.752-7.241 7.242-7.694z" class="B"/><path d="M793.197 205.11c.453-3.621.453-7.242 0-11.088 3.621-.679 8.825-2.263 12.446-2.942 1.584-.226 3.168-.679 4.752-.453h.226c-4.299 6.11-10.409 10.862-17.424 14.483z" class="F"/><path d="M729.384 341.561l1.584 22.628 1.584 15.162c1.584 8.146 3.394 16.066 5.205 24.212.905 2.942 1.584 6.11 2.489 9.052l2.715 11.541c.453.905 1.132 1.584 1.81 2.262.227.453.679.679 1.132 1.132 1.358 1.131 3.394 1.81 4.978 2.263 2.037.679 4.073 1.357 6.11 1.81 5.431 1.358 11.088 2.037 16.745 2.489 5.884.453 11.993.679 17.877.679h9.051c8.826-.226 17.425-.679 26.023-1.131 1.811 0 24.439-2.716 32.133-3.621.905 0 1.584-.226 2.037-.226h.226.453c.452-7.92 1.81-17.198 3.168-26.928 1.131-7.694 2.489-15.614 4.073-23.761.452-2.036.905-4.299 1.131-6.336l8.373-43.899 2.489-13.804c.226-.679.226-1.358.453-2.263v-.226c2.715-15.84 8.599-35.753 5.431-51.594-2.263-11.314-13.804-17.876-23.987-22.402 0 0-.226 0-.226-.226l-3.395-1.358c-6.788-2.942-14.256-4.299-21.949-4.978-1.584-.227-2.942-.227-4.526-.227h-.226c-3.395-.226-6.789-.226-10.183-.226h-3.621c-12.219.453-24.439 1.81-36.432 2.489-2.037.227-3.847.227-5.884.453-1.584 0-2.941.226-4.299.226h-1.131-.453-1.358-2.263c-3.62.226-7.015.226-10.183.905-3.62 1.584-7.467 3.168-10.861 5.205-2.263 1.358-4.526 2.942-6.11 5.205-1.81 2.489-3.168 5.43-4.073 8.372-2.037 6.336-3.168 12.899-3.847 19.461-.905 7.241-1.81 14.256-2.263 21.497-.905 15.388-.679 30.775 0 46.163z" fill="#5231fd"/><path d="M810.847 506.298l12.899 294.173m-37.112-289.648l-31.227 287.611" stroke="#5037d6" stroke-width=".884" class="C D G"/><path d="M784.598 184.517v.453.226.227.452.227c0 .226 0 .452.226.678 0 .227 0 .453.227.679v.227s0-.001 0 .226.226.452.226.679c.226.452.226.905.452 1.357 0 .227 0 .227.227.453.452 1.131 1.131 2.037 1.584 2.942.226.226.226.452.452.679l.227.226.452.452 1.132 1.132c.226.226.452.226.452.452.679.679 1.584 1.132 2.489 1.584.679.453 1.358.679 2.037.906.226 0 .226 0 .452.226h.227.226.226c.227 0 .453 0 .453.226 1.131.226 2.263.453 3.394.453h.679c2.942-.227 5.431-1.132 7.694-2.489 4.299-2.716 7.015-7.694 7.241-13.125v-3.847-11.088-3.394-4.752-.679-.453-.226-.226-.227-.226-.226-.227-.226-.226c0-.226 0-.453-.226-.679v-.453-.226-.226-.226-.227-.226c0-.226-.227-.453-.227-.679v-.226c0-.226-.226-.226-.226-.453v-.226c0-.226-.226-.453-.226-.453-2.716-4.978-7.694-8.372-13.577-8.372-6.563 0-12.22 4.073-14.709 9.956-.679 1.811-1.131 3.621-1.131 5.658l-.227 23.081c-.226 0-.226.226-.226.452z" class="B"/><path d="M794.328 179.087c5.205-.453 9.957 1.81 14.483 4.073.905.679 2.036 1.131 3.168 1.357 1.131.453 2.489.679 3.846.679-.452 4.979-3.168 9.278-7.014 11.994-2.263 1.584-4.979 2.489-7.694 2.489h-.679c-1.131 0-2.263-.227-3.394-.453-.227 0-.453 0-.453-.226h-.226-.226-.227c-.226 0-.226 0-.452-.226-.679-.227-1.358-.679-2.037-.906-.905-.452-1.584-1.131-2.489-1.584-.226-.226-.453-.226-.453-.452l-1.131-1.132-.453-.452-.226-.226c-.226-.227-.226-.453-.452-.679-.679-.905-1.132-1.811-1.585-2.942 0 0 0-.226-.226-.453-.226-.452-.452-.905-.452-1.357 0-.227-.227-.453-.227-.679v-.226-.227c0-.226 0-.452-.226-.679 0-.226 0-.452-.226-.678v-.227-.452-.227-.226-.453-.905-.226c2.036-2.263 5.204-4.073 9.051-4.299z" class="F"/><path d="M829.403 178.86c0 4.526-3.621 7.92-7.92 7.92s-7.92-3.62-7.92-8.146 3.62-7.92 7.92-7.92c4.299.226 7.92 3.847 7.92 8.146z" class="B"/><g class="F"><path d="M787.087 151.027c2.037-2.942 4.978-4.978 8.146-6.11 2.942-1.131 6.11-1.584 9.052-.905s5.883 2.263 7.694 4.752c-.227-.452 0-.679.226-.679 1.131 1.358 2.037 2.716 3.168 4.3 0 .226.226.226.226.452l.679 3.621v16.519l.226.226c-1.357 2.037-2.715 3.847-3.847 6.11v-11.541c-1.357-1.81-2.489-4.073-2.941-6.336v-.226c-3.847 1.358-8.147-.453-11.767-2.037-3.621 2.263-9.278 3.621-13.125 1.358-.679-3.168.226-6.789 2.263-9.504z"/><path d="M810.621 160.531c2.715 0 4.752-2.037 4.752-4.752v-3.394c0-2.716-2.037-4.752-4.752-4.752s-4.752 2.036-4.752 4.752v3.394c0 2.489 2.036 4.752 4.752 4.752z"/><path d="M809.037 148.312c1.358-1.358 3.621-1.358 5.205-.227s2.489 2.942 2.715 4.752 0 3.847-.226 5.658l-1.358 11.314c-.453-7.92-2.942-14.709-6.336-21.497z"/></g><g stroke-width=".258" class="C D E G"><path d="M811.526 148.312c-.679-3.168-3.168-5.884-6.11-7.015"/><path d="M816.731 145.822c-2.716-.678-5.657.679-6.789 3.168"/></g><path d="M802.248 182.028c0 2.942-2.489 5.431-5.43 5.431s-5.431-2.489-5.431-5.431h10.861z" fill="#fff8f3"/><path d="M855.199 469.413c-1.584 8.373-3.394 34.848.453 42.316-2.489 18.329-1.358 19.46-3.847 37.79-15.161-11.315-24.665-30.323-24.439-49.105s9.957-37.563 25.118-48.425l2.715 17.424z" class="H"/><path d="M812.657 803.186h32.812a8.146 8.146 0 1 0 0-16.292h-32.812a8.11 8.11 0 0 0-8.146 8.146c0 4.3 3.621 8.146 8.146 8.146zm-81.237-2.262h32.812a8.147 8.147 0 1 0 0-16.293H731.42a8.147 8.147 0 1 0 0 16.293z" fill="#5433f6"/><g class="B"><path d="M887.559 432.528l-83.5-72.412c-9.731-6.788-14.709-7.693-8.147-17.424 6.789-9.73 7.242-9.956 16.746-3.168l55.893 27.607c-1.132-6.336-2.49-12.898-3.847-19.234l-9.278-49.104-2.942-16.519c-1.584-8.373-2.942-17.198 4.978-25.118 8.373-8.373 21.95-8.373 30.323 0 3.847 3.847 5.883 8.825 6.11 13.803 1.584 10.409 16.971 90.515 26.702 139.846 1.584 8.599-2.037 17.198-9.278 21.95-3.621 2.262-7.694 3.394-11.767 3.394-4.073.226-8.373-1.132-11.993-3.621zm.226-145.05h0 0zm6.336-12.898c0-.905.226-1.584.226-2.263-.226.905-.226 1.584-.226 2.263z"/><path d="M754.502 337.261c0 3.621 3.394 7.694 5.431 9.957 3.62 4.299 8.599 7.467 14.029 8.599 9.278 2.037 19.009-.453 27.381-4.978 3.621-2.037 5.205-7.92 6.562-11.767-.905-3.621-3.846-5.884-7.241-7.468s-7.241-1.81-10.861-2.263c-2.037-.226-4.074-.226-6.11-.452-2.263-.227-3.621 2.263-2.263 4.073 1.358 1.584 2.942 2.715 5.205 2.942.905.226 2.036 0 2.941.452s1.811 1.132 1.811 2.263c0 .905-.679 1.584-1.358 2.263-2.037 1.584-4.526 2.489-7.015 2.489-7.694 0-11.088-6.562-16.519-10.635-.905-.679-2.263-1.358-3.394-1.358-1.358.226-2.489 1.358-2.037 2.489-.226-.226-.226.453 0 .226l-2.942-.452c-1.584 0-2.941.226-3.394 1.81 0 .679-.226 1.358-.226 1.81z"/></g><path d="M912.677 298.566c-14.935 19.008-39.374 29.87-63.361 28.512-7.92-13.351-12.672-30.775-14.03-46.388-.905-9.505-.226-19.687 5.431-27.381 6.789-9.278 19.914-12.446 31.228-9.504 11.088 2.941 20.366 11.314 26.702 20.818 6.336 9.957 10.183 23.081 14.03 33.943zm-149.124-61.55c-15.614-4.752-33.49-1.584-46.389 8.373-16.292 12.446-23.76 33.038-30.548 52.498 18.103 11.767 38.016 14.935 59.513 12.673l17.424-73.544z" fill="#5231fd"/><path d="M801.569 177.503c3.875 0 7.015-3.141 7.015-7.015s-3.14-7.015-7.015-7.015-7.015 3.14-7.015 7.015 3.141 7.015 7.015 7.015zm-21.27-7.015c0 3.847 3.168 7.015 7.014 7.015s7.015-3.168 7.015-7.015-3.168-7.015-7.015-7.015c-3.846-.227-7.014 2.942-7.014 7.015z" stroke="#ff9e00" stroke-width=".485" class="C D"/><g class="F"><path d="M816.731 172.751c2.489-5.658 4.073-11.994 4.752-18.103.452-3.168.452-6.789-1.358-9.504s-5.884-4.074-8.373-2.037c-.905-4.978-6.562-7.468-11.54-7.241s-9.504 2.715-13.804 5.204-8.825 5.205-13.803 5.658c-6.336.678-12.672-2.716-15.84-8.147-2.037 5.431-.679 13.125 3.62 17.198s11.088 4.978 16.519 2.489c.226 2.489 3.847 5.205 6.336 5.205s4.752-1.358 6.562-3.168c1.584-1.811 2.716-4.3 3.621-6.563 5.205 3.168 9.957 3.847 15.614 1.358-3.168 2.263.679 9.052 3.394 11.993.905.906-.452 10.862.226 11.994.906 1.131 4.526-7.468 4.074-6.336z"/><path d="M813.789 169.809c-4.978 4.299-7.015 11.767-4.752 18.103 2.489-.679 4.526-.905 6.562-2.489-.226-6.11 0-12.899.453-19.008"/></g><path d="M887.559 251.272c-12.22 21.497-38.243 34.396-62.908 31.002s-46.163-22.855-52.046-47.068m-42.316 122.195c14.03.905 24.665 12.898 33.038 24.439 8.146 11.541 16.972 24.213 30.322 28.512 6.337 2.037 13.125 1.81 19.687 2.037s13.351 1.131 19.009 4.525c5.657 3.621 9.504 10.41 7.467 16.746m-83.726-199.133c-2.716 14.256-11.541 30.322-22.855 39.6s-28.286 16.067-42.995 15.84m187.819 32.586c-8.599-5.431-16.067-12.22-25.345-16.067s-21.271-4.073-28.286 3.395c-4.073 4.299-5.883 10.635-5.883 16.519s1.584 11.766 3.168 17.65" stroke="#f4d0b8" stroke-width=".442" class="C D G"/><path d="M388.25 150.567c12.153-.675 24.08 9.001 25.655 21.154 1.125 7.876-1.35 17.328 4.276 22.954 4.726 4.951 13.052 4.276 18.678 8.327 6.302 4.726 6.077 15.978-.675 20.479H315.112c-3.826-3.151-2.926-12.378-.676-16.654s6.302-7.426 10.127-10.352c3.826-3.15 7.652-6.526 9.227-11.027 2.025-5.401.45-11.702 1.575-17.328 2.251-9.452 13.503-15.528 22.73-12.152 5.176-7.652 20.704-4.951 30.155-5.401z" class="F"/><path d="M387.35 448.298l62.337-8.552c20.254-2.7 34.431-22.279 31.731-43.208l-.675-126.249c-1.801-26.78-21.829-35.781-42.083-33.081l-101.269 13.953c-20.254 2.7-34.432 22.279-31.731 43.208l39.607 121.073c2.926 20.704 21.829 35.556 42.083 32.856z" fill="#867fdb"/><path d="M480.068 320.249l1.35-4.276-1.35 4.276z" fill="#ffbf80"/><path d="M347.068 798.914c0-35.107 4.951-339.589 6.301-371.545l48.159 25.88c.45 31.281-29.03 314.159-32.856 344.99l-21.604.675z" fill="#5433f6"/><g class="B"><path d="M356.519 251.611c10.352-6.526 15.978-39.833 13.053-51.76l22.279.225c-2.926 16.203 5.401 31.056 10.352 37.807 2.7 3.601 7.651 5.851 11.927 6.751-5.626 8.327-13.502 12.828-23.629 13.503-9.902 1.125-27.005.9-33.982-6.526z"/><path d="M385.55 208.403c8.552-1.125 14.628-8.552 13.502-16.653l-2.7-21.154c-1.125-8.102-8.777-13.728-17.328-12.603s-14.628 8.552-13.503 16.653l2.701 21.154c.9 8.102 8.776 13.728 17.328 12.603z"/></g><path d="M475.117 787.662c2.7 10.802 7.201 28.58 13.727 34.431 11.252 9.902 26.33 15.078 41.408 15.978 6.976.45 14.178 0 20.704 2.025 6.751 2.026 12.827 7.427 13.277 14.403h-108.02l-1.8-66.837h20.704zm-125.124 0c-2.7 10.802-7.201 28.58-13.727 34.431-11.253 9.902-26.33 15.078-41.408 15.978-6.977.45-14.178 0-20.704 2.025-6.751 2.026-12.828 7.427-13.278 14.403h108.246l1.8-66.837h-20.929z" class="H"/><path d="M391.401 191.299v.451c.45 2.7-1.575 5.401-4.276 5.851s-5.401-1.576-5.851-4.276v-.45l10.127-1.576z" fill="#fff"/><path d="M354.719 190.399c.45 4.051 4.276 6.752 8.327 6.301s6.751-4.275 6.301-8.326-4.276-6.751-8.327-6.301c-3.825.45-6.751 4.276-6.301 8.326z" class="B"/><path d="M459.814 859h104.645c1.8 0 3.375-1.575 3.375-3.376s-1.575-3.375-3.375-3.375H459.814c-1.8 0-3.376 1.575-3.376 3.375s1.576 3.376 3.376 3.376zm-195.337 0h104.645c1.8 0 3.375-1.575 3.375-3.376s-1.575-3.375-3.375-3.375H264.477c-1.8 0-3.376 1.575-3.376 3.375s1.576 3.376 3.376 3.376z" class="H"/><path d="M454.638 793.062h20.254c2.475 0 4.276-2.025 4.276-4.275 0-2.476-2.026-4.276-4.276-4.276h-20.254c-2.475 0-4.276 2.025-4.276 4.276s2.026 4.275 4.276 4.275zm-105.995 1.576h20.254c2.475 0 4.275-2.026 4.275-4.276 0-2.475-2.025-4.276-4.275-4.276h-20.254c-2.476 0-4.276 2.026-4.276 4.276s1.8 4.276 4.276 4.276z" fill="#ff9e00"/><path d="M474.216 244.409l98.344 87.317-32.856 7.201 68.863-123.998c1.8-3.376 6.076-4.726 9.677-2.701 2.925 1.576 4.275 5.176 3.375 8.327L577.961 355.58c-3.376 10.127-14.178 15.753-24.53 12.378-2.7-.901-4.951-2.251-6.976-4.051l-1.35-1.35-97.444-88.217c-8.326-7.426-9.001-20.254-1.35-28.58 6.977-7.877 19.804-8.552 27.905-1.351zm-135.475 48.385L272.354 406.44l-1.126 1.8c-6.526 11.027-20.704 14.853-31.731 8.327-3.375-2.026-6.076-4.726-8.101-7.877l-75.164-121.072c-2.026-3.376-1.125-7.652 2.25-9.677 2.701-1.801 6.301-1.35 8.552.9l103.744 98.118-40.732 2.476 74.939-108.245c6.301-9.227 18.903-11.478 28.13-5.176 8.327 6.076 10.802 17.778 5.626 26.78z" class="B"/><path d="M537.228 283.792c-7.876 35.557-30.155 67.738-60.536 87.766-17.553-27.905-34.656-63.687-40.733-96.093-1.8-10.352-2.7-22.504 4.501-30.155 8.777-9.227 24.08-6.752 36.232-2.476 22.279 7.877 42.533 25.655 60.536 40.958zm-211.314-28.806c14.402-3.6 29.255 8.327 33.531 22.505s.675 29.705-4.501 43.658c-9.452 26.105-24.079 50.409-42.533 71.338-20.929-19.128-42.758-40.732-56.71-65.262 8.101-34.431 36.006-63.462 70.213-72.239z" fill="#867fdb"/><g class="C D E I"><path d="M339.641 250.036c-1.8 13.277 8.102 27.005 21.154 29.48s29.481-7.876 32.631-20.704c4.276 11.252 19.129 16.878 29.706 11.252s14.178-21.379 7.201-31.056" class="G"/><path d="M404.453 305.621a6.53 6.53 0 0 0 6.527-6.526c0-3.605-2.922-6.526-6.527-6.526s-6.526 2.921-6.526 6.526a6.53 6.53 0 0 0 6.526 6.526zm8.777 39.157c0 3.601 2.926 6.527 6.526 6.527s6.527-2.926 6.527-6.527-2.926-6.526-6.527-6.526-6.526 2.926-6.526 6.526zm9.902 52.435a6.53 6.53 0 0 0 6.526 6.526 6.53 6.53 0 0 0 6.526-6.526 6.53 6.53 0 0 0-6.526-6.526 6.53 6.53 0 0 0-6.526 6.526z"/></g><path d="M405.579 170.145c-6.301 6.752-15.528 10.577-24.755 10.803s-18.453-3.601-24.98-10.127c3.826-11.703 13.503-22.28 25.88-21.604s21.154 9.001 23.855 20.928z" class="F"/><path d="M318.037 705.296c5.176-19.579 18.904-37.582 17.329-58.061-1.576-20.704-18.904-38.032-18.904-58.511 0-20.704 17.103-37.132 22.504-57.161 4.726-17.553 0-36.006-1.575-54.235-1.575-15.753 0-33.531 9.902-45.233-.675-1.125-1.125-2.701-1.125-4.051 0-4.726 3.825-8.777 8.776-8.777h117.247c4.726 0 8.777 3.826 8.777 8.777 0 1.35-.45 2.7-.9 3.826 10.802 11.702 12.602 30.155 11.027 46.358-1.801 18.229-6.301 36.682-1.576 54.236 5.402 19.803 22.505 36.456 22.505 57.16s-17.329 38.032-18.904 58.511c-1.575 20.254 12.152 38.257 17.328 58.061 4.726 18.004 2.026 37.582-7.426 53.56-6.526 11.027-16.203 20.029-27.23 26.105v2.926h-21.154l-1.575-15.753c-15.753-15.978-23.18-40.733-24.305-63.912-1.35-30.606 5.401-61.437 2.926-92.042-1.576-18.229-6.302-36.007-8.552-54.011-1.575-13.052-2.025-26.555.9-39.157h-22.729c-1.575 0-2.926 0-4.501-.225 2.25 10.127 2.476 20.704 2.025 31.056-.9 18.228-4.275 36.457-4.275 54.685 0 30.606 9.226 60.761 10.352 91.367 1.125 29.706-8.327 63.012-33.757 78.315v11.927h-2.025-.225-21.154v-9.452c-9.002-5.851-16.428-13.727-21.829-22.729-9.902-15.753-12.603-35.557-7.877-53.56z" fill="#ff9e00"/><path d="M602.941 233.607c-2.476-3.825.9-15.978 2.7-20.028 1.801-4.276 5.176-7.652 8.552-10.802 2.7-2.701 5.626-5.176 7.876-8.102 1.351-1.8 4.501-1.125 4.726 1.35v.675c-.45 1.801-1.8 3.376-3.15 4.501-1.576 1.351-3.376 2.701-4.276 4.726-.45.9-.675 1.801-.225 2.701.9 2.25 3.6 2.025 5.626 1.35 6.301-2.25 10.352-8.102 14.178-13.728l5.851-8.776a8.23 8.23 0 0 1 6.076-3.601c1.35-.225 2.25.9 2.25 2.025 0 11.253-3.375 22.955-11.027 31.056-8.101 8.777-27.23 16.203-39.157 16.653z" class="B"/><path d="M649.299 187.924c-3.825 4.051-6.076 9.677-5.851 15.303-4.726 1.575-7.876 6.526-8.101 11.702-4.726-1.35-10.802 0-14.853 2.925" class="C D E G I"/><path d="M170.184 293.919c2.476-3.826-.9-15.978-2.7-20.029-1.8-4.276-5.176-7.651-8.552-10.802-2.7-2.701-5.626-5.176-7.876-8.102-1.35-1.8-4.501-1.125-4.726 1.351v.675c.45 1.8 1.8 3.375 3.151 4.501 1.575 1.35 3.375 2.7 4.275 4.726.45.9.675 1.8.225 2.7-.9 2.25-3.6 2.025-5.626 1.35-6.301-2.25-10.352-8.101-14.177-13.727l-5.851-8.777c-1.351-2.025-3.601-3.376-6.077-3.601-1.35-.225-2.25.901-2.25 2.026 0 11.252 3.376 22.954 11.027 31.056 8.102 8.776 27.23 16.203 39.157 16.653z" class="B"/><g class="C D E G"><path d="M123.826 248.46c3.825 4.051 6.076 9.677 5.851 15.303 4.726 1.575 7.876 6.526 8.101 11.702 4.726-1.35 10.802 0 14.853 2.926" class="I"/><path d="M439.335 423.993c-.225 8.327-6.526 16.203-14.853 18.004v62.111m-55.585-67.738c1.35 21.154-5.176 42.533-18.004 59.412m110.046-56.486c-.675 16.878 8.327 45.234 20.254 57.386m-48.609 25.88c4.276 4.501 5.176 11.027 4.951 17.328-.45 6.076-1.801 12.152-1.576 18.453.901 18.004 16.654 33.082 15.978 51.085-.45 12.602-9.001 24.08-9.226 36.682 0 10.802 6.076 20.704 10.352 30.606 10.577 24.079 11.252 52.209 2.025 76.964m-73.139-228.193c-6.751 5.626-8.101 15.528-6.976 24.305s3.826 17.103 3.826 25.88c-.45 20.254-17.104 38.932-12.153 58.511 2.476 9.902 10.127 18.003 13.053 27.905 3.825 13.953-2.701 28.355-6.977 42.083s-5.401 31.281 5.626 40.282m123.324-438.832c-1.35 22.954-9.002 45.458-22.054 64.362m-191.512-58.961c6.977 23.179 22.505 43.658 42.758 56.711" stroke-width=".495"/></g><path d="M490.651 94.682h77.39c9.957 0 18.103 8.146 18.103 18.103v36.432c0 9.956-8.146 18.103-18.103 18.103h-49.556c-2.942 5.431-6.789 10.183-11.541 13.803-7.92 6.336-18.103 9.731-28.286 9.731 6.789-5.884 11.767-14.483 13.351-23.534h-1.358c-9.956 0-18.103-8.147-18.103-18.103v-36.432c0-9.957 8.147-18.103 18.103-18.103z" fill="#c8c7f9"/><path d="M443.131 67.301h85.536c10.862 0 19.914 9.052 19.914 19.913v40.505c0 10.862-9.052 19.914-19.914 19.914h-54.761c-3.168 5.883-7.468 11.314-12.898 15.387-8.826 7.015-20.14 10.862-31.228 10.636 7.467-6.563 13.125-16.067 14.709-26.023h-1.358c-10.862 0-19.913-9.052-19.913-19.914V87.214c0-10.862 8.825-19.913 19.913-19.913z" stroke-width=".5" class="C D E"/><path d="M468.249 111.879c0 2.716-2.263 4.752-4.752 4.752-2.716 0-4.752-2.262-4.752-4.752 0-2.715 2.262-4.752 4.752-4.752 2.715 0 4.752 2.037 4.752 4.752zm23.533 0c0 2.716-2.262 4.752-4.752 4.752-2.715 0-4.752-2.262-4.752-4.752 0-2.715 2.263-4.752 4.752-4.752 2.716 0 4.752 2.037 4.752 4.752zm22.403 0c0 2.716-2.263 4.752-4.752 4.752-2.715 0-4.752-2.262-4.752-4.752 0-2.715 2.263-4.752 4.752-4.752 2.715 0 4.752 2.037 4.752 4.752z" fill="#472a1c"/><defs ><path id="B" d="M655.388 83.593c2.5 0 4.526-2.026 4.526-4.526s-2.026-4.526-4.526-4.526-4.526 2.026-4.526 4.526 2.027 4.526 4.526 4.526z"/></defs></svg>