<svg xmlns="http://www.w3.org/2000/svg" width="855" height="757" fill="none" xmlns:v="https://vecta.io/nano"><path fill-rule="evenodd" d="M718.961 654.629c-52.793 41.215-116.305 61.674-182.581 71.246-63.641 9.192-124.659-3.444-187.33-17.818-81.829-18.768-176.031-16.685-232.806-78.545-61.451-66.954-85.102-165.358-73.839-255.562 11.279-90.336 61.402-175.713 134.466-229.997 67.241-49.958 159.315-26.995 240.282-48.429 90.561-23.974 179.08-129.852 260.905-84.248 83.533 46.556 39.083 180.816 72.903 270.292 26.78 70.851 109.847 120.603 103.373 196.078-6.507 75.863-75.365 130.134-135.373 176.983z" fill="#ffd600"/><path d="M694.691 53.201c-6.004-16.445-18.272-31.063-35.501-35.24-31.585-2.61-48.03 5.482-64.214 21.144s-25.582 37.067-34.718 57.95-18.795 42.027-35.501 57.428c-28.453 26.103-72.568 30.28-100.237 57.167s-31.847 73.089-14.357 107.546c17.75 34.457 53.773 57.167 91.884 64.215 12.269 2.349 25.06 3.132 37.589 1.566 36.545-4.96 67.869-32.107 84.576-64.998s20.621-71.262 18.794-108.068c-1.044-18.012-3.132-36.806 4.438-53.251 14.618-32.63 52.207-43.854 51.424-84.837-.261-6.787-1.567-13.835-4.177-20.622z" fill="#ffe03c"/><path d="M143.615 621.579c-37.858-46.724-55.724-102.142-63.178-159.649-7.157-55.222 6.363-107.583 21.576-161.324 19.863-70.169 20.219-151.594 80.41-198.947 65.148-51.253 159.246-68.998 244.686-56.81 85.564 12.206 165.454 57.829 215.227 122.419 45.807 59.443 21.704 138.347 40.065 208.868 20.537 78.877 118.956 158.224 73.592 227.657-46.312 70.883-172.794 28.828-258.66 55.6-67.992 21.199-117.329 91.593-188.891 83.943-71.929-7.69-121.795-68.647-164.827-121.757z" stroke="#000" stroke-width=".291"/><path d="M414.654 103.945c-2.012-20.37-5.784-40.488-13.328-59.852l-15.089-.754c.503 3.772.755 7.544 1.006 11.568.252 6.79.503 13.831 1.258 20.621l5.281 47.529c.251 2.766-.252 5.029-1.509 7.544-5.784 11.82-10.814 24.142-17.352 35.71-1.258 2.012-2.012 4.275-2.766 6.539 0 .503 0 1.005.251 1.508 5.03 8.802 10.311 17.352 14.586 26.657l.754.755c4.527-3.773 7.042-8.802 9.556-13.832 4.275-8.55 7.796-17.603 11.065-26.656 3.773-9.808 6.539-19.867 7.293-30.429 1.258-9.053-.251-17.855-1.006-26.908z" fill="#ff6940"/><path d="M489.595 504.8c-1.761-14.837-9.305-30.429-25.651-32.441-9.053-1.257-18.358 1.761-26.154 6.287-18.106 10.814-47.278 45.267-65.133 14.838-6.035-10.311-9.053-23.136-11.568-34.704l-17.1-78.21c-1.006-2.515-1.76-5.03-2.515-7.544-21.124 4.023-42.5 5.281-63.875 6.287-20.119.754-39.734-2.012-58.846-8.299l-10.311-3.018c-29.423 36.213-49.289 76.952-70.665 117.943-19.364 37.219-48.787 67.648-71.923 102.352-20.37 30.68-45.769 77.707-19.112 112.159 3.772 4.275 7.293 8.55 11.568 12.323 4.527 3.772 9.305 6.789 14.837 9.053 2.515.503 5.029 1.006 7.544 1.006 25.651 1.76 45.518-9.305 60.858-28.669 9.808-12.322 17.352-26.405 23.639-40.991 11.82-26.908 21.627-54.822 32.189-81.982 7.293-18.609 16.598-35.961 28.92-51.553 4.275-5.281 9.305-9.556 15.34-12.825 15.843-8.55 28.669 2.515 34.201 17.1 11.82 29.926 21.376 61.613 44.764 85.252 13.076 13.328 30.931 23.136 49.541 23.387 39.23 1.006 80.221-34.704 103.609-63.372 10.562-12.071 18.609-40.991 15.843-64.379z" fill="#1f2241"/><path d="M362.85 170.083c-.503.503-1.006 1.006-1.761 1.509-2.514 2.515-4.778 5.029-7.544 7.041-5.784 4.778-11.317 10.059-16.095 15.843-1.508 1.761-3.017 2.012-5.029 2.012-6.287.252-12.323.252-18.61.755-3.52.251-8.801-3.018-10.813.754-.252.503.754 3.269.251 3.521-.503 8.299-6.538 13.831-14.837 13.58-7.796 0-12.825-5.784-13.077-14.586-1.006-2.263-3.017-2.515-5.281-2.263-9.556 1.257-19.112.503-28.668 1.005-6.036.252-12.071-5.784-16.346-9.556-8.802-7.544-17.101-9.304-26.405-16.094-1.006-.755-1.761-1.761-3.521-1.006l-4.527 17.603-6.287 31.687c-1.257 4.778.755 7.795 4.275 10.562 1.509 1.257 3.018 2.263 4.527 3.269 8.047 5.532 17.101 9.304 26.657 12.071 3.017.754 3.772 2.012 3.52 5.029-.503 8.048-1.006 16.095-2.011 24.142-2.012 14.083-4.276 28.166-9.305 41.746-4.527 12.07-8.55 24.644-14.334 36.464-2.264 4.526-1.258 6.79 3.269 9.305 2.263 1.257 4.526 2.263 6.79 3.52l10.31 3.018a166.85 166.85 0 0 0 58.846 8.299c23.136-1.006 46.021-2.515 68.654-7.042 11.819-5.784 12.825-8.047 9.556-21.124-3.772-14.837-6.539-29.926-7.042-45.266-.502-16.597 1.006-33.446 1.006-50.044 0-4.275 1.761-6.538 5.281-8.299 4.779-2.263 9.557-4.778 13.832-8.047 8.801-6.79 14.334-15.843 19.364-25.651 1.508-3.018 2.263-6.035 1.508-9.053-7.292-11.819-16.597-23.639-26.153-34.704z" fill="#e8a628"/><path d="M185.306 184.417c-4.778-6.287-9.556-12.071-15.088-17.603-4.527-4.778-8.551-9.808-12.826-14.837-1.76-2.012-3.017-4.276-3.017-7.042-.503-12.322-3.018-24.142-4.024-36.464-1.257-13.58-3.269-26.908-5.281-40.488-.503-4.275.251-18.106 1.509-22.13-4.527 1.76-10.562 11.819-15.089 10.813 0 1.509 0 2.766-.251 4.275-2.767 14.837-5.533 29.674-7.042 44.764-1.76 16.346-.754 32.189 5.784 47.529l10.562 23.387c.755 1.761 1.761 3.27 2.767 4.778 11.065 16.095 25.399 28.92 40.991 40.237l6.286-31.686c-2.263-1.006-3.772-3.27-5.281-5.533zm118.195 17.101c-.503 8.298-6.538 13.831-14.837 13.579-7.796 0-12.825-5.784-13.077-14.585 5.03-2.767 7.796-8.048 6.79-13.58-.251-1.258-1.006-2.012-2.012-2.766-2.766-1.761-4.778-3.773-6.538-6.539-2.012-3.018-2.766-6.79-7.544-7.293-2.515-.251-3.521-3.52-3.521-6.287 0-3.52 1.257-6.538 5.029-7.292 2.515 1.76 4.276 1.005 5.03-1.761.754-2.263 2.012-3.269 4.527-3.269 1.508 0 3.017-.754 4.526-.754 7.042-.252 11.568-3.773 13.831-10.311 0-.252.503-.252 1.006-.503 3.018 1.257 4.024 4.024 4.527 6.79.754 3.772 1.257 7.544 2.012 11.065 1.006 4.778 2.515 5.281 7.293 4.024 3.772 2.263 4.275 5.532 3.269 9.304-1.006 3.521-3.521 5.533-7.293 5.281-2.012 0-3.269.503-4.024 2.264-.503 1.005-1.257 1.76-1.76 2.514-1.257 1.761-4.024 2.515-3.521 5.281.503 3.773 1.006 7.796 3.521 11.065.754 1.509 1.76 2.515 2.766 3.773z" fill="#ff6940"/><path d="M46.742 700.45c3.772 4.275 7.293 8.551 11.568 12.323 4.527 3.772 9.305 6.79 14.837 9.053-1.257.251-2.012 1.006-2.012 2.515-.251 2.515-.503 5.029-1.006 7.544-2.263 10.311-8.802 14.586-18.861 9.808-5.532-2.515-9.556-7.293-13.831-11.317-4.778-4.275-9.808-8.047-15.592-10.813-5.03-2.264-9.808-4.778-14.334-8.048-2.012-1.509-3.772-3.017-5.03-5.029-3.018-5.533 0-11.568 6.035-12.323 2.263-.251 4.778 0 7.293.503l24.645 5.281c2.012.503 4.024.503 6.287.503zm441.595-195.399c-.754-3.772-1.257-7.292-2.263-11.065-3.772-13.831-11.568-22.13-26.908-22.13-.755 0-1.258-.251-2.012-.251 4.778-6.036 11.065-9.305 18.609-8.55 4.778.251 9.305 2.011 13.58 4.526 3.772 2.515 7.293 5.281 10.814 7.796 6.287 4.778 13.831 7.796 20.621 11.82 2.766 1.508 5.532 3.017 7.796 5.029 5.532 5.281 5.532 11.065-.252 15.843-4.024 3.269-8.802 4.527-14.083 3.772-8.801-1.508-17.603-3.269-25.902-6.79z" fill="#6297d4"/><path d="M308.279 160.527c-.503 0-1.257.251-1.76.503-.252-14.837-8.55-26.908-18.861-26.908-9.305 0-16.849 9.556-18.609 22.381-.252 0-.503-.251-1.006-.251-3.521 0-6.287 4.023-6.287 8.801s2.766 8.802 6.287 8.802c.754 0 1.76-.251 2.263-.754 2.515 11.065 9.556 15.843 17.101 15.843 6.79 0 12.573-5.03 16.094-12.826 1.258 1.761 2.767 2.767 4.778 2.767 3.521 0 6.539-4.275 6.539-9.305.251-4.778-2.766-9.053-6.539-9.053z" fill="#ff6940"/><path d="M310.291 161.282c-2.263-.503-4.778.503-5.784 2.514-1.509-5.281-2.515-10.562-3.018-16.094-1.76 3.269-5.784 5.029-9.556 5.029s-7.293-1.006-11.065-2.263c.503 2.515 0 5.533-1.76 7.544-1.509 2.012-4.276 3.521-6.79 3.018s-4.527-2.263-5.533-4.526-.754-5.03 0-7.293c-3.772-.252-7.041-2.767-8.802-6.287-1.76-3.269-1.76-7.293-.754-10.814.251-1.257.754-2.515 1.76-3.52 1.761-1.761 4.527-2.264 6.79-2.515-3.52-2.515-5.532-7.293-4.526-11.568s4.778-8.048 9.304-8.551c1.761-.251 3.521-.251 5.03.503s2.766 2.012 3.269 3.773c-.754-2.767-1.509-6.036-1.257-9.054 0-3.017 1.006-6.035 3.017-8.047 1.761-2.012 4.276-3.018 6.79-3.521 6.287-1.257 13.329 2.012 16.598 7.544 3.521 6.035 2.766 13.328 1.509 20.118-.755 4.275-1.509 8.299-2.515 12.322 1.006-2.011 3.772-2.263 5.532-1.005s2.515 3.52 3.27 5.532c2.766 9.053 2.012 18.106-1.509 27.16z" fill="#e8a628"/><path d="M418.929 27.495c-1.76-2.263-10.813 5.784-10.813 5.784s11.316-11.317 10.31-13.077c-1.509-3.018-14.334 9.808-14.334 9.808s13.58-14.334 10.562-16.598-14.837 13.58-14.837 13.58 10.059-15.592 7.293-16.849c-2.767-1.509-15.089 19.112-15.089 19.112s-1.76-12.071-4.275-11.819c-4.275.252-1.509 25.902-1.509 25.902l10.814 9.053c.251.252 23.638-22.633 21.878-24.896zm-305.043 10.31c2.012-2.012 10.311 6.79 10.311 6.79s-10.059-12.322-9.053-14.083c1.76-2.766 13.077 11.317 13.077 11.317s-12.071-15.843-8.802-17.603 13.328 15.089 13.328 15.089-8.55-16.598-5.532-17.604 13.077 20.621 13.077 20.621 3.017-11.82 5.532-11.317c4.024.754-1.257 25.902-1.257 25.902l-11.82 7.796c.252.251-20.621-24.896-18.861-26.908z" fill="#ff6940"/><path d="M190.084 168.071c-3.269 19.867-8.299 39.482-14.586 58.594-2.514 7.545 9.557 11.065 12.071 3.27 6.539-19.113 11.317-38.728 14.586-58.595.503-3.269-.754-6.79-4.275-7.796-3.269-.754-7.293 1.006-7.796 4.527zm169.245-.503l28.166 45.015 9.807-7.545-1.257-1.257c-5.784-5.533-14.586 3.269-8.802 8.802l1.257 1.257c5.03 4.778 13.832-1.509 9.808-7.544l-28.165-45.015c-1.761-2.766-5.533-4.024-8.551-2.263-2.766 1.509-4.023 5.532-2.263 8.55z" fill="#d88f25"/><path d="M292.436 173.101c-.503 3.772-3.772 6.287-7.545 6.287-3.772-.252-6.538-3.27-6.789-6.79l14.334.503z" fill="#fff"/><g fill="#31355b"><path d="M238.871 377.049c-8.299 16.095-10.562 33.698-12.071 51.553-1.509 19.364-1.509 38.728-.251 58.092.251 2.012 3.269 2.012 3.017 0-1.257-18.358-1.257-36.968 0-55.577 1.258-18.106 3.521-35.961 11.82-52.307 1.257-2.012-1.509-3.521-2.515-1.761zm17.603 3.018c-8.55 36.968-8.047 76.198-1.76 113.668.252 2.012 3.269 1.258 3.018-.754-6.287-36.716-6.79-75.444 1.76-111.908.503-2.263-2.515-3.018-3.018-1.006z"/><path d="M218.753 489.46c9.807-1.257 20.621-1.509 30.177 1.761 6.79 2.514 12.323 7.293 16.598 12.825 8.801 11.317 13.328 25.399 16.597 39.231.503 2.011 3.521 1.005 3.018-.755-3.521-14.586-8.55-29.674-18.106-41.494-4.527-5.532-10.06-10.31-17.101-12.825-9.808-3.521-21.124-3.269-31.435-2.012-1.76.503-1.76 3.521.252 3.269zm78.964-107.633c5.784 13.077 12.071 26.406 21.878 37.219 9.054 10.059 23.639 19.113 37.471 13.831 1.76-.754 1.006-3.772-.755-3.017-13.831 5.029-27.662-5.03-36.213-15.089s-14.082-22.633-19.615-34.452c-.754-2.012-3.521-.252-2.766 1.508zm-73.935-7.544c-6.035 11.317-12.071 23.136-21.375 32.189-4.275 4.024-9.054 7.796-14.335 10.06-2.766 1.257-5.532 2.263-8.55 2.766-2.766.503-5.029.754-7.041 2.766-1.509 1.509.754 3.521 2.263 2.263 2.263-2.011 6.287-1.76 9.053-2.766 2.767-.754 5.533-1.76 8.048-3.269 5.029-2.515 9.807-6.287 13.831-10.311 9.053-9.304 15.34-20.872 21.124-32.189.754-1.76-2.012-3.521-3.018-1.509zm13.58 116.183c-29.423 23.387-49.038 56.08-65.133 89.526-17.1 35.459-30.931 74.689-60.103 102.352-7.544 7.041-15.843 13.328-24.896 17.855-10.562 5.281-22.633 9.053-34.201 5.784-2.012-.503-2.766 2.514-.754 3.017 18.358 5.281 38.225-5.029 52.308-16.094 14.837-11.317 26.656-26.154 36.464-42.249 11.317-18.357 19.615-38.476 28.669-58.091 8.047-17.603 16.849-34.955 27.159-51.302 11.568-18.357 25.651-35.458 42.751-49.038 1.509-.754-.754-3.017-2.263-1.76z"/><path d="M340.468 432.626l12.323 63.373c.754 3.772 1.006 7.544 4.275 9.807s7.041 3.773 10.31 5.784c7.042 4.527 13.832 10.06 18.861 16.849 5.533 7.545 9.053 16.346 9.305 25.651 0 2.012 3.269 2.012 3.018 0-.252-15.843-9.557-29.674-21.627-39.482-3.018-2.515-6.287-4.778-9.557-6.79-3.52-2.263-9.304-3.772-10.562-8.047-1.509-5.03-2.012-10.562-3.017-15.592l-3.018-15.843-7.042-36.464c-.503-2.012-3.52-1.006-3.269.754z"/><path d="M396.045 536.99c13.831-15.844 29.926-29.423 47.781-40.237 15.34-9.305 42.248-25.399 58.091-8.299 1.258 1.509 3.521-.754 2.264-2.263-12.071-12.825-30.681-8.047-44.512-1.509-15.843 7.544-30.932 17.352-44.26 28.669-7.796 6.538-14.837 13.579-21.627 21.124-1.509 2.012.754 4.023 2.263 2.515z"/></g><g fill="#f8ebe5"><path d="M.973 702.462a180.94 180.94 0 0 1 36.464 19.364c5.281 3.772 10.311 7.796 15.592 11.819 4.778 3.521 9.808 6.287 15.843 5.533 2.012-.252 1.257-3.269-.754-3.018-7.041 1.006-12.574-4.526-17.603-8.55-4.778-3.772-9.808-7.544-14.837-10.814-10.562-6.79-21.879-12.574-33.447-17.1-2.263-1.006-3.018 2.012-1.257 2.766zm23.136-12.071c1.76 5.029 3.018 10.059 3.521 15.34 0 .754.754 1.509 1.509 1.509s1.76-.755 1.509-1.509c-.503-5.533-1.76-11.065-3.521-16.346-.252-.755-1.006-1.258-2.012-1.006-.754.251-1.257 1.257-1.006 2.012zm6.538 0a82.5 82.5 0 0 0 6.035 18.861c.252.754 1.509 1.005 2.263.503s1.006-1.258.503-2.264c-2.766-5.784-4.527-11.819-5.784-18.106-.251-.755-1.257-1.258-2.012-1.006s-1.006 1.257-1.006 2.012zm435.56-225.073c6.538.252 11.819 4.527 16.597 8.802 4.527 4.024 9.053 7.544 14.335 10.311 11.065 5.532 23.638 8.801 32.692 17.603 1.509 1.509 3.772-.754 2.263-2.263-9.556-9.305-22.633-12.323-34.201-18.61-6.035-3.017-10.562-7.544-15.843-11.819-4.527-3.772-9.556-7.041-15.843-7.041-2.012-.252-2.012 2.766 0 3.017zM199.137 183.16c12.574 7.041 24.394 15.34 35.207 24.896 1.509 1.257 3.772-.754 2.264-2.263-11.065-9.808-22.885-18.358-35.71-25.4-2.012-.754-3.521 1.761-1.761 2.767z"/><path d="M235.099 209.062c14.837-.754 29.674-.754 44.511.754 2.012.252 2.012-3.017 0-3.017-14.837-1.258-29.674-1.509-44.511-.755-2.012 0-2.012 3.018 0 3.018zm-34.704-32.441c12.322 6.036 23.89 13.831 33.949 23.388 1.509 1.257 3.773-.755 2.264-2.264-10.311-9.556-21.879-17.603-34.453-23.89-1.76-1.006-3.521 1.76-1.76 2.766z"/><path d="M236.356 200.26h38.225c2.011 0 2.011-3.018 0-3.018h-38.225c-2.012-.251-2.012 3.018 0 3.018zm66.893-.754c10.814-.503 21.879-.503 32.693-.252l-.755-3.017c-.251.251-.503.503-.754.503-1.509 1.257 0 4.023 1.509 2.766.251-.252.503-.503.754-.503 1.257-1.006 1.006-2.766-.754-3.018-10.814-.251-21.879 0-32.693.252-2.011 0-2.011 3.269 0 3.269z"/><path d="M336.696 198.248c7.544-10.31 17.1-19.112 28.165-25.902 1.761-1.006.252-3.772-1.509-2.766-11.316 7.041-21.124 16.346-29.171 27.159-1.257 1.509 1.509 3.27 2.515 1.509zm-34.704 9.054l38.225-2.264c2.011 0 2.011-3.269 0-3.017l-38.225 2.263c-2.012 0-2.012 3.018 0 3.018z"/><path d="M339.714 205.039c8.299-10.311 18.609-19.113 30.429-25.4 1.76-1.006.251-3.772-1.509-2.766-11.82 6.538-22.382 15.34-30.932 25.902-1.509 1.509.755 3.772 2.012 2.264zm-67.397-7.042c.755 2.263.503 4.778 1.006 7.042s1.258 4.526 3.018 6.287c3.269 3.269 8.299 4.023 12.825 4.023 5.281.252 10.311-1.006 13.58-5.281s3.772-10.059 3.772-15.34c0-4.024-6.287-4.024-6.287 0 0 3.772 0 8.299-2.514 11.568-2.264 3.018-5.784 3.018-9.305 3.018-2.766 0-6.287-.252-8.299-2.515-.754-1.006-1.257-2.766-1.257-4.024-.252-2.012-.252-4.023-.755-6.035-1.005-4.275-7.041-2.766-5.784 1.257zm229.851 297.247v16.598c0 2.012 3.018 2.012 3.018 0v-16.598c.252-2.012-3.018-2.012-3.018 0zm11.568 9.556c-.754 3.018-1.257 6.036-1.76 9.305 0 .754.754 1.509 1.509 1.509 1.006 0 1.509-.755 1.509-1.509 0 .252 0-.251 0-.251v-.503c0-.252 0-.755.251-1.006 0-.755.252-1.509.252-2.012.251-1.509.502-2.766 1.005-4.275.252-.755-.251-1.761-1.005-2.012-.755-.503-1.761-.252-1.761.754z"/></g></svg>