<svg xmlns="http://www.w3.org/2000/svg" width="276" height="263" fill="none" xmlns:v="https://vecta.io/nano"><g clip-path="url(#A)" fill="#c8c7f8"><path d="M242.745 219.493c23.45-25.52 38.034-61.697 29.825-95.24-7.982-32.612-41.783-48.688-69.663-67.526-27.946-18.883-55.397-43.701-88.977-39.664-35.107 4.221-64.145 29.996-82.282 60.253-17.171 28.644-15.616 62.541-11.112 95.548 4.863 35.645 13.924 58.29 45.545 75.639 31.129 17.08 67.153-.157 101.5-9.491 29.829-8.105 54.281 3.208 75.165-19.518z"/><path opacity=".2" d="M150.769 262.613c34.627-1.463 70.521-16.731 88.434-46.255 17.416-28.705 4.883-63.973-1.511-97.007-6.408-33.113-8.269-70.073-34.868-90.963-27.809-21.84-65.023-33.946-99.244-25.376-32.396 8.113-57.345 30.477-77.5 57C4.314 88.656-4.756 123.578 5.336 158.205c9.935 34.089 47.595 47.373 78.482 65.061 26.823 15.36 36.114 40.65 66.951 39.347z"/></g><defs><clipPath id="A"><path fill="#fff" d="M0 0h276v263H0z"/></clipPath></defs></svg>