<svg xmlns="http://www.w3.org/2000/svg" width="258" height="54" fill="none" xmlns:v="https://vecta.io/nano"><g fill="#ea5d19"><path d="M46.964 45.942l2.162 3.728h-1.682l-2.522-3.608v-.12l2.522-3.608h1.682l-2.162 3.608zm3.603 0l2.162 3.728h-1.681l-2.522-3.608v-.12l2.522-3.608h1.681l-2.162 3.608zm11.771 2.045h-4.805l-.961 2.766H53.69l4.925-13.47h2.522l5.045 13.35h-2.883l-.961-2.646zm-4.084-2.285h3.363l-1.682-5.051-1.681 5.051zm13.573-.481h-1.562v5.532h-2.763v-13.47h2.763v5.412h1.201l3.243-5.412h3.363l-4.084 6.374 4.564 7.096H75.31l-3.483-5.532z"/><path d="M87.201 47.987h-4.804l-.961 2.766h-2.883l4.924-13.47H86l5.045 13.35h-2.883l-.961-2.646zm-4.084-2.285h3.363l-1.681-5.051-1.682 5.051zM104.858 54h-2.523v-3.247h-8.047V54h-2.642l-.12-5.532h.961c.601-.481.961-1.082 1.321-2.044.24-.842.481-1.924.601-3.247l.36-5.893h8.768v11.185h1.562l-.24 5.532zm-9.249-5.532h5.045v-8.9H97.29l-.24 3.488c-.12 2.405-.601 4.209-1.441 5.412zm18.978-3.488h-5.285v3.608h6.245v2.165h-9.008v-13.47h8.888v2.285h-6.125v3.247h5.285v2.165zm6.125-7.697l3.484 9.742 3.363-9.742h3.603v13.35h-2.763v-3.608l.241-6.374-3.604 9.982h-1.921l-3.604-9.982.24 6.254v3.608h-2.762v-13.23h3.723zm20.9 0h2.762v13.35h-2.762v-8.9l-5.405 8.9h-2.763v-13.35h2.763v8.9l5.405-8.9zm11.29 13.47v-4.811h-2.282l-2.402 4.811h-2.883l2.883-5.653c-1.321-.722-2.042-1.924-2.042-3.488 0-1.323.48-2.285 1.321-3.007s2.042-1.082 3.604-1.082h4.684v13.35h-2.883v-.12zm-4.084-9.02c0 .722.241 1.323.601 1.684s.961.481 1.682.481h1.921v-4.209h-1.921c-1.562-.12-2.283.601-2.283 2.044zm18.257 3.488h-1.561v5.532h-2.763v-13.47h2.763v5.412h1.201l3.243-5.412h3.363l-4.084 6.374 4.565 7.096h-3.243l-3.484-5.532z"/><path d="M182.33 47.987h-4.805l-.961 2.766h-2.882l4.924-13.35h2.522l5.045 13.35h-2.882l-.961-2.766zm-4.084-2.285h3.363l-1.682-5.051-1.681 5.051zm12.011.36v4.69h-2.763v-13.47h5.165c.961 0 1.922.241 2.643.601a4.49 4.49 0 0 1 1.801 1.563c.361.722.601 1.443.601 2.285 0 1.323-.481 2.405-1.321 3.127s-2.162 1.082-3.724 1.082h-2.402v.12zm0-2.285h2.402c.721 0 1.321-.12 1.682-.481a1.99 1.99 0 0 0 .6-1.443c0-.601-.24-1.203-.6-1.564s-.961-.601-1.562-.601h-2.522v4.089zm12.131-1.563h2.162c1.562 0 2.763.361 3.724 1.203.961.722 1.441 1.804 1.441 3.127s-.48 2.285-1.321 3.127c-.961.842-2.162 1.203-3.604 1.203h-5.044v-13.59h2.762v4.931h-.12zm0 2.165v4.089h2.162c.721 0 1.321-.24 1.682-.601s.6-.962.6-1.563-.24-1.082-.6-1.443-.961-.481-1.682-.601h-2.162v.12zm17.056.601h-5.285v3.608h6.246v2.165h-9.008v-13.47h8.888v2.285h-6.246v3.247h5.285v2.165h.12zm5.285 1.082v4.69h-2.763v-13.47h5.165c.961 0 1.922.241 2.643.601a4.49 4.49 0 0 1 1.801 1.563c.481.722.601 1.443.601 2.285 0 1.323-.48 2.405-1.321 3.127s-2.162 1.082-3.724 1.082h-2.402v.12zm0-2.285h2.402c.721 0 1.322-.12 1.682-.481s.6-.842.6-1.443-.24-1.203-.6-1.564-.961-.601-1.562-.601h-2.522v4.089zm12.131-1.563h2.162c1.562 0 2.763.361 3.724 1.203.961.722 1.441 1.804 1.441 3.127s-.48 2.285-1.321 3.127c-.961.842-2.162 1.203-3.603 1.203h-5.045v-13.59h2.762v4.931h-.12zm0 2.165v4.089h2.162c.721 0 1.322-.24 1.682-.601s.6-.962.6-1.563-.24-1.082-.6-1.443-.961-.481-1.682-.601h-2.162v.12zm11.171 6.374h-2.763v-13.47h2.763v13.47zm3.723-8.539l2.523 3.608v.12l-2.523 3.608h-1.681l2.162-3.728-2.162-3.728h1.681v.12zm3.604 0l2.522 3.608v.12l-2.522 3.608h-1.682l2.162-3.728-2.162-3.728h1.682v.12z"/></g><path d="M91.765 28.143c0-.601.12-1.203.36-1.684s.601-.842 1.081-1.203c.48-.241.961-.361 1.441-.361.841 0 1.562.241 2.162.842a3.88 3.88 0 0 1 .841 2.405v.12c0 .601-.12 1.203-.36 1.684s-.601.842-.961 1.203-.961.361-1.561.361c-.841 0-1.561-.241-2.042-.842-.601-.601-.961-1.443-.961-2.526zm1.081.12c0 .722.12 1.323.48 1.684.36.481.721.601 1.321.601s.961-.241 1.321-.601c.36-.481.48-1.082.48-1.804s-.12-1.323-.48-1.684c-.36-.481-.721-.601-1.321-.601-.48 0-.961.24-1.321.601-.24.361-.48 1.082-.48 1.804zm8.889-2.887c.84 0 1.441.241 1.921.842.481.481.721 1.203.721 2.165v.12a3.34 3.34 0 0 1-.36 1.564 2.84 2.84 0 0 1-.961 1.082c-.481.241-.961.361-1.442.361-.84 0-1.561-.241-2.041-.842s-.841-1.323-.841-2.285v-.481c0-1.323.24-2.405.721-3.247a2.76 2.76 0 0 1 2.162-1.443c.601-.12.961-.241 1.082-.361.24-.12.24-.361.24-.601h.841c0 .481-.121.842-.361 1.203s-.6.481-1.081.601l-.841.241c-.6.12-1.081.361-1.441.722-.12.241-.36.722-.36 1.323.48-.601 1.201-.962 2.042-.962zm-.241.962c-.48 0-.961.12-1.321.481s-.48.842-.48 1.443v.12c0 .722.12 1.203.48 1.564s.721.601 1.321.601.961-.24 1.322-.601.48-.962.48-1.804c0-.601-.12-1.082-.48-1.443-.241-.241-.721-.361-1.322-.361zm9.369 1.925c0 .962-.24 1.804-.721 2.285s-1.081.842-1.801.842-1.321-.241-1.802-.722v3.127h-1.081v-8.779h.961v.722c.48-.601 1.081-.842 1.802-.842s1.321.241 1.801.842c.601.601.841 1.443.841 2.526zm-1.081-.12c0-.722-.12-1.323-.48-1.684s-.721-.601-1.201-.601c-.601 0-1.202.24-1.442.842v3.007c.361.601.841.842 1.442.842.48 0 .96-.241 1.201-.601.36-.361.48-.962.48-1.804zm6.486 3.247c-.12-.12-.12-.361-.12-.722-.48.481-1.081.842-1.802.842-.6 0-1.201-.12-1.561-.481s-.601-.842-.601-1.323c0-.722.241-1.203.721-1.564s1.201-.601 2.162-.601h1.081v-.481c0-.361-.12-.722-.36-.962s-.601-.361-.961-.361a2.26 2.26 0 0 0-.961.24c-.24.12-.36.481-.36.722h-1.081c0-.361.12-.601.36-.962.24-.241.48-.481.961-.722s.841-.241 1.321-.241c.721 0 1.321.241 1.682.601s.6.842.6 1.564v2.886c0 .601.12 1.082.24 1.443v.12h-1.321zm-1.922-.842a2.26 2.26 0 0 0 .961-.24c.361-.12.481-.361.721-.722v-1.323h-.841c-1.321 0-2.042.361-2.042 1.203a1.09 1.09 0 0 0 .361.842c.24.12.6.24.84.24zm8.048-3.728c0-.241-.12-.481-.361-.722s-.48-.24-.96-.24c-.361 0-.721.12-.961.361s-.361.481-.361.722h-1.081c0-.601.241-.962.721-1.323s1.081-.481 1.682-.481c.72 0 1.321.12 1.801.481.361.361.601.722.601 1.323 0 .24-.12.601-.24.842s-.361.481-.721.601c.721.241 1.081.722 1.081 1.443a1.71 1.71 0 0 1-.721 1.443c-.48.361-1.081.481-1.801.481s-1.322-.12-1.802-.481a1.71 1.71 0 0 1-.721-1.443h1.081a1.09 1.09 0 0 0 .361.842c.241.241.6.361 1.081.361.36 0 .72-.12.96-.241.241-.241.361-.481.361-.722 0-.361-.12-.601-.361-.722a2.25 2.25 0 0 0-.96-.24h-1.081v-1.443h1.201c.72 0 1.201-.241 1.201-.842zm2.282 1.323c0-.601.12-1.203.36-1.684s.601-.842 1.081-1.203c.481-.241.961-.361 1.442-.361.84 0 1.561.241 2.162.842a3.88 3.88 0 0 1 .84 2.405v.12c0 .601-.12 1.203-.36 1.684s-.6.842-.961 1.203-.961.361-1.561.361c-.841 0-1.562-.241-2.042-.842-.721-.601-.961-1.443-.961-2.526zm1.081.12c0 .722.12 1.323.48 1.684.361.481.721.601 1.322.601s.961-.241 1.321-.601c.36-.481.48-1.082.48-1.804s-.12-1.323-.48-1.684c-.36-.481-.721-.601-1.321-.601-.481 0-.961.24-1.322.601s-.48 1.082-.48 1.804zm6.126 3.127v-6.374h2.522c.841 0 1.441.12 1.922.481.48.241.72.722.72 1.323 0 .24-.12.601-.24.842s-.48.361-.841.601c.361.12.721.241.961.481s.361.601.361.962c0 .601-.241 1.082-.601 1.323-.48.361-1.081.481-1.802.481h-3.002v-.12zm1.081-3.608h1.441c.961 0 1.561-.241 1.561-.842s-.48-.962-1.441-.962h-1.441v1.804h-.12zm0 .842v1.924h1.801c.481 0 .841-.12.961-.24.24-.12.361-.361.361-.722 0-.601-.481-.962-1.442-.962h-1.681zm9.729 2.766c-.12-.12-.12-.361-.12-.722-.481.481-1.081.842-1.802.842-.601 0-1.201-.12-1.562-.481s-.6-.842-.6-1.323c0-.722.24-1.203.721-1.564s1.201-.601 2.162-.601h1.081v-.481c0-.361-.12-.722-.361-.962s-.6-.361-.961-.361-.72.12-.961.24-.36.481-.36.722h-1.081c0-.361.12-.601.36-.962.241-.241.481-.481.961-.722.361-.12.841-.241 1.322-.241.72 0 1.321.241 1.681.601s.601.842.601 1.564v2.886c0 .601.12 1.082.24 1.443v.12h-1.321zm-1.802-.842c.36 0 .721-.12.961-.24.36-.12.48-.361.721-.722v-1.323h-.841c-1.321 0-2.042.361-2.042 1.203a1.09 1.09 0 0 0 .36.842c.24.24.481.24.841.24zm9.008-4.69h-2.162v5.532h-1.081v-5.532h-2.041v-.842h5.284v.842zm3.364 5.652c-.841 0-1.562-.241-2.162-.842s-.841-1.323-.841-2.285v-.241c0-.601.12-1.203.36-1.684s.601-.842.961-1.203.961-.361 1.441-.361c.841 0 1.442.241 1.922.842s.721 1.323.721 2.285v.481h-4.324c0 .601.24 1.082.6 1.564s.841.601 1.322.601c.36 0 .72-.12.96-.241s.481-.361.721-.601l.721.481c-.601.842-1.442 1.203-2.402 1.203zm-.241-5.652c-.48 0-.84.12-1.081.481s-.48.722-.6 1.323h3.243v-.12c0-.601-.24-.962-.481-1.323s-.6-.361-1.081-.361zm9.129-.842v6.374h-1.081v-5.532h-2.162l-.12 2.405c-.12 1.082-.241 1.924-.601 2.405s-.721.722-1.441.722h-.481v-.962h.361c.36 0 .6-.241.72-.601s.241-1.082.241-2.045l.12-2.766h4.444zm3.003 2.164h1.681c.721 0 1.321.241 1.682.601a1.99 1.99 0 0 1 .6 1.443c0 .601-.24 1.203-.6 1.563-.481.361-.961.601-1.682.601h-2.642v-6.374h1.081v2.165h-.12zm0 .962v2.405h1.561c.36 0 .721-.12.961-.361a1.09 1.09 0 0 0 .36-.842 1.09 1.09 0 0 0-.36-.842c-.24-.241-.48-.361-.961-.361h-1.561zm10.569 3.248h-1.081v-2.766h-2.882v2.766h-1.201v-6.374h1.081v2.766h2.882v-2.766h1.081v6.374h.12zm2.883-4.21h1.682c.72 0 1.321.241 1.681.601a1.99 1.99 0 0 1 .601 1.443c0 .601-.24 1.203-.601 1.563-.48.361-.961.601-1.681.601h-2.643v-6.374h1.081v2.165h-.12zm0 .962v2.405h1.562c.36 0 .72-.12.96-.361s.361-.481.361-.842a1.09 1.09 0 0 0-.361-.842c-.241-.241-.48-.361-.96-.361h-1.562zm6.246 3.247h-1.081v-6.374h1.081v6.374zm6.006-6.373h1.081v6.374h-1.081V26.7l-2.883 4.691h-1.081v-6.374h1.081v4.69l2.883-4.69zm.36-2.285a1.54 1.54 0 0 1-.481 1.203c-.36.361-.72.481-1.321.481s-.961-.12-1.321-.481c-.36-.241-.481-.722-.481-1.203h.841c0 .241.12.481.241.601a.92.92 0 0 0 .6.24.92.92 0 0 0 .601-.24.92.92 0 0 0 .24-.601h1.081zm9.609 2.285h1.081v6.374h-1.081V26.7l-2.883 4.691h-1.081v-6.374h1.081v4.69l2.883-4.69zm8.047 6.374h-1.081v-2.766h-2.882v2.766h-1.081v-6.374h1.081v2.766h2.882v-2.766h1.081v6.374zm6.486-5.532h-2.162v5.532h-1.081v-5.532h-2.042v-.842h5.285v.842zm3.243 5.652c-.84 0-1.561-.241-2.162-.842s-.84-1.323-.84-2.285v-.241c0-.601.12-1.203.36-1.684s.6-.842.961-1.203.961-.361 1.441-.361c.841 0 1.441.241 1.922.842s.721 1.323.721 2.285v.481h-4.324c0 .601.24 1.082.6 1.564s.841.601 1.321.601c.361 0 .721-.12.961-.241s.481-.361.721-.601l.721.481c-.481.842-1.322 1.203-2.403 1.203zm-.12-5.652c-.48 0-.841.12-1.081.481s-.48.722-.6 1.323h3.243v-.12c0-.601-.241-.962-.481-1.323s-.6-.361-1.081-.361zm9.129 5.532h-1.081v-2.766h-2.883v2.766h-1.081v-6.374h1.081v2.766h2.883v-2.766h1.081v6.374zm4.324-.722c.36 0 .72-.12.961-.361s.48-.481.48-.842h1.081c0 .361-.12.722-.36 1.082s-.601.601-.961.842-.841.24-1.201.24c-.841 0-1.562-.24-2.042-.842s-.721-1.323-.721-2.405v-.241c0-.601.12-1.203.36-1.684s.601-.842.961-1.082c.481-.241.961-.361 1.562-.361a2.95 2.95 0 0 1 1.802.601c.48.481.72.962.72 1.684h-1.081c0-.361-.24-.722-.48-.962s-.601-.361-1.081-.361c-.601 0-.961.241-1.322.601s-.48.962-.48 1.684v.241c0 .722.12 1.323.48 1.684.241.241.721.481 1.322.481zm7.807-5.652h1.081v6.374h-1.081V26.7l-2.883 4.691h-1.081v-6.374h1.081v4.69l2.883-4.69zm3.003 6.374v-6.374h2.522c.841 0 1.441.12 1.922.481.48.241.721.722.721 1.323 0 .24-.121.601-.241.842s-.48.361-.84.601c.36.12.72.241.96.481s.361.601.361.962c0 .601-.24 1.082-.601 1.323s-1.081.481-1.801.481h-3.003v-.12zm1.081-3.608h1.441c.961 0 1.562-.241 1.562-.842s-.481-.962-1.442-.962h-1.561v1.804zm0 .842v1.924h1.801c.481 0 .841-.12.961-.24s.361-.361.361-.722c0-.601-.481-.962-1.442-.962h-1.681zM95.129 0l5.885 2.405-.601 3.367-6.606.241-.24.601c-.6 1.684-1.321 3.247-2.282 4.69l-.36.481 4.204 5.292-2.282 2.646-6.126-3.247-.36.361c-1.321 1.082-2.642 1.924-4.204 2.766l-.601.241.961 6.976-3.243 1.203-3.844-6.254-.601.12c-1.561.241-3.123.361-4.684.241h-.6l-2.763 6.855-3.363-.601-.24-7.697-.48-.241c-1.321-.481-2.642-1.203-3.844-1.924l-.48-.361-6.126 4.811-2.643-2.285 3.844-7.096-.48-.361a33.08 33.08 0 0 1-2.282-3.367l-.24-.481-8.047 1.082L41.2 7.217l6.966-4.33-.12-.601c-.12-.722-.24-1.563-.24-2.285h-1.802c0 .722.12 1.323.12 2.045l-7.207 4.45 2.162 5.893 8.168-1.203c.48.962 1.081 1.804 1.802 2.646l-3.964 7.336 4.805 4.089 6.366-4.931c.961.601 2.042 1.082 3.123 1.563l.24 7.938 6.246 1.082 2.883-7.096c1.321 0 2.522 0 3.844-.241l3.964 6.494 5.885-2.165-.961-7.216c1.201-.601 2.402-1.443 3.483-2.285l6.366 3.367 4.084-4.811-4.324-5.532c.721-1.203 1.441-2.526 1.922-3.969l6.967-.241L103.059.96 99.813 0h-4.684zM68.704 13.951c4.084.722 8.288-.241 11.651-2.526C83.718 9.02 86 5.412 86.841 1.323c.12-.481.12-.842.12-1.323h-1.802c0 .361-.12.722-.12.962-.601 3.608-2.642 6.855-5.765 8.9-3.003 2.165-6.726 2.886-10.33 2.285-6.126-.962-10.69-6.013-11.29-12.147h-1.802c.601 6.976 5.885 12.748 12.852 13.951zm-50.687 3.247c-.12 0-.12 0 0 0-3.243-.481-6.366.241-9.128 1.564l1.321 1.323c2.282-1.082 4.804-1.443 7.447-1.082h.12c7.447.962 12.732 7.938 11.771 15.394-.12 1.323-.601 2.646-1.081 3.969l1.321 1.323c.841-1.564 1.321-3.247 1.561-5.051 1.081-8.539-4.924-16.356-13.332-17.439zm28.707 22.851l.841-6.254-6.486-2.285c-.12-1.443-.24-2.886-.601-4.33l5.645-3.969-2.402-5.773-6.846 1.323c-.721-1.203-1.682-2.285-2.642-3.368l3.003-6.374-5.045-3.849-5.525 4.69c-1.201-.601-2.402-1.082-3.724-1.443l-.6-7.457-6.247-.84-2.522 7.216c-1.201.12-2.402.241-3.603.601L5.765 1.563 0 3.969l1.321 7.216 1.802 1.804.36-.241-1.441-7.697 3.123-1.323 4.324 6.254.601-.12a26.37 26.37 0 0 1 4.444-.722h.601l2.402-6.975 3.363.481.601 7.216.601.12c1.561.481 3.123.962 4.444 1.804l.48.241 5.405-4.57 2.763 2.045-3.003 6.254.48.481c1.201 1.203 2.282 2.526 3.123 3.969l.36.481 6.606-1.203 1.321 3.127-5.525 3.849.12.601c.36 1.684.6 3.488.721 5.172v.601l6.246 2.165-.48 3.367-6.726.481-.12.601c-.48 1.684-1.201 3.247-2.042 4.69l-.36.601 5.645 6.494 1.081-1.443-4.564-5.292c.721-1.323 1.201-2.646 1.682-3.969l6.967-.481z" fill="#444"/></svg>