<svg width="1934" height="1864" viewBox="0 0 1934 1864" fill="none" xmlns="http://www.w3.org/2000/svg">
<g clip-path="url(#clip0)">
<path opacity="0.5" d="M1387 142.428C1597 186.428 1825.5 216.427 1825.5 216.427L1842 1718.51L-110 1718.51V260.427C-110 260.427 146.17 120.406 324 67.9276C710.729 -46.1967 1177 98.4276 1387 142.428Z" fill="#FFE03C"/>
<path d="M437 117.428C227 161.428 -1.5 191.427 -1.5 191.427L-18 1863.5L1934 1863.5V235.427C1934 235.427 1677.83 95.4055 1500 42.9276C1113.27 -71.1967 647 73.4276 437 117.428Z" fill="#FFD600"/>
<path d="M2030 1204.65C2030 1390.95 1938.81 1523 1752.59 1523C1566.37 1523 1361 1432.18 1361 1245.89C1361 1059.59 1543.29 883 1729.51 883C1915.73 883 2030 1018.35 2030 1204.65Z" fill="#FFE03C"/>
</g>
<defs>
<clipPath id="clip0">
<rect width="1934" height="1864" fill="white"/>
</clipPath>
</defs>
</svg>
