<svg xmlns="http://www.w3.org/2000/svg" width="1420" height="419" fill="none" xmlns:v="https://vecta.io/nano"><mask id="A" maskUnits="userSpaceOnUse" x="0" y="0" width="1420" height="419" mask-type="alpha"><rect width="1420" height="419" rx="25" fill="#ffd600"/></mask><g mask="url(#A)"><path fill-rule="evenodd" d="M-151.774 104.771c-29.207-22.014-48.977-52.615-63.393-86.213-13.843-32.262-15.797-66.227-17.069-101.309-1.659-45.807-16.07-95.19 8.548-133.877 26.645-41.873 75.225-68.258 124.413-75.071 49.259-6.824 101.391 7.538 140.358 38.394 35.862 28.397 36.756 80.199 59.506 119.867 25.447 44.369 93.821 76.081 81.32 125.679-12.761 50.634-89.884 46.175-132.317 76.661-33.6 24.14-48.114 74.979-88.853 82.236-40.948 7.294-79.314-21.345-112.513-46.367z" fill="#ff9578"/><path d="M1545.13 98.047c-8.4-23.039-25.59-43.519-49.71-49.37-44.24-3.657-67.27 7.68-89.93 29.622-22.67 21.943-35.83 51.93-48.62 81.187-12.8 29.256-26.32 58.878-49.72 80.455-39.85 36.57-101.63 42.422-140.38 80.089s-44.6 102.398-20.11 150.671c24.86 48.273 75.31 80.089 128.68 89.963 17.19 3.292 35.1 4.389 52.65 2.194 51.18-6.948 95.04-44.981 118.44-91.06s28.88-99.838 26.32-151.402c-1.46-25.234-4.39-51.564 6.22-74.604 20.47-45.713 73.11-61.438 72.01-118.854-.36-9.508-2.19-19.382-5.85-28.891z" fill="#ffe03c"/></g></svg>