<svg width="1420" height="540" viewBox="0 0 1420 540" fill="none" xmlns="http://www.w3.org/2000/svg">
<mask id="mask0" style="mask-type:alpha" maskUnits="userSpaceOnUse" x="0" y="0" width="1420" height="540">
<rect width="1420" height="540" rx="25" fill="#FFD600"/>
</mask>
<g mask="url(#mask0)">
<path fill-rule="evenodd" clip-rule="evenodd" d="M337.096 -38.8682C343.107 3.93273 334.056 46.0229 318.028 86.1438C302.636 124.67 275.888 154.685 247.635 185.062C210.746 224.726 181.522 278.033 128.624 289.789C71.3695 302.514 8.72742 283.967 -38.0681 248.559C-84.9317 213.099 -116.493 157.536 -123.271 99.1912C-129.508 45.496 -86.9683 1.46192 -72.8318 -50.6959C-57.0202 -109.034 -87.6563 -192.668 -35.7654 -223.667C17.2087 -255.314 77.9276 -187.143 138.859 -177.16C187.108 -169.254 241.718 -199.609 281.824 -171.631C322.136 -143.509 330.264 -87.5181 337.096 -38.8682Z" fill="#FF9578"/>
<path d="M1620.07 223.576C1605.85 184.641 1576.77 150.033 1535.95 140.144C1461.1 133.964 1422.13 153.123 1383.77 190.203C1345.42 227.284 1323.15 277.961 1301.5 327.402C1279.85 376.843 1256.96 426.902 1217.37 463.365C1149.95 525.167 1045.41 535.055 979.837 598.71C914.266 662.365 904.369 771.754 945.814 853.332C987.878 934.909 1073.24 988.676 1163.56 1005.36C1192.63 1010.92 1222.94 1012.78 1252.63 1009.07C1339.24 997.329 1413.47 933.055 1453.06 855.186C1492.65 777.316 1501.92 686.468 1497.59 599.328C1495.12 556.685 1490.17 512.188 1508.11 473.253C1542.75 396.002 1631.83 369.427 1629.97 272.399C1629.35 256.331 1626.26 239.644 1620.07 223.576Z" fill="#FFE03C"/>
<path d="M1355.92 838.861C1360.72 838.861 1365.25 839.661 1370.04 838.861C1376.97 837.795 1381.5 833.265 1382.04 826.069C1382.3 821.272 1382.57 816.742 1382.57 811.945C1382.57 788.492 1384.7 765.307 1385.5 741.854C1386.3 721.334 1388.17 700.813 1389.23 680.292C1390.56 654.974 1392.43 629.923 1395.63 604.872C1395.63 604.339 1396.16 603.539 1396.43 603.006C1398.83 604.872 1398.29 607.27 1398.56 609.669C1400.96 628.857 1403.36 648.045 1405.75 667.233C1407.35 679.759 1409.22 692.551 1410.82 705.077C1414.02 733.06 1415.88 761.043 1417.48 789.025C1418.28 802.084 1419.08 814.876 1420.15 827.935C1420.68 835.397 1421.21 835.397 1428.14 837.262C1432.14 838.328 1435.87 838.861 1439.87 839.128C1452.39 838.595 1465.19 838.861 1477.71 839.128C1482.77 839.128 1488.1 838.861 1493.17 837.529C1497.97 835.93 1499.03 834.597 1499.56 829.534C1502.5 780.497 1501.96 731.461 1501.96 682.424C1501.96 629.123 1500.1 575.823 1500.1 522.522C1500.1 495.339 1498.23 468.422 1492.1 441.772C1489.7 431.644 1485.71 422.05 1481.97 412.456C1481.44 411.657 1480.64 411.124 1480.38 410.324C1478.24 405.794 1475.05 404.461 1469.98 403.395C1457.19 400.997 1444.13 400.997 1431.34 400.73C1422.28 400.464 1414.28 402.329 1406.02 406.06C1395.63 410.857 1385.23 416.187 1374.57 420.451C1350.59 429.512 1327.14 430.578 1305.82 413.522C1299.69 425.781 1298.09 439.373 1297.82 452.698C1297.02 489.209 1298.89 525.72 1300.75 562.231C1301.82 581.419 1302.09 600.341 1303.15 619.529C1304.48 645.114 1306.62 670.698 1307.95 696.549C1308.75 713.338 1308.21 730.128 1308.21 746.918C1307.95 771.436 1309.81 795.954 1309.28 820.473C1309.28 823.937 1309.81 827.402 1310.61 830.866C1311.41 834.064 1312.75 835.93 1315.94 836.729C1317.81 837.795 1319.94 838.328 1322.07 838.062C1333.53 836.996 1344.73 838.861 1355.92 838.861Z" fill="#FEA902"/>
<path d="M1305.82 412.989C1327.14 430.312 1350.32 428.979 1374.57 419.918C1385.5 415.921 1395.63 410.324 1406.02 405.527C1414.02 401.796 1422.28 399.93 1431.34 400.197C1444.4 400.73 1457.19 400.463 1469.98 402.862C1475.05 403.662 1478.24 405.261 1480.38 409.791C1480.64 410.591 1481.44 411.39 1481.97 411.923C1485.17 410.591 1488.64 409.258 1491.84 407.926C1504.89 402.595 1514.22 389.004 1514.22 374.879C1514.22 368.217 1514.22 361.554 1514.22 355.158C1514.22 351.693 1516.35 323.178 1515.02 320.246C1506.76 319.979 1496.37 348.229 1488.1 349.028C1468.12 351.16 1448.4 353.559 1428.41 355.957C1411.35 358.089 1394.3 359.688 1376.97 360.221C1370.31 360.488 1365.78 358.356 1362.85 352.226C1361.78 350.094 1360.45 347.962 1358.85 346.363C1354.32 341.833 1353.52 335.97 1352.99 330.107C1352.72 326.909 1352.99 323.444 1351.92 320.246C1349.52 312.251 1351.92 305.322 1356.72 299.192C1359.12 296.261 1359.12 293.596 1358.58 290.131C1357.78 285.867 1354.85 282.669 1353.25 278.671C1352.19 276.273 1352.19 273.874 1354.59 272.275C1356.98 270.943 1358.58 272.542 1359.92 274.141C1370.04 286.667 1379.37 299.725 1380.7 316.515C1381.24 321.578 1382.3 326.642 1383.37 331.706C1384.43 337.835 1385.5 338.368 1391.36 336.769C1398.56 334.904 1406.02 332.505 1412.95 329.84C1428.94 323.444 1445.73 319.18 1461.19 311.185C1470.25 306.654 1479.31 302.124 1488.64 298.393C1492.9 296.794 1496.9 294.662 1501.43 294.395C1515.82 293.596 1529.95 290.664 1544.34 289.065C1540.61 266.945 1533.94 245.625 1524.08 225.371C1519.29 215.51 1512.62 206.982 1504.09 200.053C1496.63 194.19 1488.9 188.86 1480.64 184.329C1476.38 182.197 1472.11 180.332 1467.32 180.598C1466.25 183.53 1464.39 185.928 1462.25 188.327C1448.66 204.051 1431.07 212.312 1410.82 214.711C1402.02 215.777 1392.96 215.51 1384.7 210.713C1378.57 207.249 1374.04 202.452 1369.78 197.121C1360.72 200.053 1351.92 203.251 1343.39 207.515C1325.8 215.777 1314.08 230.168 1304.48 246.158C1300.22 253.087 1295.96 260.283 1291.16 266.945C1285.03 275.74 1285.03 280.27 1291.16 289.332C1293.56 293.063 1297.29 295.994 1296.75 301.058C1300.22 306.121 1303.15 311.451 1307.15 315.982C1310.35 319.446 1310.61 322.378 1309.55 326.642C1306.08 342.099 1301.55 357.023 1295.96 371.948C1294.09 387.671 1298.09 400.997 1305.82 412.989Z" fill="#867FDB"/>
<path d="M1440.67 133.427C1448.4 123.567 1451.06 112.373 1448.66 100.381C1447.06 92.3856 1442.53 85.9896 1435.34 81.992C1432.41 80.393 1430.54 78.5275 1431.07 74.7964C1432.41 66.0018 1431.07 57.7402 1423.61 51.8771C1422.01 50.5446 1422.28 48.9456 1423.08 47.3466C1423.88 46.0141 1424.94 44.6815 1425.74 43.0825C1435.07 27.8918 1432.14 11.9016 1417.75 1.24152C1417.48 0.975014 1416.95 0.708508 1416.68 0.442005C1413.75 -0.890512 1412.42 -2.75603 1414.28 -6.22058C1415.62 -8.88561 1416.15 -12.0836 1415.88 -15.2817C1415.08 -25.4088 1406.29 -32.8709 1396.69 -31.8049C1387.37 -30.7389 1380.44 -21.9443 1381.77 -12.0836C1382.04 -9.41862 1382.84 -7.02009 1384.17 -4.62156C1385.77 -2.22303 1384.97 -0.624008 1382.57 0.442005C1378.04 2.84053 1374.04 5.50557 1370.31 8.97011C1361.25 16.9652 1357.25 26.5593 1360.72 38.8185C1361.25 40.9505 1361.52 43.0825 1362.05 44.9481C1363.91 49.7451 1364.45 54.2757 1361.52 59.0727C1359.92 62.0043 1359.65 66.0018 1360.18 69.4664C1360.72 72.6644 1360.18 75.3294 1358.32 77.9945C1348.19 92.3856 1355.12 114.239 1371.38 118.769C1371.91 118.769 1372.18 119.302 1372.71 119.569C1383.37 121.434 1393.76 120.368 1403.62 115.038C1407.35 113.173 1411.35 111.307 1415.08 109.708C1417.75 108.642 1419.08 109.442 1419.08 112.373C1419.08 113.972 1419.08 115.571 1419.08 117.437C1419.08 122.234 1419.35 126.765 1421.48 131.295C1424.41 137.158 1429.74 139.024 1435.6 136.092C1437.2 135.293 1438.8 134.227 1440.67 133.427Z" fill="#37313C"/>
<path d="M1440.67 133.427C1439.07 134.227 1437.47 135.293 1435.6 136.092C1429.74 139.024 1424.41 137.158 1421.48 131.295C1419.35 127.031 1419.08 122.234 1419.08 117.437C1419.08 115.838 1419.08 114.239 1419.08 112.374C1419.08 109.442 1417.48 108.643 1415.08 109.709C1411.08 111.308 1407.35 113.173 1403.62 115.039C1393.76 120.369 1383.64 121.168 1372.71 119.569C1369.51 129.696 1369.78 140.09 1371.91 150.217C1374.04 160.344 1379.9 168.339 1391.1 170.738C1394.03 171.271 1394.83 172.87 1394.83 175.801C1394.83 178.733 1394.83 181.931 1395.09 184.862C1395.63 189.127 1393.5 190.726 1389.76 191.525C1383.1 192.858 1376.44 194.457 1370.31 197.655C1374.57 202.985 1379.37 207.782 1385.23 211.246C1393.5 216.043 1402.29 216.31 1411.35 215.244C1431.61 212.845 1449.19 204.584 1462.79 188.86C1464.65 186.462 1466.78 184.063 1467.85 181.131C1459.59 179.532 1451.59 180.598 1443.33 181.664C1432.94 182.997 1432.94 182.997 1431.34 172.603C1431.34 171.804 1431.07 171.271 1431.07 170.471C1422.01 166.207 1422.54 160.877 1423.88 155.281C1425.21 149.951 1429.47 148.085 1437.47 148.352C1438.27 148.352 1438.8 148.352 1439.6 148.618C1444.93 141.422 1444.93 139.823 1440.67 133.427Z" fill="#F3725F"/>
<path d="M1377.24 144.887C1377.24 149.95 1380.7 154.481 1385.77 155.281C1390.83 156.08 1395.63 152.615 1396.69 147.552L1377.24 144.887Z" fill="white"/>
<path d="M1358.85 290.131C1358.05 285.867 1355.12 282.669 1353.52 278.671C1353.52 278.405 1353.52 278.405 1353.25 278.138C1352.19 276.806 1351.39 275.473 1350.32 274.141C1349.52 273.075 1348.72 271.742 1348.19 270.676C1347.66 269.344 1347.66 267.745 1347.92 266.146C1347.92 265.613 1348.19 265.346 1348.46 265.08C1349.26 264.547 1350.32 265.346 1350.86 265.879C1354.59 269.344 1358.58 272.275 1361.52 276.273C1364.45 280.004 1367.38 284.002 1370.04 287.999C1375.64 296.794 1379.9 306.121 1380.7 316.515C1381.24 321.579 1382.3 326.642 1383.37 331.706C1384.43 337.835 1385.5 338.368 1391.36 336.769C1398.56 334.904 1406.02 332.505 1412.95 329.84C1428.94 323.444 1445.73 319.18 1461.19 311.185C1470.25 306.654 1479.31 302.124 1488.64 298.393C1492.9 296.794 1496.9 294.662 1501.43 294.395C1515.82 293.596 1529.95 290.664 1544.34 289.065C1547.27 299.459 1545.4 309.586 1543 319.447C1541.41 325.576 1538.74 331.439 1533.41 335.437C1526.75 340.234 1517.15 342.366 1509.42 344.231C1500.36 346.63 1491.3 348.229 1482.24 349.561C1464.39 351.96 1446 353.292 1428.14 355.158C1411.08 357.29 1394.03 358.889 1376.71 359.422C1370.04 359.688 1365.51 357.556 1362.58 351.427C1361.52 349.295 1360.18 347.163 1358.58 345.564C1356.72 343.698 1355.65 341.566 1354.59 339.434C1352.45 336.769 1351.39 333.571 1351.12 330.373C1350.86 327.708 1351.39 325.043 1350.59 322.378C1350.32 321.046 1349.52 319.98 1348.99 318.914C1347.12 314.649 1347.39 309.319 1349.79 305.055C1350.86 303.19 1354.85 297.327 1358.32 294.129C1359.38 293.596 1359.38 291.997 1358.85 290.131Z" fill="#F3725F"/>
<path d="M1264.24 170.738L1243.72 130.762C1243.72 130.762 1224.8 142.755 1226.13 144.087C1227.73 145.42 1257.85 171.804 1257.85 171.804L1264.24 170.738Z" fill="#F7EBEC"/>
<path d="M1300.75 147.286C1300.49 145.42 1293.56 124.366 1293.56 124.366L1259.98 168.073L1300.75 147.286Z" fill="#B2AAAB"/>
<path d="M1313.28 149.951L1305.82 129.696L1259.71 168.073L1313.28 149.951Z" fill="#D1C3C5"/>
<path d="M1320.47 157.946C1320.47 156.613 1316.21 139.557 1316.21 139.557L1259.71 168.339L1270.37 177.667L1320.47 157.946Z" fill="#F7EBEC"/>
<path d="M1224 141.156L1259.71 167.273L1269.04 253.087L1237.59 233.366L1224 141.156Z" fill="#3F96D2"/>
<path d="M1322.34 151.017L1329.54 233.899L1269.04 253.087L1259.71 167.273L1322.34 151.017Z" fill="#3F96D2"/>
<path d="M1318.08 162.743L1323.94 228.302L1273.3 243.493L1265.31 175.535L1318.08 162.743Z" stroke="#2B77A0" stroke-width="1.1076" stroke-miterlimit="10"/>
<path d="M1243.99 230.701C1244.52 225.904 1245.59 221.107 1246.92 216.576C1248.25 212.312 1249.32 207.782 1250.65 203.518C1250.92 202.185 1252.25 200.586 1253.32 201.386C1253.58 201.652 1253.85 202.185 1254.11 202.452C1254.91 205.383 1255.45 208.048 1255.18 211.246C1256.25 208.581 1256.78 205.916 1257.31 203.251C1257.31 202.718 1257.58 202.452 1257.85 202.185C1258.38 201.919 1258.91 201.919 1259.44 202.185C1259.98 202.452 1260.24 202.985 1260.24 203.518C1261.04 205.383 1261.84 207.515 1261.84 209.381C1262.11 207.782 1262.38 206.183 1262.64 204.584C1262.64 204.051 1262.91 203.784 1263.18 203.518C1263.71 202.985 1264.77 203.251 1265.31 203.518C1266.91 204.584 1267.17 206.716 1267.17 208.581C1267.44 213.645 1266.37 218.975 1264.51 223.772C1263.98 225.104 1262.91 227.503 1263.71 228.302C1263.98 228.569 1264.24 229.102 1264.51 229.635C1265.57 228.835 1266.37 228.302 1267.44 227.503C1270.1 225.371 1271.44 221.906 1274.1 219.241C1274.64 218.708 1275.7 218.442 1275.97 218.975C1275.97 219.241 1275.97 219.241 1275.97 219.508C1275.97 222.706 1275.43 226.17 1273.84 229.102C1273.3 230.168 1272.5 231.234 1271.7 232.3C1269.84 234.698 1267.97 236.83 1266.37 239.229C1265.04 241.361 1266.11 243.76 1267.97 245.092C1269.84 246.425 1271.7 247.491 1273.04 248.823C1277.03 253.087 1277.57 258.151 1275.7 264.014C1274.9 265.879 1275.17 267.478 1275.97 269.344C1281.03 280.537 1286.09 291.73 1291.16 302.923C1291.69 304.256 1292.22 306.121 1294.36 306.654C1295.96 305.588 1296.22 303.723 1297.29 302.124C1300.75 307.187 1303.68 312.517 1307.68 317.048C1310.88 320.513 1311.15 323.444 1310.08 327.708C1306.62 343.165 1302.09 358.09 1296.49 373.014C1283.96 367.95 1276.77 357.823 1271.44 346.363C1268.24 339.434 1266.11 332.239 1264.77 324.777C1260.51 299.992 1253.05 276.273 1245.59 252.288C1242.92 244.826 1242.92 237.63 1243.99 230.701Z" fill="#F3725F"/>
<path d="M1393.5 63.0704C1371.42 63.0704 1353.52 47.5591 1353.52 28.425C1353.52 9.29086 1371.42 -6.22043 1393.5 -6.22043C1415.57 -6.22043 1433.47 9.29086 1433.47 28.425C1433.47 47.5591 1415.57 63.0704 1393.5 63.0704Z" fill="#37313C"/>
<path d="M1369.24 84.6572C1359.38 84.6572 1351.39 76.6629 1351.39 66.8015C1351.39 56.94 1359.38 48.9457 1369.24 48.9457C1379.11 48.9457 1387.1 56.94 1387.1 66.8015C1387.1 76.6629 1379.11 84.6572 1369.24 84.6572Z" fill="#37313C"/>
<path d="M1391.22 4.52712C1379.66 -0.260759 1374.17 -13.5123 1378.96 -25.071C1383.74 -36.6297 1397 -42.1186 1408.55 -37.3307C1420.11 -32.5428 1425.6 -19.2913 1420.81 -7.73257C1416.03 3.82615 1402.77 9.31499 1391.22 4.52712Z" fill="#37313C"/>
</g>
</svg>
