<svg xmlns="http://www.w3.org/2000/svg" width="270" height="272" fill="none" xmlns:v="https://vecta.io/nano"><g clip-path="url(#A)" fill="#ff9578"><path d="M203.198 32.6c-25.519-23.45-61.697-38.035-95.24-29.825C75.346 10.758 49.554 43.621 30.716 71.5 11.833 99.446-3.269 127.835.768 161.415c4.221 35.107 29.996 64.145 60.253 82.283 28.644 17.17 62.541 15.615 95.548 11.112 35.646-4.863 79.512-5.742 96.861-37.363 17.08-31.13-4.379-73.1-13.713-107.447-8.106-29.828-13.791-56.516-36.518-77.4z"/><path opacity=".2" d="M253.416 172.132c16.461-30.959 21.518-69.87 4.917-100.152-16.141-29.441-54.915-45.643-87.033-56.443-32.195-10.825-63.858-17.873-95.724-5.009-33.315 13.45-55.185 46.147-65.233 80.275-9.513 32.308.66 64.707 13.493 95.459 13.859 33.209 25.913 75.439 61.316 83.8 34.853 8.23 70.493-23.737 101.759-41.934 27.152-15.803 51.845-28.425 66.505-55.996z"/></g><defs><clipPath id="A"><path fill="#fff" d="M0 0h270v272H0z"/></clipPath></defs></svg>