<svg width="702" height="529" viewBox="0 0 702 529" fill="none" xmlns="http://www.w3.org/2000/svg">
<path d="M579.841 76.6097C653.291 130.313 706.131 184.355 701.635 275.233C698.529 338.014 688.577 365.463 631.647 420.179C574.581 475.025 464.12 516.254 377.694 526.571C287.337 537.358 197.712 499.933 132.271 447.112C70.3195 397.108 21.4333 369.937 5.2893 293.93C-11.8708 213.139 13.5824 153.398 69.1756 92.3157C142.238 12.0384 229.912 23.7422 338.459 23.4332C434.985 23.1585 501.922 19.6378 579.841 76.6097Z" fill="#FF9578"/>
<path d="M129.904 452.436C58.9557 398.778 7.91453 344.782 12.2576 253.982C15.258 191.254 24.8708 163.828 79.8623 109.159C134.985 54.36 241.684 13.1657 325.167 2.85718C412.447 -7.92023 499.021 29.4729 562.233 82.2484C622.075 132.21 669.297 159.358 684.891 235.301C701.467 316.023 676.88 375.713 623.18 436.743C552.605 516.952 467.917 505.258 363.066 505.567C269.828 505.842 205.17 509.359 129.904 452.436Z" stroke="black" stroke-width="0.290861"/>
</svg>
