<svg xmlns="http://www.w3.org/2000/svg" width="956" height="1456" fill="none" xmlns:v="https://vecta.io/nano"><g clip-path="url(#A)"><path fill-rule="evenodd" d="M544.453 1013.3c-83.455-11.92-157.129-49.616-223.203-98.398-63.448-46.844-104.599-108.957-145.583-173.873-53.514-84.76-136.856-163.338-129.171-261.312 8.318-106.042 78.169-205.104 170.676-267.848 92.643-62.836 214.312-88.605 327.281-69.896 103.966 17.218 162.486 114.069 252.144 165.855 100.282 57.921 273.953 48.42 302.843 154.697 29.48 108.496-132.137 178.299-185.005 278.864-41.864 79.632-15.711 190.294-90.563 245.306-75.237 55.295-184.559 40.155-279.419 26.605z" fill="#ffe03c"/><path d="M463.59 104.158c84.268-2.425 163.274 22.215 236.672 59.069 70.481 35.389 121.582 89.612 172.995 146.625 67.13 74.441 162.603 137.725 171.673 235.581 9.81 105.915-42.21 215.4-122.716 292.942-80.627 77.655-196.153 123.711-310.658 124.458-105.38.687-179.497-84.82-276.647-120.628-108.661-40.051-278.197-1.196-324.71-101.024-47.484-101.912 99.936-198.147 134.959-306.23 27.733-85.585-16.832-190.197 47.591-257.122 64.754-67.267 175.058-70.915 270.841-73.671z" stroke="#000" stroke-width=".291"/><path d="M342.824 126.002l-31.222-60.823s-28.79 18.247-26.763 20.274c2.433 2.027 48.253 42.171 48.253 42.171l9.732-1.622z" fill="#f7ebec"/><path d="M398.375 90.317c-.405-2.838-10.948-34.872-10.948-34.872l-51.092 66.5 62.04-31.628z" fill="#b2aaab"/><path d="M417.434 93.969L406.08 63.152l-69.744 58.796 81.098-27.979z" fill="#d1c3c5"/><path d="M428.787 106.131c0-2.027-6.488-27.979-6.488-27.979l-85.963 43.793 16.219 14.192 76.232-30.006z" fill="#f7ebec"/><g fill="#37313c"><path d="M282.002 80.586l54.335 40.143 14.192 130.162-47.847-30.006-20.68-140.299z"/><path d="M431.626 95.591l10.948 126.107-92.046 29.195-14.192-130.162 95.29-25.14z"/></g><path d="M472.581 1428.43c-27.979 7.3-55.147 17.03-83.531 22.3l-6.082 1.22c-1.217.4-2.839.4-4.055.81-6.082 1.21-12.165 2.02-18.652 3.24-2.839-.4-5.272-1.62-5.677-4.46-.406-8.92 5.677-17.03 10.542-23.92 7.299-10.55 14.193-20.28 22.302-30.42 8.11-10.13 24.735-22.7 35.683-29.19 5.272-3.24 6.894-7.3 6.894-13.79 0-10.94 2.432-34.06 2.432-34.06l66.501 4.06c-2.028 8.92-4.461 17.43-6.894 26.35-7.299 25.55-13.786 51.5-19.463 77.86z" fill="#f7ebec"/><path d="M498.936 1324.22l-66.5-4.06c1.622-29.19 6.082-57.98 10.543-86.77l43.793 5.27c11.353 1.62 23.112 3.24 33.249 8.92-8.92 25.14-15.002 50.69-21.085 76.64z" fill="#f3725f"/><path d="M685.46 1329.08c-1.216 31.22-3.244 62.85 1.217 94.08 1.216 9.73 4.055 11.75 14.192 12.57 6.082.4 12.164.4 18.247.4 17.03 0 93.262 4.46 114.753 4.46 8.921 0 11.759-5.68 8.11-13.79-7.299-17.43-43.793-41.76-46.632-44.19-12.57-11.76-56.768-29.6-53.524-41.36 1.216-3.65 2.839-7.3 1.622-11.76-19.058.4-38.521 0-57.985-.41z" fill="#f7ebec"/><path d="M685.461 1329.09c19.464.81 38.927.81 58.39 0 5.677-15.82 22.302-83.54 25.952-99.76l-84.747 2.44c-.406 15.81-.811 81.5.405 97.32z" fill="#f3725f"/><path d="M567.058 1239.88c-25.546 4.86-49.47 10.94-75.826 8.51-20.68-2.03-41.36-5.68-61.635-10.95-4.865-1.21-10.137-2.84-15.003-4.05.811-10.14 1.622-19.87 2.839-29.6 5.271-40.55 49.875-319.122 55.552-354.4 2.838-18.247 35.277-201.527 43.792-231.939 9.732-34.872 19.058-69.744 34.061-102.588l19.869 4.866.811.811.811-.406c1.622 0 3.244-.405 4.866-.405 10.137 2.432 20.274 4.054 30.817 4.46 30.817.405 61.634.405 92.452-.406 13.381-.405 27.167-2.027 40.548-5.271 10.949-2.433 21.086-6.893 30.006-14.192 10.949-8.515 41.766 108.671 43.388 120.024 7.298 46.632-18.247 549.036-19.464 568.086-1.216 17.03-1.216 34.06-2.433 51.09-53.524 10.95-107.049 12.57-161.384-.81l1.216-68.93 10.949-298.033c.405-2.027 1.216-4.46-1.622-5.271-2.028 1.216-2.028 3.244-2.433 4.866l-6.894 35.277c-5.271 24.329-23.518 125.291-28.384 151.251l-20.68 105.42c-4.865 23.93-8.109 49.07-16.219 72.59z" fill="#3f96d2"/><path d="M621.799 78.964c1.622-10.543 6.893-18.652 16.625-23.924 32.845-19.058 71.772-12.165 106.644-3.649 12.975 3.244 27.573 4.46 38.926-2.027 11.983-7.009 53.924-29.837 92.016-34.473 31.212-3.799 68.281 5.851 80.301 5.851v160.069c-.602 0-34.978-34.109-62.752-33.503-24.772.54-31.898 25.602-56.446 28.975-14.141 1.943-22.376-4.13-36.494-2.027-13.823 2.058-20.726 6.859-33.655 12.164-18.216 7.474-28.384 23.113-45.415 21.897-7.704-.406-14.192-3.244-20.274-7.705-1.622-1.216-13.787-15.408-13.787-15.408 9.732-2.433 19.464-4.461 25.14-14.192 1.622-2.433 2.433-5.272 2.433-8.11.811-10.948-5.271-16.22-15.814-13.381-1.216.405-2.027.405-3.244.811-9.731 3.649-10.542 3.649-14.192-6.082-4.055-9.732-4.054-20.275-3.243-30.818.81-8.515 1.216-8.109-7.705-8.92-12.165-.811-24.329-1.622-36.088-4.055-5.272-1.217-10.543-2.028-14.598-6.488.406-4.866.811-10.137 1.622-15.003z" fill="#fea902"/><g fill="#f3725f"><path d="M389.455 276.028c17.841 23.113 55.957 88.802 64.472 110.699 3.244 8.515 3.244 5.676 8.516.405 3.244 6.488 4.46 13.787 5.271 20.68 2.028 14.598 7.704 27.573 15.003 39.738 6.488 10.948 13.381 21.085 20.68 31.222 1.622 2.433 3.649 4.461 3.244 7.705-4.055 4.46-8.11 9.326-12.165 13.786-17.841 19.464-43.792 20.68-63.256 2.433-9.326-8.921-15.814-19.869-19.869-31.628-11.759-33.655-25.951-66.094-36.088-100.155-7.299-24.33-16.625-47.848-20.275-72.988 12.165-6.894 23.113-14.598 34.467-21.897zm242.076-83.932c-22.707-3.65-40.143-20.275-37.71-45.415 2.027-20.68 10.543-38.521 25.951-52.713 4.055 4.055 9.326 5.271 14.598 6.488 11.759 2.433 23.924 3.243 36.088 4.054 8.921.811 8.516.406 7.705 8.921-1.217 10.543-.811 20.68 3.243 30.817 3.65 9.327 4.461 9.732 14.192 6.083.811-.406 2.028-.811 3.244-.811 10.543-2.839 16.625 2.433 15.814 13.381 0 2.838-1.216 5.677-2.432 8.11-5.677 9.731-15.409 12.164-25.141 14.192-1.216 0-2.027-.406-3.244-.406-.405 11.354-.811 23.113-.405 34.467 1.216 1.216 3.244 2.027 6.082 2.027 5.271 0 10.543.406 16.22.406-8.516 17.03-16.22 34.061-24.33 51.497-12.164 27.167-24.734 53.929-34.061 82.314-.405 1.216-.811 2.838-2.027 3.649-2.027 2.838-5.271 2.433-6.488-.811-.405-1.216-3.244-6.893-3.649-8.11-12.165-25.546-10.948-46.225-15.409-70.96-2.838-16.22-3.244-30.817-3.649-47.442 5.271-4.055 11.354-3.65 17.436-4.866 1.216-.406 2.027-.406 2.838-.811l2.028-33.25c-2.028-.406-4.461-.406-6.894-.811zM777.912 598.8c0-1.217 0-2.433-.406-3.65 14.192-28.789 56.363-87.18 68.122-97.722 2.028-1.622 2.433-4.461 1.217-6.894l-12.976-25.951 73.393-61.229 40.955 64.068c8.515 13.381 5.676 30.817-6.488 40.548l-122.052 98.534c-.811 12.165-14.192 37.71-18.653 46.226-9.731-17.031-17.841-34.872-23.112-53.93z"/></g><g fill="#f7ebec"><path d="M460.82 366.859c7.299-37.305 18.247-72.177 49.064-97.723 6.488-5.271 12.976-10.137 21.086-12.975 21.085-7.704 86.774-29.195 94.073-28.384.406 16.625.406 25.545 1.622 49.469 1.217 31.628 12.165 79.476 12.57 81.098 1.217 3.244 4.461 3.649 6.488.811.811-1.217 20.68-58.39 33.25-85.153 7.704-17.436 18.652-35.277 27.168-52.308 11.759-1.622 90.424 22.302 113.536 42.982 19.869 17.842 85.964 111.104 98.534 129.756-27.168 24.735-54.335 49.064-83.936 70.555-3.649 2.028-6.893 4.055-10.543 6.083-4.866.405-15.814-15.814-22.707-22.302.405 2.838.811 5.677.811 8.92v38.927c0 29.601-24.329 53.93-53.93 53.93h-186.93c-29.601 0-53.93-24.329-53.93-53.93v-9.731c0-3.244-1.622-5.272-3.244-7.705-7.704-10.137-14.192-20.68-20.68-31.222-7.298-12.57-12.975-25.546-15.003-39.738-.811-6.893-2.027-14.192-5.271-20.68.811-7.299-3.244-13.787-2.028-20.68z"/><path d="M625.043 227.777l-49.875 13.381c-26.357 7.299-55.146 15.409-76.232 33.656-16.219 13.787-27.168 32.844-34.872 52.713-12.165 31.223-17.436 66.095-6.893 98.128 5.271 15.815 14.598 30.412 26.762 41.36 6.082 5.677 13.381 10.543 21.086 13.787 6.082 2.838 17.03 7.704 23.923 6.082 1.217-11.353 0-23.518 0-34.872V417.14v-70.149-53.119c0-2.028 0-4.055 1.217-5.271s2.838-1.622 4.46-2.028c35.278-9.326 67.717-30.411 90.424-58.796z"/></g><g fill="#f3725f"><path d="M396.753 316.579l-36.089 4.461-11.353-50.281c-.811-3.244-2.839-6.082-5.677-8.11l-28.385-18.247c-4.46-2.838-8.109-7.298-10.137-12.57-3.649-8.921-8.92-23.113-7.299-24.329 1.622-1.622 12.976-26.762 19.058-40.549 2.028-4.055 7.299-5.271 10.543-2.027l10.948 11.353c2.433 2.433 4.055 6.083 4.461 9.732l3.649 34.872 30.412 27.979c2.433 2.027 4.46 4.866 5.677 7.298l31.222 56.769-17.03 3.649z"/><path d="M305.519 201.419c1.217-8.109-2.433-16.625-1.622-24.734.406-5.677 3.244-10.543 3.65-16.22s-2.028-12.165-7.299-13.381c-1.217 9.732-4.055 17.841-7.299 27.573-3.244 9.326 1.622 17.031 2.433 26.762 0 1.622.405 2.839.405 4.461.406 1.216.812 2.433 1.622 3.649 1.622 4.055 3.65 7.704 5.272 11.759.405 1.217 1.216 2.839 2.838 2.839 1.622.405 2.839-1.217 3.649-2.839 1.622-2.838 2.434-6.082 2.434-9.326"/></g><g stroke="#b2aaab" stroke-width="1.108" stroke-miterlimit="10"><path d="M423.515 109.778l2.839 23.519-72.583 18.652-3.244-21.896 72.988-20.275zm5.272 37.306l-72.582 16.625 11.353 72.582 66.501-19.463-5.272-69.744z"/></g><path d="M606.796 153.976c1.622 9.327 9.732 16.625 19.463 16.22s17.031-8.11 17.436-17.842l-36.899 1.622z" fill="#fff"/><path d="M738.58 254.134c-9.326 18.247-25.14 34.872-46.226 37.711-1.622.405-2.838-.406-3.649-2.028-.406-1.216.405-3.244 2.027-3.649 19.869-2.839 34.061-18.247 42.982-35.278 1.622-2.838 6.488 0 4.866 3.244z" fill="#f7ebec"/><g fill="#d1c3c5"><path d="M747.095 241.968c-6.488 15.814-19.463 27.979-35.683 33.25-3.649 1.217-4.866-4.46-1.622-5.271 14.192-4.46 26.357-15.409 32.034-29.601.405-1.216 2.027-2.433 3.649-2.027.811.405 2.028 2.027 1.622 3.649z"/><path d="M711.818 271.975c8.11 22.302 3.65 46.631-10.948 64.878-13.786 17.436-34.466 28.384-54.335 38.522-3.244 1.622-6.083-3.244-2.839-4.866 17.842-9.326 36.494-18.653 50.281-34.061 15.408-17.436 20.274-40.954 12.164-62.851-.811-3.649 4.461-4.866 5.677-1.622zm-116.376-29.194c-5.271 6.488-6.487 15.409-3.243 23.113 1.621 3.649 4.054 6.893 6.893 8.921 3.649 2.838 7.704 4.46 11.353 6.893 2.839 2.028 0 6.893-2.838 4.866-4.055-2.838-8.921-4.866-12.976-8.11-3.649-3.244-6.487-7.299-8.109-11.759-3.65-9.326-1.217-20.274 4.866-27.979 2.432-2.838 6.082 1.217 4.054 4.055z"/><path d="M612.472 284.546c-15.408 11.76-20.68 33.251-15.003 51.497 6.083 19.464 23.113 34.061 42.171 40.549 3.244 1.217 2.027 6.488-1.622 5.272-21.085-7.705-40.143-23.924-46.226-45.821-5.676-20.274.811-43.387 17.842-56.362 2.838-2.028 5.677 2.838 2.838 4.865z"/><path d="M641.262 376.59v152.869c0 3.649-5.677 3.649-5.677 0V376.59c.405-3.65 5.677-3.65 5.677 0zm-42.981 30.817c-.405 11.759-1.622 23.518-6.893 34.466-4.46 9.326-11.759 17.436-20.68 22.302-17.841 8.921-41.36 2.027-47.037-18.247-1.621-6.488-1.622-12.976-1.622-19.463v-22.302c0-3.65 5.677-3.65 5.677 0v21.491c0 6.082 0 12.57 1.217 18.652 2.838 11.354 13.786 18.653 25.14 18.247 11.759 0 22.707-7.704 28.79-17.436 7.298-11.354 8.92-24.329 9.731-37.71.406-3.65 5.677-3.65 5.677 0z"/><path d="M526.51 400.111h55.552c3.649 0 3.649 5.677 0 5.677H526.51c-3.65-.405-3.65-5.677 0-5.677zm274.11 49.872l-.811-29.6c0-4.866-.405-9.732-.405-14.598 0-3.649-.811-7.704 2.027-10.543 2.838-2.433 6.488 1.622 4.055 4.055-1.217.811-.811 3.244-.811 4.461 0 2.433 0 4.46.405 6.893 0 4.46.406 8.515.406 12.976.405 8.92.405 17.436.811 26.356 0 3.65-5.677 3.65-5.677 0zm-20.681-60.823c3.649 10.542 6.893 21.491 9.326 32.439.811 3.649-4.46 4.866-5.271 1.622-2.433-10.948-5.677-21.897-9.327-32.439-1.621-3.244 4.055-4.866 5.272-1.622zm-275.731 92.857c-1.216-30.006-1.216-60.417-.811-90.424 0-3.649 5.677-3.649 5.677 0-.811 30.007-.406 60.418.811 90.424 0 3.65-5.677 3.65-5.677 0z"/><path d="M498.936 422.005c-4.866-8.11-9.732-16.625-12.57-25.546-3.244-9.326-3.649-19.058-2.433-28.79.406-3.649 6.082-2.027 5.271 1.622-1.216 8.921-.405 18.247 2.433 26.763 2.839 8.109 7.299 15.814 11.76 23.518 2.027 2.838-2.839 5.677-4.461 2.433zm394.134-58.388c-20.68 28.384-47.036 51.902-77.448 69.744-3.244 2.027-6.082-2.839-2.838-4.866 29.195-17.436 55.146-40.144 75.42-67.717 2.028-2.838 6.894 0 4.866 2.839zm-428.195-10.142a174.41 174.41 0 0 0 24.734 89.613c2.028 3.244-2.838 6.082-4.865 2.839-16.625-27.979-25.546-60.013-25.546-92.452.405-3.649 5.677-3.649 5.677 0z"/></g><g fill="#37313c"><path d="M639.642 887.911V712.74c0-3.649 5.676-3.649 5.676 0v175.171c0 3.649-5.676 3.649-5.676 0z"/><path d="M640.046 797.893c-12.57-21.085-23.113-43.387-31.628-66.5-1.217-3.244 4.054-4.866 5.271-1.622 8.11 22.707 18.652 44.604 30.817 65.284 2.433 2.838-2.433 5.677-4.46 2.838zm-107.048-231.94h248.564c3.649 0 3.649 5.677 0 5.677H532.998c-3.65 0-3.65-5.677 0-5.677zm246.536 30.817c9.326 25.14 17.842 50.686 25.546 76.232 1.216 3.649-4.46 4.866-5.271 1.622-7.705-25.546-16.22-51.092-25.546-76.232-1.217-3.649 4.055-5.271 5.271-1.622zm-63.662 579.85v-73.39c0-3.65 5.677-3.65 5.677 0v73.39c0 3.65-5.677 3.65-5.677 0zm4.461-102.99v-43.39c0-3.65 5.677-3.65 5.677 0v43.39c0 3.24-5.677 3.24-5.677 0zm-259.512 112.72l12.165-60.01c.811-3.65 6.082-2.03 5.271 1.62l-12.164 60.01c-.406 3.25-5.677 2.03-5.272-1.62zm20.274-102.99c1.216-7.3 2.027-15.01 3.244-22.3.405-1.63 2.027-2.44 3.649-2.03 1.622.4 2.028 2.03 2.028 3.65-1.217 7.3-2.028 15-3.244 22.3-.406 1.62-2.028 2.43-3.65 2.03-1.622-.81-2.027-2.44-2.027-3.65z"/></g><g fill="#f3725f"><path d="M684.244 1416.26h152.869c3.649 0 3.649 5.68 0 5.68H684.244c-3.65 0-3.65-5.68 0-5.68zm-203.96-6.08c-40.143 17.44-85.963 16.63-126.106 34.87-3.244 1.62-6.083-3.24-2.839-4.86 40.143-18.25 85.558-17.03 126.107-34.88 3.244-1.62 6.082 3.25 2.838 4.87z"/></g><g fill="#3f96d2"><path d="M768.586 1381.39l-28.384 37.71c-.811 1.22-2.433 1.62-3.65.81s-2.027-2.43-.811-3.65l28.385-37.71c.811-1.21 2.433-1.62 3.649-.81.811.41 1.622 2.44.811 3.65zm-16.625-9.33l-38.116 49.88c-2.027 2.84-6.893 0-4.866-2.84l38.116-49.87c2.028-2.84 6.893 0 4.866 2.83zm-319.119 3.25c8.109 12.57 15.408 25.95 21.896 39.33 1.622 3.25-3.244 6.09-4.866 2.84-6.488-13.38-13.786-26.76-21.896-39.33-1.622-2.84 3.244-5.68 4.866-2.84zm-9.327 9.32c6.082 12.98 12.975 25.55 20.274 37.71 2.028 3.25-2.838 6.09-4.866 2.84-7.299-12.16-14.192-24.73-20.274-37.71-1.622-3.24 3.244-6.08 4.866-2.84z"/></g><g fill="#fea902"><path d="M619.366 94.777c-4.055-14.598.406-30.006 9.326-41.765 10.137-12.976 24.735-21.085 40.549-24.329 17.842-3.649 36.089-2.027 53.93.811 10.137 1.622 20.68 3.244 31.223 2.433 10.137-.811 18.652-4.866 27.167-10.543C796.97 10.841 814-4.973 834.275 1.514c3.244 1.216 2.027 6.488-1.622 5.271-17.842-5.677-32.845 8.11-46.226 17.842-6.488 4.46-12.975 8.515-20.68 10.948-8.515 2.433-17.436 2.433-25.951 2.027-17.436-1.622-34.061-5.677-51.497-5.271-16.625.406-34.466 4.46-47.442 15.814S619.772 76.53 624.232 93.56c1.622 3.244-3.649 4.866-4.866 1.217zm69.339 89.615c1.216 17.031 15.814 30.817 31.222 36.494s32.034 4.461 46.226-4.055c7.704-4.46 15.003-10.137 23.518-13.786 7.704-3.244 15.814-4.866 24.33-5.272 14.192 0 30.411 7.705 30.411 23.924 0 3.65-5.677 3.65-5.677 0-.405-22.302-31.222-19.463-45.414-14.192-9.327 3.65-16.625 9.732-25.141 14.598-6.488 3.649-12.975 6.082-20.274 6.893-28.384 4.055-62.04-13.787-64.473-44.604-.811-3.649 4.866-3.649 5.272 0z"/></g></g><defs><clipPath id="A"><path fill="#fff" d="M0 0h956v1456H0z"/></clipPath></defs></svg>