<svg xmlns="http://www.w3.org/2000/svg" width="609" height="457" fill="none" xmlns:v="https://vecta.io/nano"><path d="M275.46 43.651l45.759 25.62 51.566-29.383 27.93 35.891 61.144-16.869 6.732 41.833 63.348-2.319-15.278 42.729 57.911 12.51-35.446 38.472 45.49 25.83-51.338 29.574 27.581 36.034-61.038 17.11 6.346 41.893-63.376 2.581-15.654 42.699-58.07-12.259L333.3 413.95l-45.76-25.62-51.565 29.384-27.93-35.891-61.144 16.869-6.732-41.833-63.349 2.319 15.279-42.729-57.912-12.51 35.446-38.471-45.49-25.83 51.338-29.575-27.581-36.034 61.038-17.11-6.346-41.893 63.376-2.581 15.654-42.698 58.07 12.258 35.767-38.354z" fill="#5231fd"/></svg>