<svg xmlns="http://www.w3.org/2000/svg" width="266" height="278" fill="none" xmlns:v="https://vecta.io/nano"><g clip-path="url(#A)" fill="#ffd600"><path d="M209.25 46.964c29.256 18.58 52.707 49.75 53.458 84.275.731 33.567-27.758 57.843-49.812 83.255-22.106 25.473-42.198 56.55-75.678 61.342-35.003 5.01-69.723-12.372-95.074-36.904-23.999-23.224-31.27-56.368-35.463-89.415-4.528-35.69-15.032-78.289 11.021-103.231 25.648-24.554 66.973-5.637 102.566-5.511 30.909.109 62.929-10.358 88.983 6.189z"/><path opacity=".2" d="M264.221 168.223c-1.463 34.626-16.732 70.52-46.256 88.434-28.704 17.416-63.972 4.882-97.007-1.511-33.113-6.409-70.073-8.27-90.963-34.869-21.84-27.809-24.147-66.568-15.577-100.788 8.113-32.396 33.181-55.265 59.705-75.42 28.645-21.766 60.284-52.163 94.911-42.071 34.089 9.935 38.369 55.181 56.056 86.068 15.36 26.823 40.435 49.319 39.132 80.157z"/></g><defs><clipPath id="A"><path fill="#fff" d="M0 0h266v278H0z"/></clipPath></defs></svg>